SplineFontDB: 3.2
FontName: IRKoodak
FullName: IRKoodak
FamilyName: IRKoodak
Weight: Book
Copyright: Copyright (c) 2022, Information Technology Organization of Iran (ito.gov.ir)
Version: 1.001
ItalicAngle: 0
UnderlinePosition: -100
UnderlineWidth: 60
Ascent: 1638
Descent: 410
InvalidEm: 0
sfntRevision: 0x00010042
LayerCount: 2
Layer: 0 1 "Back" 1
Layer: 1 1 "Fore" 0
XUID: [1021 420 722297922 15153685]
StyleMap: 0x0040
FSType: 0
OS2Version: 3
OS2_WeightWidthSlopeOnly: 0
OS2_UseTypoMetrics: 0
CreationTime: 1354295721
ModificationTime: 1662627678
PfmFamily: 17
TTFWeight: 400
TTFWidth: 5
LineGap: 100
VLineGap: 0
Panose: 2 0 5 6 0 0 0 2 0 2
OS2TypoAscent: 1941
OS2TypoAOffset: 0
OS2TypoDescent: -991
OS2TypoDOffset: 0
OS2TypoLinegap: 1500
OS2WinAscent: 1941
OS2WinAOffset: 0
OS2WinDescent: 991
OS2WinDOffset: 0
HheadAscent: 1941
HheadAOffset: 0
HheadDescent: -991
HheadDOffset: 0
OS2SubXSize: 1434
OS2SubYSize: 1331
OS2SubXOff: 0
OS2SubYOff: 293
OS2SupXSize: 1434
OS2SupYSize: 1331
OS2SupXOff: 0
OS2SupYOff: 930
OS2StrikeYSize: 50
OS2StrikeYPos: 250
OS2CapHeight: 1933
OS2XHeight: 594
OS2FamilyClass: 2048
OS2Vendor: 'PARS'
OS2CodePages: 20000041.00000000
OS2UnicodeRanges: 00002003.00000000.00000000.00000000
Lookup: 1 1 0 "'isol' Isolated Forms in Arabic lookup 0" { "'isol' Isolated Forms in Arabic lookup 0 subtable"  } ['isol' ('arab' <'dflt' > ) ]
Lookup: 1 1 0 "'init' Initial Forms in Arabic lookup 1" { "'init' Initial Forms in Arabic lookup 1 subtable"  } ['init' ('arab' <'dflt' > ) ]
Lookup: 1 1 0 "'fina' Terminal Forms in Arabic lookup 2" { "'fina' Terminal Forms in Arabic lookup 2 subtable"  } ['fina' ('arab' <'dflt' > ) ]
Lookup: 1 1 0 "'medi' Medial Forms in Arabic lookup 3" { "'medi' Medial Forms in Arabic lookup 3 subtable"  } ['medi' ('arab' <'dflt' > ) ]
Lookup: 4 1 0 "'ccmp' Glyph Composition/Decomposition in Arabic lookup 4" { "'ccmp' Glyph Composition/Decomposition in Arabic lookup 4 subtable"  } ['ccmp' ('arab' <'dflt' > ) ]

StartChar: quotedbl
Encoding: 34 34 4
Width: 931
Flags: W
LayerCount: 2
Fore
SplineSet
593 703 m 1,0,1
 587 730 587 730 582 753.5 c 128,-1,2
 577 777 577 777 576 788 c 0,3,4
 553 898 553 898 540 976 c 128,-1,5
 527 1054 527 1054 527 1081 c 0,6,7
 527 1139 527 1139 553.5 1172.5 c 128,-1,8
 580 1206 580 1206 623 1206 c 0,9,10
 643 1206 643 1206 660.5 1197 c 128,-1,11
 678 1188 678 1188 691 1172.5 c 128,-1,12
 704 1157 704 1157 711.5 1135 c 128,-1,13
 719 1113 719 1113 719 1088 c 0,14,15
 719 1074 719 1074 715 1045 c 128,-1,16
 711 1016 711 1016 703 969 c 128,-1,17
 695 922 695 922 682.5 856.5 c 128,-1,18
 670 791 670 791 653 703 c 1,19,-1
 593 703 l 1,0,1
293 703 m 1,20,21
 287 730 287 730 282 753.5 c 128,-1,22
 277 777 277 777 276 788 c 0,23,24
 253 898 253 898 240 976 c 128,-1,25
 227 1054 227 1054 227 1081 c 0,26,27
 227 1139 227 1139 253.5 1172.5 c 128,-1,28
 280 1206 280 1206 323 1206 c 0,29,30
 343 1206 343 1206 360.5 1197 c 128,-1,31
 378 1188 378 1188 391 1172.5 c 128,-1,32
 404 1157 404 1157 411.5 1135 c 128,-1,33
 419 1113 419 1113 419 1088 c 0,34,35
 419 1074 419 1074 415 1045 c 128,-1,36
 411 1016 411 1016 403 969 c 128,-1,37
 395 922 395 922 382.5 856.5 c 128,-1,38
 370 791 370 791 353 703 c 1,39,-1
 293 703 l 1,20,21
EndSplineSet
EndChar

StartChar: quotesingle
Encoding: 39 39 5
Width: 428
Flags: W
LayerCount: 2
Fore
SplineSet
196 703 m 1,0,1
 190 730 190 730 185 753.5 c 128,-1,2
 180 777 180 777 179 788 c 0,3,4
 156 898 156 898 143 976 c 128,-1,5
 130 1054 130 1054 130 1081 c 0,6,7
 130 1139 130 1139 156.5 1172.5 c 128,-1,8
 183 1206 183 1206 226 1206 c 0,9,10
 246 1206 246 1206 263.5 1197 c 128,-1,11
 281 1188 281 1188 294 1172.5 c 128,-1,12
 307 1157 307 1157 314.5 1135 c 128,-1,13
 322 1113 322 1113 322 1088 c 0,14,15
 322 1074 322 1074 318 1045 c 128,-1,16
 314 1016 314 1016 306 969 c 128,-1,17
 298 922 298 922 285.5 856.5 c 128,-1,18
 273 791 273 791 256 703 c 1,19,-1
 196 703 l 1,0,1
EndSplineSet
EndChar

StartChar: asterisk
Encoding: 42 42 6
Width: 1126
Flags: W
LayerCount: 2
Fore
SplineSet
568 347 m 1,0,-1
 574 687 l 1,1,-1
 355 467 l 1,2,-1
 250 467 l 1,3,-1
 527 746 l 1,4,-1
 203 746 l 1,5,-1
 223 839 l 1,6,-1
 547 839 l 1,7,-1
 277 1104 l 1,8,-1
 370 1104 l 1,9,-1
 579 899 l 1,10,-1
 585 1199 l 1,11,-1
 704 1239 l 1,12,-1
 699 912 l 1,13,-1
 905 1104 l 1,14,-1
 1013 1104 l 1,15,-1
 730 839 l 1,16,-1
 1065 839 l 1,17,-1
 1043 746 l 1,18,-1
 729 746 l 1,19,-1
 1002 467 l 1,20,-1
 910 467 l 1,21,-1
 696 687 l 1,22,-1
 688 386 l 1,23,-1
 568 347 l 1,0,-1
EndSplineSet
EndChar

StartChar: plus
Encoding: 43 43 7
Width: 1169
GlyphClass: 2
Flags: W
LayerCount: 2
Fore
SplineSet
644 421 m 1,0,-1
 642 83 l 2,1,2
 642 46 642 46 621 25 c 0,3,4
 581 -16 581 -16 540 26 c 0,5,6
 518 47 518 47 518 83 c 2,7,-1
 520 423 l 1,8,-1
 180 421 l 2,9,10
 144 421 144 421 123 443 c 0,11,12
 81 484 81 484 122 524 c 0,13,14
 143 545 143 545 180 545 c 2,15,-1
 518 546 l 1,16,-1
 517 885 l 2,17,18
 517 924 517 924 538 945 c 0,19,20
 578 984 578 984 618 944 c 0,21,22
 640 922 640 922 640 885 c 2,23,-1
 642 544 l 1,24,-1
 982 543 l 2,25,26
 1019 543 1019 543 1041 521 c 0,27,28
 1081 481 1081 481 1042 441 c 0,29,30
 1021 420 1021 420 982 420 c 2,31,-1
 644 421 l 1,0,-1
EndSplineSet
EndChar

StartChar: hyphen
Encoding: 45 45 8
Width: 1047
Flags: W
LayerCount: 2
Fore
SplineSet
180 421 m 2,0,1
 144 421 144 421 123 443 c 0,2,3
 81 484 81 484 122 524 c 0,4,5
 143 545 143 545 180 545 c 2,6,-1
 852 543 l 2,7,8
 889 543 889 543 911 521 c 0,9,10
 951 481 951 481 912 441 c 0,11,12
 891 420 891 420 852 420 c 2,13,-1
 180 421 l 2,0,1
EndSplineSet
EndChar

StartChar: period
Encoding: 46 46 9
Width: 519
GlyphClass: 2
Flags: W
LayerCount: 2
Fore
SplineSet
443 132 m 0,0,1
 443 75 443 75 403 33 c 1,2,3
 360 -6 360 -6 303 -6 c 0,4,5
 247 -6 247 -6 204 33 c 1,6,7
 164 75 164 75 164 132 c 0,8,9
 164 190 164 190 204 231 c 0,10,11
 246 272 246 272 303 272 c 0,12,13
 361 272 361 272 403 231 c 0,14,15
 443 190 443 190 443 132 c 0,0,1
EndSplineSet
EndChar

StartChar: slash
Encoding: 47 47 10
Width: 733
Flags: W
LayerCount: 2
Fore
SplineSet
589 1253 m 1,0,-1
 271 -107 l 1,1,-1
 134 -107 l 1,2,-1
 451 1253 l 1,3,-1
 589 1253 l 1,0,-1
EndSplineSet
EndChar

StartChar: less
Encoding: 60 60 11
Width: 1117
Flags: W
LayerCount: 2
Fore
SplineSet
955 58 m 1,0,-1
 150 444 l 1,1,-1
 150 534 l 1,2,-1
 955 918 l 1,3,-1
 955 784 l 1,4,-1
 331 489 l 1,5,-1
 955 192 l 1,6,-1
 955 58 l 1,0,-1
EndSplineSet
EndChar

StartChar: equal
Encoding: 61 61 12
Width: 1117
Flags: W
LayerCount: 2
Fore
SplineSet
973 586 m 1,0,-1
 144 586 l 1,1,-1
 144 706 l 1,2,-1
 973 706 l 1,3,-1
 973 586 l 1,0,-1
973 271 m 1,4,-1
 144 271 l 1,5,-1
 144 391 l 1,6,-1
 973 391 l 1,7,-1
 973 271 l 1,4,-1
EndSplineSet
EndChar

StartChar: greater
Encoding: 62 62 13
Width: 1117
Flags: W
LayerCount: 2
Fore
SplineSet
966 444 m 1,0,-1
 160 58 l 1,1,-1
 160 192 l 1,2,-1
 786 489 l 1,3,-1
 160 784 l 1,4,-1
 160 918 l 1,5,-1
 966 534 l 1,6,-1
 966 444 l 1,0,-1
EndSplineSet
EndChar

StartChar: bracketleft
Encoding: 91 91 14
Width: 546
GlyphClass: 2
Flags: W
LayerCount: 2
Fore
SplineSet
117 -330 m 1,0,-1
 117 1173 l 1,1,-1
 515 1173 l 1,2,-1
 515 996 l 1,3,-1
 330 996 l 1,4,-1
 330 -154 l 1,5,-1
 515 -154 l 1,6,-1
 515 -330 l 1,7,-1
 117 -330 l 1,0,-1
EndSplineSet
EndChar

StartChar: bracketright
Encoding: 93 93 15
Width: 546
GlyphClass: 2
Flags: W
LayerCount: 2
Fore
SplineSet
429 1173 m 1,0,-1
 429 -330 l 1,1,-1
 30 -330 l 1,2,-1
 30 -154 l 1,3,-1
 215 -154 l 1,4,-1
 215 998 l 1,5,-1
 30 998 l 1,6,-1
 30 1173 l 1,7,-1
 429 1173 l 1,0,-1
EndSplineSet
EndChar

StartChar: grave
Encoding: 96 96 16
Width: 580
Flags: W
LayerCount: 2
Fore
SplineSet
352 882 m 1,0,-1
 83 1051 l 2,1,2
 60 1068 60 1068 46.5 1086.5 c 128,-1,3
 33 1105 33 1105 33 1126 c 0,4,5
 33 1151 33 1151 49 1166 c 128,-1,6
 65 1181 65 1181 93 1181 c 0,7,8
 111 1181 111 1181 126.5 1172 c 128,-1,9
 142 1163 142 1163 166 1140 c 2,10,-1
 422 882 l 1,11,-1
 352 882 l 1,0,-1
EndSplineSet
EndChar

StartChar: braceleft
Encoding: 123 123 17
Width: 638
GlyphClass: 2
Flags: W
LayerCount: 2
Fore
SplineSet
48 328 m 1,0,-1
 48 520 l 1,1,2
 106 523 106 523 136 537.5 c 128,-1,3
 166 552 166 552 187.5 586 c 128,-1,4
 209 620 209 620 217 671 c 0,5,6
 223 710 223 710 223 805 c 0,7,8
 223 960 223 960 237.5 1021 c 128,-1,9
 252 1082 252 1082 289.5 1119.5 c 128,-1,10
 327 1157 327 1157 399 1178 c 0,11,12
 448 1193 448 1193 553 1193 c 2,13,-1
 595 1193 l 1,14,-1
 595 1002 l 1,15,16
 506 1002 506 1002 481 992 c 128,-1,17
 456 982 456 982 444 961.5 c 128,-1,18
 432 941 432 941 432 891 c 256,19,20
 432 841 432 841 425 700 c 0,21,22
 421 621 421 621 404 571.5 c 128,-1,23
 387 522 387 522 361 490 c 128,-1,24
 335 458 335 458 282 424 c 1,25,26
 329 397 329 397 359 360.5 c 128,-1,27
 389 324 389 324 405 272 c 128,-1,28
 421 220 421 220 426 133 c 0,29,30
 431 0 431 0 431 -37 c 0,31,32
 431 -90 431 -90 444 -110.5 c 128,-1,33
 457 -131 457 -131 483 -142 c 128,-1,34
 509 -153 509 -153 595 -153 c 1,35,-1
 595 -345 l 1,36,-1
 553 -345 l 2,37,38
 445 -345 445 -345 387.5 -327.5 c 128,-1,39
 330 -310 330 -310 290 -270 c 128,-1,40
 250 -230 250 -230 236.5 -171.5 c 128,-1,41
 223 -113 223 -113 223 14 c 0,42,43
 223 161 223 161 210 205 c 0,44,45
 193 269 193 269 157.5 296.5 c 128,-1,46
 122 324 122 324 48 328 c 1,0,-1
EndSplineSet
EndChar

StartChar: bar
Encoding: 124 124 18
Width: 458
Flags: W
LayerCount: 2
Fore
SplineSet
141 -345 m 1,0,-1
 141 1193 l 1,1,-1
 319 1193 l 1,2,-1
 319 -345 l 1,3,-1
 141 -345 l 1,0,-1
EndSplineSet
EndChar

StartChar: asciitilde
Encoding: 126 126 19
Width: 957
Flags: W
LayerCount: 2
Fore
SplineSet
54 415 m 1,0,-1
 54 622 l 1,1,2
 155 733 155 733 290 733 c 0,3,4
 341 733 341 733 383.5 723 c 128,-1,5
 426 713 426 713 536 668.5 c 128,-1,6
 646 624 646 624 685 624 c 0,7,8
 730 624 730 624 788.5 651.5 c 128,-1,9
 847 679 847 679 903 739 c 1,10,-1
 903 523 l 1,11,12
 866 485 866 485 800 451.5 c 128,-1,13
 734 418 734 418 664 418 c 0,14,15
 624 418 624 418 586 427.5 c 128,-1,16
 548 437 548 437 466 473 c 0,17,18
 342 526 342 526 272 526 c 0,19,20
 160 526 160 526 54 415 c 1,0,-1
EndSplineSet
EndChar

StartChar: agrave
Encoding: 224 224 20
Width: 1075
Flags: W
LayerCount: 2
Fore
SplineSet
741 331 m 1,0,1
 720 266 720 266 690.5 213 c 128,-1,2
 661 160 661 160 626 114 c 0,3,4
 519 -19 519 -19 400 -19 c 0,5,6
 208 -19 208 -19 159 214 c 0,7,8
 133 334 133 334 157 451 c 128,-1,9
 181 568 181 568 252 683 c 0,10,11
 325 801 325 801 433 860 c 128,-1,12
 541 919 541 919 684 919 c 0,13,14
 712 919 712 919 746 918.5 c 128,-1,15
 780 918 780 918 815.5 916 c 128,-1,16
 851 914 851 914 886 912 c 128,-1,17
 921 910 921 910 952 908 c 1,18,-1
 946 646 l 1,19,-1
 946 647 l 1,20,-1
 950 254 l 2,21,22
 952 209 952 209 954.5 179.5 c 128,-1,23
 957 150 957 150 958 139 c 0,24,25
 961 114 961 114 985 114 c 0,26,27
 1053 114 1053 114 1214 346 c 1,28,-1
 1218 179 l 1,29,30
 1073 -19 1073 -19 925 -19 c 0,31,32
 785 -19 785 -19 753 126 c 0,33,34
 749 146 749 146 747 182 c 128,-1,35
 745 218 745 218 745 264 c 2,36,-1
 741 331 l 1,0,1
737 758 m 1,37,38
 688 775 688 775 647 783.5 c 128,-1,39
 606 792 606 792 561 792 c 0,40,41
 497 792 497 792 453.5 749.5 c 128,-1,42
 410 707 410 707 387 625 c 0,43,44
 362 522 362 522 357 425 c 128,-1,45
 352 328 352 328 368 248 c 0,46,47
 388 146 388 146 437 146 c 0,48,49
 493 146 493 146 589 280 c 0,50,51
 637 352 637 352 674 430 c 128,-1,52
 711 508 711 508 739 599 c 1,53,-1
 737 758 l 1,37,38
641 537 m 1,54,-1
 372 706 l 2,55,56
 349 723 349 723 335.5 741.5 c 128,-1,57
 322 760 322 760 322 781 c 0,58,59
 322 806 322 806 338 821 c 128,-1,60
 354 836 354 836 382 836 c 0,61,62
 400 836 400 836 415.5 827 c 128,-1,63
 431 818 431 818 455 795 c 2,64,-1
 711 537 l 1,65,-1
 641 537 l 1,54,-1
EndSplineSet
EndChar

StartChar: ocircumflex.001
Encoding: 65539 -1 26
Width: 1112
Flags: W
LayerCount: 2
Fore
SplineSet
416 -19 m 0,0,1
 301 -19 301 -19 205 70 c 0,2,3
 110 160 110 160 85 288 c 0,4,5
 32 528 32 528 170 726 c 0,6,7
 307 928 307 928 522 928 c 0,8,9
 643 928 643 928 742 842 c 1,10,11
 837 753 837 753 864 626 c 0,12,13
 890 499 890 499 869 388.5 c 128,-1,14
 848 278 848 278 781 179 c 0,15,16
 711 79 711 79 619.5 30 c 128,-1,17
 528 -19 528 -19 416 -19 c 0,0,1
483 98 m 0,18,19
 536 98 536 98 573.5 133 c 128,-1,20
 611 168 611 168 637 236 c 0,21,22
 665 310 665 310 668.5 393.5 c 128,-1,23
 672 477 672 477 652 574 c 0,24,25
 602 813 602 813 466 813 c 0,26,27
 365 813 365 813 313 670 c 0,28,29
 284 595 284 595 281 510.5 c 128,-1,30
 278 426 278 426 298 332 c 0,31,32
 324 213 324 213 370 155.5 c 128,-1,33
 416 98 416 98 483 98 c 0,18,19
EndSplineSet
EndChar

StartChar: dagger
Encoding: 8224 8224 30
Width: 932
Flags: W
LayerCount: 2
Fore
SplineSet
347 -231 m 1,0,-1
 567 622 l 1,1,-1
 248 592 l 1,2,-1
 297 700 l 1,3,-1
 576 668 l 1,4,-1
 607 1066 l 1,5,-1
 755 1093 l 1,6,-1
 621 668 l 1,7,-1
 941 700 l 1,8,-1
 895 592 l 1,9,-1
 612 622 l 1,10,-1
 496 -213 l 1,11,-1
 347 -231 l 1,0,-1
EndSplineSet
EndChar

StartChar: degree
Encoding: 176 176 31
Width: 409
Flags: W
LayerCount: 2
Fore
SplineSet
395 844 m 0,0,1
 344 844 344 844 307.5 880 c 128,-1,2
 271 916 271 916 271 968 c 0,3,4
 271 1021 271 1021 307.5 1057 c 128,-1,5
 344 1093 344 1093 395 1093 c 0,6,7
 447 1093 447 1093 483 1057 c 128,-1,8
 519 1021 519 1021 519 968 c 0,9,10
 519 916 519 916 483 880 c 128,-1,11
 447 844 447 844 395 844 c 0,0,1
395 888 m 256,12,13
 427 888 427 888 450.5 912 c 128,-1,14
 474 936 474 936 474 968 c 256,15,16
 474 1000 474 1000 450.5 1024 c 128,-1,17
 427 1048 427 1048 395 1048 c 256,18,19
 363 1048 363 1048 339 1024 c 128,-1,20
 315 1000 315 1000 315 968 c 256,21,22
 315 936 315 936 339 912 c 128,-1,23
 363 888 363 888 395 888 c 256,12,13
EndSplineSet
EndChar

StartChar: bullet
Encoding: 8226 8226 32
Width: 931
Flags: W
LayerCount: 2
Fore
SplineSet
817 662 m 256,0,1
 817 517 817 517 713.5 414 c 128,-1,2
 610 311 610 311 465 311 c 256,3,4
 320 311 320 311 217 414 c 128,-1,5
 114 517 114 517 114 662 c 256,6,7
 114 807 114 807 217 910 c 128,-1,8
 320 1013 320 1013 465 1013 c 256,9,10
 610 1013 610 1013 713.5 910 c 128,-1,11
 817 807 817 807 817 662 c 256,0,1
EndSplineSet
EndChar

StartChar: registered
Encoding: 174 174 33
Width: 897
Flags: W
LayerCount: 2
Fore
SplineSet
580 445 m 0,0,1
 448 445 448 445 354.5 538.5 c 128,-1,2
 261 632 261 632 261 764 c 256,3,4
 261 896 261 896 354.5 990 c 128,-1,5
 448 1084 448 1084 580 1084 c 0,6,7
 714 1084 714 1084 807 990 c 128,-1,8
 900 896 900 896 900 764 c 256,9,10
 900 632 900 632 806.5 538.5 c 128,-1,11
 713 445 713 445 580 445 c 0,0,1
580 484 m 0,12,13
 695 484 695 484 777.5 567 c 128,-1,14
 860 650 860 650 860 764 c 256,15,16
 860 878 860 878 777.5 961 c 128,-1,17
 695 1044 695 1044 580 1044 c 0,18,19
 466 1044 466 1044 383.5 961 c 128,-1,20
 301 878 301 878 301 764 c 256,21,22
 301 650 301 650 383.5 567 c 128,-1,23
 466 484 466 484 580 484 c 0,12,13
529 737 m 1,24,-1
 501 596 l 1,25,-1
 394 596 l 1,26,-1
 403 639 l 1,27,-1
 456 639 l 1,28,-1
 511 915 l 1,29,-1
 458 915 l 1,30,-1
 466 959 l 1,31,-1
 598 959 l 2,32,33
 751 959 751 959 751 875 c 0,34,35
 751 800 751 800 650 750 c 1,36,-1
 685 639 l 1,37,-1
 747 639 l 1,38,-1
 738 596 l 1,39,-1
 641 596 l 1,40,-1
 591 737 l 1,41,-1
 529 737 l 1,24,-1
538 782 m 1,42,-1
 574 782 l 2,43,44
 697 782 697 782 697 866 c 0,45,46
 697 915 697 915 607 915 c 2,47,-1
 564 915 l 1,48,-1
 538 782 l 1,42,-1
EndSplineSet
EndChar

StartChar: copyright
Encoding: 169 169 34
Width: 1244
Flags: W
LayerCount: 2
Fore
SplineSet
725 -27 m 0,0,1
 495 -27 495 -27 330.5 137 c 128,-1,2
 166 301 166 301 166 533 c 256,3,4
 166 765 166 765 330.5 929 c 128,-1,5
 495 1093 495 1093 725 1093 c 0,6,7
 958 1093 958 1093 1122 929 c 128,-1,8
 1286 765 1286 765 1286 533 c 256,9,10
 1286 301 1286 301 1122 137 c 128,-1,11
 958 -27 958 -27 725 -27 c 0,0,1
725 18 m 0,12,13
 939 18 939 18 1090 169 c 128,-1,14
 1241 320 1241 320 1241 533 c 256,15,16
 1241 746 1241 746 1090 897 c 128,-1,17
 939 1048 939 1048 725 1048 c 0,18,19
 513 1048 513 1048 362 897 c 128,-1,20
 211 746 211 746 211 533 c 256,21,22
 211 320 211 320 362 169 c 128,-1,23
 513 18 513 18 725 18 c 0,12,13
890 246 m 1,24,25
 785 213 785 213 704 213 c 0,26,27
 580 213 580 213 508 279.5 c 128,-1,28
 436 346 436 346 436 462 c 0,29,30
 436 625 436 625 541 734.5 c 128,-1,31
 646 844 646 844 805 844 c 0,32,33
 896 844 896 844 1003 814 c 1,34,-1
 967 675 l 1,35,-1
 915 684 l 1,36,-1
 923 766 l 1,37,38
 854 798 854 798 792 798 c 0,39,40
 688 798 688 798 616 700 c 128,-1,41
 544 602 544 602 544 462 c 0,42,43
 544 271 544 271 722 271 c 0,44,45
 823 271 823 271 902 307 c 1,46,-1
 890 246 l 1,24,25
EndSplineSet
EndChar

StartChar: trademark
Encoding: 8482 8482 35
Width: 1333
Flags: W
LayerCount: 2
Fore
SplineSet
440 1021 m 1,0,-1
 307 1021 l 1,1,-1
 288 923 l 1,2,-1
 225 923 l 1,3,-1
 254 1066 l 1,4,-1
 751 1066 l 1,5,-1
 723 923 l 1,6,-1
 661 923 l 1,7,-1
 679 1021 l 1,8,-1
 546 1021 l 1,9,-1
 456 569 l 1,10,-1
 554 569 l 1,11,-1
 545 524 l 1,12,-1
 243 524 l 1,13,-1
 253 569 l 1,14,-1
 350 569 l 1,15,-1
 440 1021 l 1,0,-1
1011 569 m 1,16,-1
 942 956 l 1,17,-1
 857 524 l 1,18,-1
 688 524 l 1,19,-1
 697 569 l 1,20,-1
 794 569 l 1,21,-1
 884 1021 l 1,22,-1
 787 1021 l 1,23,-1
 796 1066 l 1,24,-1
 1036 1066 l 1,25,-1
 1092 747 l 1,26,-1
 1265 1066 l 1,27,-1
 1481 1066 l 1,28,-1
 1473 1021 l 1,29,-1
 1375 1021 l 1,30,-1
 1285 569 l 1,31,-1
 1383 569 l 1,32,-1
 1373 524 l 1,33,-1
 1178 524 l 1,34,-1
 1270 985 l 1,35,-1
 1041 569 l 1,36,-1
 1011 569 l 1,16,-1
EndSplineSet
EndChar

StartChar: logicalnot
Encoding: 172 172 39
Width: 932
Flags: W
LayerCount: 2
Fore
SplineSet
177 510 m 1,0,-1
 193 590 l 1,1,-1
 975 590 l 1,2,-1
 906 248 l 1,3,-1
 814 248 l 1,4,-1
 866 510 l 1,5,-1
 177 510 l 1,0,-1
EndSplineSet
EndChar

StartChar: florin
Encoding: 402 402 40
Width: 679
Flags: W
LayerCount: 2
Fore
SplineSet
158 -231 m 1,0,-1
 210 -18 l 1,1,-1
 286 364 l 1,2,-1
 108 364 l 1,3,-1
 117 409 l 1,4,-1
 294 409 l 1,5,-1
 298 427 l 2,6,7
 330 586 330 586 463 692.5 c 128,-1,8
 596 799 596 799 761 799 c 0,9,10
 818 799 818 799 860 784 c 1,11,-1
 764 678 l 1,12,13
 712 729 712 729 643 729 c 0,14,15
 500 729 500 729 457 512 c 2,16,-1
 436 409 l 1,17,-1
 623 409 l 1,18,-1
 614 364 l 1,19,-1
 427 364 l 1,20,-1
 313 -213 l 1,21,-1
 158 -231 l 1,0,-1
EndSplineSet
EndChar

StartChar: ellipsis
Encoding: 8230 8230 41
Width: 1827
Flags: W
LayerCount: 2
Fore
SplineSet
758 113 m 0,0,1
 758 144 758 144 809.5 245.5 c 128,-1,2
 861 347 861 347 876 355 c 0,3,4
 907 369 907 369 964.5 307.5 c 128,-1,5
 1022 246 1022 246 1026 211 c 1,6,7
 1026 166 1026 166 977.5 79.5 c 128,-1,8
 929 -7 929 -7 908 -7 c 0,9,10
 899 -7 899 -7 851 26.5 c 128,-1,11
 803 60 803 60 778 79 c 0,12,13
 758 96 758 96 758 113 c 0,0,1
1308 113 m 0,14,15
 1308 144 1308 144 1359 245.5 c 128,-1,16
 1410 347 1410 347 1426 355 c 0,17,18
 1457 369 1457 369 1514.5 307.5 c 128,-1,19
 1572 246 1572 246 1575 211 c 0,20,21
 1575 166 1575 166 1527 79.5 c 128,-1,22
 1479 -7 1479 -7 1458 -7 c 0,23,24
 1449 -7 1449 -7 1401 26.5 c 128,-1,25
 1353 60 1353 60 1328 79 c 0,26,27
 1308 96 1308 96 1308 113 c 0,14,15
211 113 m 0,28,29
 211 144 211 144 262 245.5 c 128,-1,30
 313 347 313 347 329 355 c 0,31,32
 360 369 360 369 417.5 307.5 c 128,-1,33
 475 246 475 246 478 211 c 0,34,35
 478 166 478 166 430 79.5 c 128,-1,36
 382 -7 382 -7 361 -7 c 0,37,38
 352 -7 352 -7 304 26.5 c 128,-1,39
 256 60 256 60 231 79 c 0,40,41
 211 96 211 96 211 113 c 0,28,29
EndSplineSet
EndChar

StartChar: endash
Encoding: 8211 8211 42
Width: 434
Flags: W
LayerCount: 2
Fore
SplineSet
434 154 m 1,0,-1
 0 154 l 1,1,-1
 0 234 l 1,2,-1
 434 234 l 1,3,-1
 434 154 l 1,0,-1
EndSplineSet
EndChar

StartChar: emdash
Encoding: 8212 8212 43
Width: 1862
Flags: W
LayerCount: 2
Fore
SplineSet
1866 572 m 1,0,-1
 -4 572 l 1,1,-1
 -4 732 l 1,2,-1
 1866 732 l 1,3,-1
 1866 572 l 1,0,-1
EndSplineSet
EndChar

StartChar: quotedblleft
Encoding: 8220 8220 44
Width: 697
Flags: W
LayerCount: 2
Fore
SplineSet
392 961 m 0,0,1
 393 1037 393 1037 444.5 1111.5 c 128,-1,2
 496 1186 496 1186 559 1216 c 1,3,-1
 595 1148 l 1,4,5
 576 1138 576 1138 550.5 1110 c 128,-1,6
 525 1082 525 1082 513 1037 c 1,7,8
 590 1005 590 1005 587 940 c 0,9,10
 587 921 587 921 579.5 904 c 128,-1,11
 572 887 572 887 559.5 874.5 c 128,-1,12
 547 862 547 862 529.5 854.5 c 128,-1,13
 512 847 512 847 493 847 c 0,14,15
 469 847 469 847 450 857 c 128,-1,16
 431 867 431 867 418.5 883 c 128,-1,17
 406 899 406 899 399 919.5 c 128,-1,18
 392 940 392 940 392 961 c 0,0,1
136 961 m 0,19,20
 137 1037 137 1037 188.5 1111.5 c 128,-1,21
 240 1186 240 1186 304 1216 c 1,22,-1
 340 1148 l 1,23,24
 322 1138 322 1138 296 1110 c 128,-1,25
 270 1082 270 1082 259 1037 c 1,26,27
 336 1005 336 1005 332 940 c 0,28,29
 332 921 332 921 324.5 904 c 128,-1,30
 317 887 317 887 304 874.5 c 128,-1,31
 291 862 291 862 274 854.5 c 128,-1,32
 257 847 257 847 238 847 c 0,33,34
 214 847 214 847 195.5 857 c 128,-1,35
 177 867 177 867 163.5 883 c 128,-1,36
 150 899 150 899 143 919.5 c 128,-1,37
 136 940 136 940 136 961 c 0,19,20
EndSplineSet
EndChar

StartChar: quotedblright
Encoding: 8221 8221 45
Width: 702
Flags: W
LayerCount: 2
Fore
SplineSet
339 1102 m 0,0,1
 338 1026 338 1026 286.5 951.5 c 128,-1,2
 235 877 235 877 172 847 c 1,3,-1
 136 915 l 1,4,5
 155 925 155 925 180.5 953 c 128,-1,6
 206 981 206 981 218 1026 c 1,7,8
 141 1058 141 1058 144 1123 c 0,9,10
 144 1142 144 1142 151.5 1158.5 c 128,-1,11
 159 1175 159 1175 171.5 1188 c 128,-1,12
 184 1201 184 1201 201 1208.5 c 128,-1,13
 218 1216 218 1216 238 1216 c 0,14,15
 262 1216 262 1216 281 1206 c 128,-1,16
 300 1196 300 1196 312.5 1180 c 128,-1,17
 325 1164 325 1164 332 1143.5 c 128,-1,18
 339 1123 339 1123 339 1102 c 0,0,1
595 1102 m 0,19,20
 594 1026 594 1026 542.5 951.5 c 128,-1,21
 491 877 491 877 427 847 c 1,22,-1
 391 915 l 1,23,24
 409 925 409 925 435 953 c 128,-1,25
 461 981 461 981 472 1026 c 1,26,27
 395 1058 395 1058 399 1123 c 0,28,29
 399 1142 399 1142 406.5 1158.5 c 128,-1,30
 414 1175 414 1175 427 1188 c 128,-1,31
 440 1201 440 1201 457 1208.5 c 128,-1,32
 474 1216 474 1216 493 1216 c 0,33,34
 517 1216 517 1216 535.5 1206 c 128,-1,35
 554 1196 554 1196 567.5 1180 c 128,-1,36
 581 1164 581 1164 588 1143.5 c 128,-1,37
 595 1123 595 1123 595 1102 c 0,19,20
EndSplineSet
EndChar

StartChar: divide
Encoding: 247 247 46
Width: 1036
Flags: W
LayerCount: 2
Fore
SplineSet
180 421 m 2,0,1
 144 421 144 421 123 443 c 0,2,3
 81 484 81 484 122 524 c 0,4,5
 143 545 143 545 180 545 c 2,6,-1
 852 543 l 2,7,8
 889 543 889 543 911 521 c 0,9,10
 951 481 951 481 912 441 c 0,11,12
 891 420 891 420 852 420 c 2,13,-1
 180 421 l 2,0,1
409 763 m 0,14,15
 409 785 409 785 417.5 804.5 c 128,-1,16
 426 824 426 824 440 838.5 c 128,-1,17
 454 853 454 853 473.5 861.5 c 128,-1,18
 493 870 493 870 515 870 c 256,19,20
 537 870 537 870 556.5 861.5 c 128,-1,21
 576 853 576 853 590.5 838.5 c 128,-1,22
 605 824 605 824 613.5 804.5 c 128,-1,23
 622 785 622 785 622 763 c 256,24,25
 622 741 622 741 613.5 721.5 c 128,-1,26
 605 702 605 702 590.5 688 c 128,-1,27
 576 674 576 674 556.5 665.5 c 128,-1,28
 537 657 537 657 515 657 c 0,29,30
 470 657 470 657 439.5 687.5 c 128,-1,31
 409 718 409 718 409 763 c 0,14,15
409 193 m 0,32,33
 409 215 409 215 417.5 234.5 c 128,-1,34
 426 254 426 254 440 268.5 c 128,-1,35
 454 283 454 283 473.5 291.5 c 128,-1,36
 493 300 493 300 515 300 c 256,37,38
 537 300 537 300 556.5 291.5 c 128,-1,39
 576 283 576 283 590.5 268.5 c 128,-1,40
 605 254 605 254 613.5 234.5 c 128,-1,41
 622 215 622 215 622 193 c 256,42,43
 622 171 622 171 613.5 151.5 c 128,-1,44
 605 132 605 132 590.5 118 c 128,-1,45
 576 104 576 104 556.5 95.5 c 128,-1,46
 537 87 537 87 515 87 c 0,47,48
 470 87 470 87 439.5 117.5 c 128,-1,49
 409 148 409 148 409 193 c 0,32,33
EndSplineSet
EndChar

StartChar: lozenge
Encoding: 9674 9674 47
Width: 1118
Flags: W
LayerCount: 2
Fore
SplineSet
1003 699 m 1,0,-1
 560 197 l 1,1,-1
 117 699 l 1,2,-1
 560 1202 l 1,3,-1
 1003 699 l 1,0,-1
848 699 m 1,4,-1
 560 1036 l 1,5,-1
 271 699 l 1,6,-1
 560 364 l 1,7,-1
 848 699 l 1,4,-1
EndSplineSet
EndChar

StartChar: fraction
Encoding: 8260 8260 48
Width: 742
Flags: W
LayerCount: 2
Fore
SplineSet
740 1101 m 1,0,-1
 101 -82 l 1,1,-1
 -9 -82 l 1,2,-1
 629 1101 l 1,3,-1
 740 1101 l 1,0,-1
EndSplineSet
EndChar

StartChar: guilsinglleft
Encoding: 8249 8249 49
Width: 1117
Flags: W
LayerCount: 2
Fore
SplineSet
955 58 m 1,0,-1
 150 444 l 1,1,-1
 150 534 l 1,2,-1
 955 918 l 1,3,-1
 955 784 l 1,4,-1
 331 489 l 1,5,-1
 955 192 l 1,6,-1
 955 58 l 1,0,-1
EndSplineSet
EndChar

StartChar: daggerdbl
Encoding: 8225 8225 52
Width: 932
Flags: W
LayerCount: 2
Fore
SplineSet
349 -231 m 1,0,-1
 481 185 l 1,1,-1
 161 154 l 1,2,-1
 211 261 l 1,3,-1
 490 229 l 1,4,-1
 567 616 l 1,5,-1
 247 586 l 1,6,-1
 297 693 l 1,7,-1
 575 661 l 1,8,-1
 608 1066 l 1,9,-1
 758 1093 l 1,10,-1
 620 661 l 1,11,-1
 940 693 l 1,12,-1
 889 586 l 1,13,-1
 611 616 l 1,14,-1
 535 229 l 1,15,-1
 855 261 l 1,16,-1
 804 154 l 1,17,-1
 525 185 l 1,18,-1
 499 -213 l 1,19,-1
 349 -231 l 1,0,-1
EndSplineSet
EndChar

StartChar: middot.001
Encoding: 8729 8729 53
Width: 620
Flags: W
LayerCount: 2
Fore
SplineSet
429 516 m 1,0,-1
 190 516 l 1,1,-1
 190 789 l 1,2,-1
 429 789 l 1,3,-1
 429 516 l 1,0,-1
EndSplineSet
EndChar

StartChar: quotesinglbase
Encoding: 8218 8218 54
Width: 418
Flags: W
LayerCount: 2
Fore
SplineSet
103 128 m 1,0,-1
 247 231 l 1,1,-1
 353 90 l 1,2,3
 345 -56 345 -56 262.5 -134.5 c 128,-1,4
 180 -213 180 -213 36 -213 c 1,5,-1
 76 -168 l 1,6,7
 189 -158 189 -158 211 -18 c 1,8,-1
 103 128 l 1,0,-1
EndSplineSet
EndChar

StartChar: quotedblbase
Encoding: 8222 8222 55
Width: 684
Flags: W
LayerCount: 2
Fore
SplineSet
91 92 m 1,0,-1
 204 178 l 1,1,-1
 292 64 l 1,2,3
 270 -213 270 -213 31 -213 c 1,4,-1
 60 -168 l 1,5,6
 166 -148 166 -148 179 -16 c 1,7,-1
 91 92 l 1,0,-1
401 92 m 1,8,-1
 516 178 l 1,9,-1
 602 64 l 1,10,11
 581 -213 581 -213 341 -213 c 1,12,-1
 372 -168 l 1,13,14
 476 -148 476 -148 490 -16 c 1,15,-1
 401 92 l 1,8,-1
EndSplineSet
EndChar

StartChar: perthousand
Encoding: 8240 8240 56
Width: 1571
Flags: W
LayerCount: 2
Fore
SplineSet
385 533 m 0,0,1
 304 533 304 533 254.5 584.5 c 128,-1,2
 205 636 205 636 205 722 c 0,3,4
 205 865 205 865 286.5 965.5 c 128,-1,5
 368 1066 368 1066 483 1066 c 0,6,7
 567 1066 567 1066 617.5 1014.5 c 128,-1,8
 668 963 668 963 668 877 c 0,9,10
 668 733 668 733 585.5 633 c 128,-1,11
 503 533 503 533 385 533 c 0,0,1
311 715 m 0,12,13
 311 578 311 578 398 578 c 0,14,15
 463 578 463 578 517 671.5 c 128,-1,16
 571 765 571 765 571 881 c 0,17,18
 571 1022 571 1022 483 1022 c 0,19,20
 416 1022 416 1022 363.5 928 c 128,-1,21
 311 834 311 834 311 715 c 0,12,13
850 0 m 0,22,23
 769 0 769 0 719.5 51.5 c 128,-1,24
 670 103 670 103 670 189 c 0,25,26
 670 331 670 331 751 432 c 128,-1,27
 832 533 832 533 947 533 c 0,28,29
 1031 533 1031 533 1081.5 481.5 c 128,-1,30
 1132 430 1132 430 1132 344 c 0,31,32
 1132 200 1132 200 1049.5 100 c 128,-1,33
 967 0 967 0 850 0 c 0,22,23
776 182 m 0,34,35
 776 44 776 44 862 44 c 0,36,37
 929 44 929 44 982 138 c 128,-1,38
 1035 232 1035 232 1035 348 c 0,39,40
 1035 490 1035 490 948 490 c 0,41,42
 880 490 880 490 828 395.5 c 128,-1,43
 776 301 776 301 776 182 c 0,34,35
131 -27 m 1,44,-1
 1111 1093 l 1,45,-1
 1206 1093 l 1,46,-1
 225 -27 l 1,47,-1
 131 -27 l 1,44,-1
1376 0 m 0,48,49
 1294 0 1294 0 1244.5 51.5 c 128,-1,50
 1195 103 1195 103 1195 189 c 0,51,52
 1195 331 1195 331 1276.5 432 c 128,-1,53
 1358 533 1358 533 1473 533 c 0,54,55
 1557 533 1557 533 1607.5 481.5 c 128,-1,56
 1658 430 1658 430 1658 344 c 0,57,58
 1658 200 1658 200 1575.5 100 c 128,-1,59
 1493 0 1493 0 1376 0 c 0,48,49
1301 183 m 0,60,61
 1301 44 1301 44 1389 44 c 0,62,63
 1453 44 1453 44 1507 138 c 128,-1,64
 1561 232 1561 232 1561 347 c 0,65,66
 1561 490 1561 490 1473 490 c 0,67,68
 1406 490 1406 490 1353.5 395.5 c 128,-1,69
 1301 301 1301 301 1301 183 c 0,60,61
EndSplineSet
EndChar

StartChar: multiply
Encoding: 215 215 60
Width: 945
Flags: W
LayerCount: 2
Fore
SplineSet
591 469 m 1,0,-1
 829 229 l 2,1,2
 855 203 855 203 855 173 c 0,3,4
 855 116 855 116 797 116 c 0,5,6
 767 116 767 116 741 142 c 2,7,-1
 502 383 l 1,8,-1
 263 142 l 2,9,10
 237 116 237 116 207 116 c 0,11,12
 149 116 149 116 149 173 c 0,13,14
 149 203 149 203 175 229 c 2,15,-1
 414 469 l 1,16,-1
 173 708 l 2,17,18
 146 735 146 735 146 765 c 0,19,20
 146 821 146 821 203 821 c 0,21,22
 234 821 234 821 260 795 c 2,23,-1
 503 555 l 1,24,-1
 744 795 l 2,25,26
 770 821 770 821 801 821 c 0,27,28
 858 821 858 821 858 765 c 0,29,30
 858 735 858 735 831 708 c 2,31,-1
 591 469 l 1,0,-1
EndSplineSet
EndChar

StartChar: macron
Encoding: 175 175 61
Width: 1118
Flags: W
LayerCount: 2
Fore
SplineSet
1134 1259 m 1,0,-1
 -16 1259 l 1,1,-1
 -16 1389 l 1,2,-1
 1134 1389 l 1,3,-1
 1134 1259 l 1,0,-1
EndSplineSet
EndChar

StartChar: periodcentered
Encoding: 183 183 62
Width: 724
Flags: W
LayerCount: 2
Fore
SplineSet
482 832 m 1,0,-1
 243 832 l 1,1,-1
 243 1117 l 1,2,-1
 482 1117 l 1,3,-1
 482 832 l 1,0,-1
EndSplineSet
EndChar

StartChar: H22073
Encoding: 9633 9633 63
Width: 1237
Flags: W
LayerCount: 2
Fore
SplineSet
146 944 m 1,0,-1
 1090 944 l 1,1,-1
 1090 0 l 1,2,-1
 146 0 l 1,3,-1
 146 944 l 1,0,-1
222 868 m 1,4,-1
 222 76 l 1,5,-1
 1014 76 l 1,6,-1
 1014 868 l 1,7,-1
 222 868 l 1,4,-1
EndSplineSet
EndChar

StartChar: H18543
Encoding: 9642 9642 64
Width: 1089
Flags: W
LayerCount: 2
Fore
SplineSet
886 894 m 1,0,-1
 886 200 l 1,1,-1
 192 200 l 1,2,-1
 192 894 l 1,3,-1
 886 894 l 1,0,-1
EndSplineSet
EndChar

StartChar: H18551
Encoding: 9643 9643 65
Width: 1089
Flags: W
LayerCount: 2
Fore
SplineSet
888 930 m 1,0,-1
 888 235 l 1,1,-1
 193 235 l 1,2,-1
 193 930 l 1,3,-1
 888 930 l 1,0,-1
774 816 m 1,4,-1
 307 816 l 1,5,-1
 307 349 l 1,6,-1
 774 349 l 1,7,-1
 774 816 l 1,4,-1
EndSplineSet
EndChar

StartChar: H18533
Encoding: 9679 9679 66
Width: 1339
Flags: W
LayerCount: 2
Fore
SplineSet
204 775 m 0,0,1
 204 976 204 976 345 1117 c 128,-1,2
 486 1258 486 1258 685 1258 c 0,3,4
 885 1258 885 1258 1026 1117 c 128,-1,5
 1167 976 1167 976 1167 775 c 0,6,7
 1167 577 1167 577 1026 436 c 128,-1,8
 885 295 885 295 685 295 c 0,9,10
 486 295 486 295 345 436 c 128,-1,11
 204 577 204 577 204 775 c 0,0,1
EndSplineSet
EndChar

StartChar: openbullet
Encoding: 9702 9702 67
Width: 1089
Flags: W
LayerCount: 2
Fore
SplineSet
544 1392 m 0,0,1
 700 1392 700 1392 810.5 1281.5 c 128,-1,2
 921 1171 921 1171 921 1015 c 256,3,4
 921 859 921 859 810.5 749 c 128,-1,5
 700 639 700 639 544 639 c 256,6,7
 388 639 388 639 278 749 c 128,-1,8
 168 859 168 859 168 1015 c 256,9,10
 168 1171 168 1171 277.5 1281.5 c 128,-1,11
 387 1392 387 1392 544 1392 c 0,0,1
544 1278 m 0,12,13
 435 1278 435 1278 358.5 1200.5 c 128,-1,14
 282 1123 282 1123 282 1015 c 0,15,16
 282 906 282 906 359 829.5 c 128,-1,17
 436 753 436 753 544 753 c 256,18,19
 652 753 652 753 729.5 829.5 c 128,-1,20
 807 906 807 906 807 1015 c 0,21,22
 807 1123 807 1123 730.5 1200.5 c 128,-1,23
 654 1278 654 1278 544 1278 c 0,12,13
EndSplineSet
EndChar

StartChar: uniFFFC
Encoding: 65532 65532 68
Width: 2048
Flags: W
LayerCount: 2
Fore
SplineSet
2048 1150 m 1,0,-1
 1948 1150 l 1,1,-1
 1948 1373 l 1,2,-1
 1725 1373 l 1,3,-1
 1725 1473 l 1,4,-1
 2048 1473 l 1,5,-1
 2048 1150 l 1,0,-1
1473 1373 m 1,6,-1
 1150 1373 l 1,7,-1
 1150 1473 l 1,8,-1
 1473 1473 l 1,9,-1
 1473 1373 l 1,6,-1
2048 575 m 1,10,-1
 1948 575 l 1,11,-1
 1948 898 l 1,12,-1
 2048 898 l 1,13,-1
 2048 575 l 1,10,-1
1782 611 m 2,14,15
 1782 370 1782 370 1571 370 c 0,16,17
 1485 370 1485 370 1433 415 c 1,18,-1
 1506 494 l 1,19,20
 1531 468 1531 468 1571 468 c 0,21,22
 1666 468 1666 468 1666 606 c 2,23,-1
 1666 1090 l 1,24,-1
 1782 1090 l 1,25,-1
 1782 611 l 2,14,15
898 1373 m 1,26,-1
 575 1373 l 1,27,-1
 575 1473 l 1,28,-1
 898 1473 l 1,29,-1
 898 1373 l 1,26,-1
2048 0 m 1,30,-1
 1725 0 l 1,31,-1
 1725 100 l 1,32,-1
 1948 100 l 1,33,-1
 1948 323 l 1,34,-1
 2048 323 l 1,35,-1
 2048 0 l 1,30,-1
1423 591 m 0,36,37
 1423 382 1423 382 1149 382 c 2,38,-1
 909 382 l 1,39,-1
 909 1090 l 1,40,-1
 1144 1090 l 2,41,42
 1393 1090 1393 1090 1393 904 c 0,43,44
 1393 813 1393 813 1304 759 c 1,45,46
 1423 713 1423 713 1423 591 c 0,36,37
323 1373 m 1,47,-1
 100 1373 l 1,48,-1
 100 1150 l 1,49,-1
 0 1150 l 1,50,-1
 0 1473 l 1,51,-1
 323 1473 l 1,52,-1
 323 1373 l 1,47,-1
1473 0 m 1,53,-1
 1150 0 l 1,54,-1
 1150 100 l 1,55,-1
 1473 100 l 1,56,-1
 1473 0 l 1,53,-1
854 735 m 0,57,58
 854 562 854 562 772 466 c 128,-1,59
 690 370 690 370 537 370 c 256,60,61
 384 370 384 370 303.5 466 c 128,-1,62
 223 562 223 562 223 735 c 0,63,64
 223 910 223 910 303.5 1006 c 128,-1,65
 384 1102 384 1102 537 1102 c 256,66,67
 690 1102 690 1102 772 1006 c 128,-1,68
 854 910 854 910 854 735 c 0,57,58
100 575 m 1,69,-1
 0 575 l 1,70,-1
 0 898 l 1,71,-1
 100 898 l 1,72,-1
 100 575 l 1,69,-1
898 0 m 1,73,-1
 575 0 l 1,74,-1
 575 100 l 1,75,-1
 898 100 l 1,76,-1
 898 0 l 1,73,-1
323 0 m 1,77,-1
 0 0 l 1,78,-1
 0 323 l 1,79,-1
 100 323 l 1,80,-1
 100 100 l 1,81,-1
 323 100 l 1,82,-1
 323 0 l 1,77,-1
1277 893 m 0,83,84
 1277 992 1277 992 1114 992 c 2,85,-1
 1025 992 l 1,86,-1
 1025 798 l 1,87,-1
 1126 798 l 2,88,89
 1277 798 1277 798 1277 893 c 0,83,84
1307 591 m 0,90,91
 1307 700 1307 700 1136 700 c 2,92,-1
 1025 700 l 1,93,-1
 1025 480 l 1,94,-1
 1149 480 l 2,95,96
 1307 480 1307 480 1307 591 c 0,90,91
738 735 m 0,97,98
 738 1004 738 1004 537 1004 c 0,99,100
 339 1004 339 1004 339 735 c 0,101,102
 339 468 339 468 537 468 c 0,103,104
 738 468 738 468 738 735 c 0,97,98
EndSplineSet
EndChar

StartChar: zerowidthnonjoiner
Encoding: 8204 8204 88
Width: 0
GlyphClass: 2
Flags: W
LayerCount: 2
Fore
SplineSet
36 1289 m 1,0,-1
 36 -275 l 1,1,-1
 -36 -275 l 1,2,-1
 -36 1289 l 1,3,-1
 36 1289 l 1,0,-1
EndSplineSet
EndChar

StartChar: zerowidthjoiner
Encoding: 8205 8205 89
Width: 0
GlyphClass: 2
Flags: W
LayerCount: 2
Fore
SplineSet
36 -275 m 1,0,-1
 -36 -275 l 1,1,-1
 -36 1114 l 1,2,-1
 -170 978 l 1,3,-1
 -219 1027 l 1,4,-1
 -48 1196 l 1,5,-1
 -219 1364 l 1,6,-1
 -170 1413 l 1,7,-1
 0 1242 l 1,8,-1
 170 1413 l 1,9,-1
 219 1364 l 1,10,-1
 48 1196 l 1,11,-1
 219 1027 l 1,12,-1
 170 978 l 1,13,-1
 36 1114 l 1,14,-1
 36 -275 l 1,0,-1
EndSplineSet
EndChar

StartChar: lefttorightmark
Encoding: 8206 8206 90
Width: 0
GlyphClass: 2
Flags: W
LayerCount: 2
Fore
SplineSet
430 1198 m 1,0,-1
 213 984 l 1,1,-1
 164 1033 l 1,2,-1
 301 1163 l 1,3,-1
 35 1163 l 1,4,-1
 35 -275 l 1,5,-1
 -36 -275 l 1,6,-1
 -36 1234 l 1,7,-1
 301 1234 l 1,8,-1
 164 1364 l 1,9,-1
 213 1413 l 1,10,-1
 430 1198 l 1,0,-1
EndSplineSet
EndChar

StartChar: righttoleftmark
Encoding: 8207 8207 91
Width: 0
GlyphClass: 2
Flags: W
LayerCount: 2
Fore
SplineSet
35 -275 m 1,0,-1
 -36 -275 l 1,1,-1
 -36 1163 l 1,2,-1
 -302 1163 l 1,3,-1
 -165 1033 l 1,4,-1
 -214 984 l 1,5,-1
 -431 1198 l 1,6,-1
 -214 1413 l 1,7,-1
 -165 1364 l 1,8,-1
 -302 1234 l 1,9,-1
 35 1234 l 1,10,-1
 35 -275 l 1,0,-1
EndSplineSet
EndChar

StartChar: afii57388.001
Encoding: 1644 1644 92
Width: 353
GlyphClass: 2
Flags: W
LayerCount: 2
Fore
SplineSet
210 654 m 0,0,1
 200 627 200 627 185 603 c 0,2,3
 180 597 180 597 173.5 593.5 c 128,-1,4
 167 590 167 590 162 590 c 128,-1,5
 157 590 157 590 154.5 593 c 128,-1,6
 152 596 152 596 155 603 c 0,7,8
 187 660 187 660 202.5 713.5 c 128,-1,9
 218 767 218 767 218 800 c 1,10,11
 194 806 194 806 179 816 c 128,-1,12
 164 826 164 826 155 837.5 c 128,-1,13
 146 849 146 849 143 859 c 128,-1,14
 140 869 140 869 140 874 c 0,15,16
 140 890 140 890 145.5 907 c 128,-1,17
 151 924 151 924 160.5 937.5 c 128,-1,18
 170 951 170 951 183.5 959.5 c 128,-1,19
 197 968 197 968 213 968 c 0,20,21
 272 968 272 968 272 874 c 0,22,23
 272 859 272 859 268 835 c 128,-1,24
 264 811 264 811 256 781.5 c 128,-1,25
 248 752 248 752 236.5 719.5 c 128,-1,26
 225 687 225 687 210 654 c 0,0,1
EndSplineSet
EndChar

StartChar: afii57409
Encoding: 1569 1569 93
Width: 850
GlyphClass: 2
Flags: W
AnchorPoint: "Anchor-3" 465 -345 basechar 0
AnchorPoint: "Anchor-2" 465 720 basechar 0
LayerCount: 2
Fore
SplineSet
268 -12 m 2,0,1
 250 -17 250 -17 236 -17 c 0,2,3
 203 -17 203 -17 184 -2 c 128,-1,4
 165 13 165 13 165 39 c 0,5,6
 165 90 165 90 232 117 c 2,7,-1
 314 149 l 1,8,9
 253 219 253 219 253 294 c 0,10,11
 253 343 253 343 272 385.5 c 128,-1,12
 291 428 291 428 323.5 459 c 128,-1,13
 356 490 356 490 399.5 507.5 c 128,-1,14
 443 525 443 525 493 525 c 0,15,16
 522 525 522 525 551 517 c 128,-1,17
 580 509 580 509 603 495 c 128,-1,18
 626 481 626 481 640.5 462.5 c 128,-1,19
 655 444 655 444 655 423 c 0,20,21
 655 373 655 373 607 373 c 0,22,23
 599 373 599 373 581 375.5 c 128,-1,24
 563 378 563 378 544 380.5 c 128,-1,25
 525 383 525 383 508.5 385.5 c 128,-1,26
 492 388 492 388 486 388 c 0,27,28
 468 388 468 388 452 382.5 c 128,-1,29
 436 377 436 377 423 367 c 128,-1,30
 410 357 410 357 402.5 343 c 128,-1,31
 395 329 395 329 395 312 c 0,32,33
 395 225 395 225 537 225 c 0,34,35
 548 225 548 225 566.5 231.5 c 128,-1,36
 585 238 585 238 609.5 246.5 c 128,-1,37
 634 255 634 255 665.5 261.5 c 128,-1,38
 697 268 697 268 734 268 c 0,39,40
 808 268 808 268 808 203 c 0,41,42
 808 141 808 141 724 117 c 2,43,-1
 268 -12 l 2,0,1
EndSplineSet
EndChar

StartChar: afii57440
Encoding: 1600 1600 94
Width: 548
GlyphClass: 2
Flags: W
LayerCount: 2
Fore
SplineSet
548 0 m 1,0,-1
 -70 0 l 1,1,-1
 -70 233 l 1,2,-1
 548 233 l 1,3,-1
 548 0 l 1,0,-1
EndSplineSet
EndChar

StartChar: afii57453
Encoding: 1613 1613 95
Width: 0
GlyphClass: 4
Flags: W
AnchorPoint: "Anchor-3" 0 0 mark 0
AnchorPoint: "Anchor-1" 0 0 mark 0
LayerCount: 2
Fore
SplineSet
-193 6 m 2,0,1
 -201 4 -201 4 -208 4 c 0,2,3
 -252 4 -252 4 -252 51 c 0,4,5
 -252 86 -252 86 -210 100 c 2,6,-1
 161 218 l 2,7,8
 170 221 170 221 182 221 c 0,9,10
 232 221 232 221 232 173 c 0,11,12
 232 138 232 138 192 126 c 2,13,-1
 -193 6 l 2,0,1
-183 -184 m 2,14,15
 -191 -186 -191 -186 -198 -186 c 0,16,17
 -242 -186 -242 -186 -242 -139 c 0,18,19
 -242 -104 -242 -104 -201 -90 c 2,20,-1
 170 28 l 2,21,22
 179 31 179 31 191 31 c 0,23,24
 242 31 242 31 242 -17 c 0,25,26
 242 -50 242 -50 201 -64 c 2,27,-1
 -183 -184 l 2,14,15
EndSplineSet
EndChar

StartChar: afii57381
Encoding: 1642 1642 96
Width: 1040
GlyphClass: 2
Flags: W
LayerCount: 2
Fore
SplineSet
354 1102 m 256,0,1
 354 1049 354 1049 317 1012 c 256,2,3
 280 975 280 975 227 975 c 256,4,5
 174 975 174 975 137 1012 c 256,6,7
 100 1049 100 1049 100 1102 c 256,8,9
 100 1155 100 1155 137 1192 c 256,10,11
 174 1229 174 1229 227 1229 c 256,12,13
 280 1229 280 1229 317 1192 c 256,14,15
 354 1155 354 1155 354 1102 c 256,0,1
333 -75 m 2,16,17
 315 -124 315 -124 271 -124 c 0,18,19
 220 -124 220 -124 220 -67 c 0,20,21
 220 -48 220 -48 227 -30 c 2,22,-1
 671 1185 l 2,23,24
 694 1244 694 1244 741 1244 c 0,25,26
 795 1244 795 1244 795 1182 c 0,27,28
 795 1162 795 1162 787 1140 c 2,29,-1
 333 -75 l 2,16,17
945 49 m 256,30,31
 945 -4 945 -4 908 -41 c 256,32,33
 871 -78 871 -78 818 -78 c 256,34,35
 765 -78 765 -78 728 -41 c 256,36,37
 691 -4 691 -4 691 49 c 256,38,39
 691 102 691 102 728 139 c 256,40,41
 765 176 765 176 818 176 c 256,42,43
 871 176 871 176 908 139 c 256,44,45
 945 102 945 102 945 49 c 256,30,31
EndSplineSet
EndChar

StartChar: afii57461
Encoding: 1643 1643 97
Width: 536
GlyphClass: 2
Flags: W
LayerCount: 2
Fore
SplineSet
518 521 m 1,0,-1
 115 -382 l 1,1,-1
 19 -352 l 1,2,-1
 425 551 l 1,3,-1
 518 521 l 1,0,-1
EndSplineSet
EndChar

StartChar: afii63167
Encoding: 1645 1645 98
Width: 1118
GlyphClass: 2
Flags: W
LayerCount: 2
Fore
SplineSet
694 729 m 1,0,-1
 1057 733 l 1,1,-1
 1057 610 l 1,2,-1
 702 612 l 1,3,-1
 971 352 l 1,4,-1
 883 264 l 1,5,-1
 616 539 l 1,6,-1
 623 168 l 1,7,-1
 498 168 l 1,8,-1
 502 539 l 1,9,-1
 236 264 l 1,10,-1
 147 352 l 1,11,-1
 422 614 l 1,12,-1
 63 610 l 1,13,-1
 63 733 l 1,14,-1
 420 729 l 1,15,-1
 170 975 l 1,16,-1
 258 1065 l 1,17,-1
 502 817 l 1,18,-1
 498 1176 l 1,19,-1
 623 1176 l 1,20,-1
 616 813 l 1,21,-1
 860 1065 l 1,22,-1
 948 975 l 1,23,-1
 694 729 l 1,0,-1
EndSplineSet
EndChar

StartChar: afii57459
Encoding: 65543 -1 99
Width: 625
GlyphClass: 2
Flags: W
LayerCount: 2
Fore
SplineSet
587 398 m 0,0,1
 587 0 587 0 92 0 c 2,2,-1
 -70 0 l 1,3,-1
 -70 233 l 1,4,-1
 123 233 l 2,5,6
 441 233 441 233 433 376 c 1,7,8
 415 353 415 353 355 334 c 0,9,10
 301 315 301 315 267 315 c 0,11,12
 155 315 155 315 96 389 c 0,13,14
 52 445 52 445 52 517 c 0,15,16
 52 636 52 636 107 739 c 0,17,18
 179 873 179 873 305 873 c 0,19,20
 456 873 456 873 531 700 c 0,21,22
 587 570 587 570 587 398 c 0,0,1
385 566 m 0,23,24
 385 607 385 607 356 641 c 0,25,26
 327 674 327 674 286 674 c 0,27,28
 254 674 254 674 230 643 c 0,29,30
 206 611 206 611 206 579 c 0,31,32
 206 504 206 504 283 504 c 0,33,34
 385 504 385 504 385 566 c 0,23,24
EndSplineSet
EndChar

StartChar: afii57543
Encoding: 65544 -1 100
Width: 573
Flags: W
LayerCount: 2
Fore
SplineSet
573 0 m 1,0,-1
 535 0 l 2,1,2
 337 0 337 0 287 122 c 1,3,4
 212 0 212 0 41 0 c 2,5,-1
 -70 0 l 1,6,-1
 -70 233 l 1,7,-1
 43 233 l 2,8,9
 188 233 188 233 210 366 c 0,10,11
 225 461 225 461 295 461 c 256,12,13
 365 461 365 461 377 366 c 0,14,15
 393 233 393 233 535 233 c 2,16,-1
 573 233 l 1,17,-1
 573 0 l 1,0,-1
EndSplineSet
EndChar

StartChar: afii57534
Encoding: 1749 1749 101
Width: 784
GlyphClass: 2
Flags: W
LayerCount: 2
Fore
SplineSet
755 294 m 0,0,1
 755 147 755 147 649 59 c 0,2,3
 555 -20 555 -20 427 -20 c 0,4,5
 165 -20 165 -20 165 205 c 0,6,7
 165 277 165 277 206 373 c 0,8,9
 237 446 237 446 272 490 c 1,10,11
 192 531 192 531 192 591 c 0,12,13
 192 637 192 637 224 674 c 0,14,15
 255 711 255 711 303 711 c 0,16,17
 450 711 450 711 599 582 c 0,18,19
 755 447 755 447 755 294 c 0,0,1
542 273 m 0,20,21
 542 358 542 358 400 419 c 1,22,23
 342 343 342 343 342 278 c 0,24,25
 342 200 342 200 431 200 c 0,26,27
 470 200 470 200 502 217 c 0,28,29
 542 238 542 238 542 273 c 0,20,21
EndSplineSet
EndChar

StartChar: afii64240
Encoding: 65546 -1 103
Width: 374
Flags: W
LayerCount: 2
Fore
SplineSet
302 113 m 256,0,1
 302 89 302 89 293 68 c 128,-1,2
 284 47 284 47 268.5 31.5 c 128,-1,3
 253 16 253 16 232 7 c 128,-1,4
 211 -2 211 -2 187 -2 c 0,5,6
 140 -2 140 -2 106 32 c 0,7,8
 73 66 73 66 73 113 c 0,9,10
 73 137 73 137 82 158 c 128,-1,11
 91 179 91 179 106 194.5 c 128,-1,12
 121 210 121 210 142 219 c 128,-1,13
 163 228 163 228 187 228 c 256,14,15
 211 228 211 228 232 219 c 128,-1,16
 253 210 253 210 268.5 194.5 c 128,-1,17
 284 179 284 179 293 158 c 128,-1,18
 302 137 302 137 302 113 c 256,0,1
EndSplineSet
EndChar

StartChar: afii64241
Encoding: 65547 -1 104
Width: 600
Flags: W
LayerCount: 2
Fore
SplineSet
566 119 m 256,0,1
 566 95 566 95 557 74 c 128,-1,2
 548 53 548 53 532.5 37.5 c 128,-1,3
 517 22 517 22 496 13 c 128,-1,4
 475 4 475 4 451 4 c 0,5,6
 404 4 404 4 370 38 c 0,7,8
 337 72 337 72 337 119 c 0,9,10
 337 143 337 143 346 164 c 128,-1,11
 355 185 355 185 370 200.5 c 128,-1,12
 385 216 385 216 406 225 c 128,-1,13
 427 234 427 234 451 234 c 256,14,15
 475 234 475 234 496 225 c 128,-1,16
 517 216 517 216 532.5 200.5 c 128,-1,17
 548 185 548 185 557 164 c 128,-1,18
 566 143 566 143 566 119 c 256,0,1
287 119 m 256,19,20
 287 95 287 95 278 74 c 128,-1,21
 269 53 269 53 253.5 37.5 c 128,-1,22
 238 22 238 22 217 13 c 128,-1,23
 196 4 196 4 172 4 c 0,24,25
 125 4 125 4 91 38 c 0,26,27
 58 72 58 72 58 119 c 0,28,29
 58 143 58 143 67 164 c 128,-1,30
 76 185 76 185 91 200.5 c 128,-1,31
 106 216 106 216 127 225 c 128,-1,32
 148 234 148 234 172 234 c 256,33,34
 196 234 196 234 217 225 c 128,-1,35
 238 216 238 216 253.5 200.5 c 128,-1,36
 269 185 269 185 278 164 c 128,-1,37
 287 143 287 143 287 119 c 256,19,20
EndSplineSet
EndChar

StartChar: afii63954
Encoding: 65548 -1 105
Width: 611
Flags: W
LayerCount: 2
Fore
SplineSet
557 117 m 0,0,1
 557 93 557 93 548 72 c 128,-1,2
 539 51 539 51 524 35.5 c 128,-1,3
 509 20 509 20 488 11 c 128,-1,4
 467 2 467 2 443 2 c 256,5,6
 419 2 419 2 398 11 c 128,-1,7
 377 20 377 20 361.5 35.5 c 128,-1,8
 346 51 346 51 337 72 c 128,-1,9
 328 93 328 93 328 117 c 256,10,11
 328 141 328 141 337 162 c 128,-1,12
 346 183 346 183 361.5 198.5 c 128,-1,13
 377 214 377 214 398 223 c 128,-1,14
 419 232 419 232 443 232 c 0,15,16
 490 232 490 232 523 198 c 0,17,18
 557 164 557 164 557 117 c 0,0,1
278 117 m 256,19,20
 278 93 278 93 269 72 c 128,-1,21
 260 51 260 51 245 35.5 c 128,-1,22
 230 20 230 20 209 11 c 128,-1,23
 188 2 188 2 164 2 c 256,24,25
 140 2 140 2 119 11 c 128,-1,26
 98 20 98 20 83 35.5 c 128,-1,27
 68 51 68 51 59 72 c 128,-1,28
 50 93 50 93 50 117 c 0,29,30
 50 164 50 164 83 198 c 0,31,32
 117 232 117 232 164 232 c 0,33,34
 188 232 188 232 209 223 c 128,-1,35
 230 214 230 214 245 198.5 c 128,-1,36
 260 183 260 183 269 162 c 128,-1,37
 278 141 278 141 278 117 c 256,19,20
418 360 m 256,38,39
 418 336 418 336 409 315 c 128,-1,40
 400 294 400 294 384.5 278.5 c 128,-1,41
 369 263 369 263 348 254 c 128,-1,42
 327 245 327 245 303 245 c 256,43,44
 279 245 279 245 258 254 c 128,-1,45
 237 263 237 263 222 278.5 c 128,-1,46
 207 294 207 294 198 315 c 128,-1,47
 189 336 189 336 189 360 c 0,48,49
 189 407 189 407 222 441 c 0,50,51
 256 475 256 475 303 475 c 0,52,53
 327 475 327 475 348 466 c 128,-1,54
 369 457 369 457 384.5 441.5 c 128,-1,55
 400 426 400 426 409 405 c 128,-1,56
 418 384 418 384 418 360 c 256,38,39
EndSplineSet
EndChar

StartChar: afii57382
Encoding: 65549 -1 106
Width: 590
Flags: W
LayerCount: 2
Fore
SplineSet
557 -118 m 0,0,1
 557 -165 557 -165 523 -199 c 0,2,3
 490 -233 490 -233 443 -233 c 0,4,5
 419 -233 419 -233 398 -224 c 128,-1,6
 377 -215 377 -215 361.5 -199.5 c 128,-1,7
 346 -184 346 -184 337 -163 c 128,-1,8
 328 -142 328 -142 328 -118 c 256,9,10
 328 -94 328 -94 337 -73 c 128,-1,11
 346 -52 346 -52 361.5 -36.5 c 128,-1,12
 377 -21 377 -21 398 -12 c 128,-1,13
 419 -3 419 -3 443 -3 c 256,14,15
 467 -3 467 -3 488 -12 c 128,-1,16
 509 -21 509 -21 524 -36.5 c 128,-1,17
 539 -52 539 -52 548 -73 c 128,-1,18
 557 -94 557 -94 557 -118 c 0,0,1
278 -118 m 256,19,20
 278 -142 278 -142 269 -163 c 128,-1,21
 260 -184 260 -184 245 -199.5 c 128,-1,22
 230 -215 230 -215 209 -224 c 128,-1,23
 188 -233 188 -233 164 -233 c 0,24,25
 117 -233 117 -233 83 -199 c 0,26,27
 50 -165 50 -165 50 -118 c 0,28,29
 50 -94 50 -94 59 -73 c 128,-1,30
 68 -52 68 -52 83 -36.5 c 128,-1,31
 98 -21 98 -21 119 -12 c 128,-1,32
 140 -3 140 -3 164 -3 c 256,33,34
 188 -3 188 -3 209 -12 c 128,-1,35
 230 -21 230 -21 245 -36.5 c 128,-1,36
 260 -52 260 -52 269 -73 c 128,-1,37
 278 -94 278 -94 278 -118 c 256,19,20
418 -361 m 256,38,39
 418 -385 418 -385 409 -406 c 128,-1,40
 400 -427 400 -427 384.5 -442.5 c 128,-1,41
 369 -458 369 -458 348 -467 c 128,-1,42
 327 -476 327 -476 303 -476 c 0,43,44
 256 -476 256 -476 222 -442 c 0,45,46
 189 -408 189 -408 189 -361 c 0,47,48
 189 -337 189 -337 198 -316 c 128,-1,49
 207 -295 207 -295 222 -279.5 c 128,-1,50
 237 -264 237 -264 258 -255 c 128,-1,51
 279 -246 279 -246 303 -246 c 256,52,53
 327 -246 327 -246 348 -255 c 128,-1,54
 369 -264 369 -264 384.5 -279.5 c 128,-1,55
 400 -295 400 -295 409 -316 c 128,-1,56
 418 -337 418 -337 418 -361 c 256,38,39
EndSplineSet
EndChar

StartChar: afii64242
Encoding: 65550 -1 107
Width: 457
Flags: W
LayerCount: 2
Fore
SplineSet
405 362 m 0,0,1
 405 194 405 194 311 97 c 256,2,3
 217 0 217 0 50 0 c 2,4,-1
 -70 0 l 1,5,-1
 -70 233 l 1,6,-1
 63 233 l 2,7,8
 212 233 212 233 212 337 c 0,9,10
 212 366 212 366 197 423 c 0,11,12
 190 452 190 452 186.5 474 c 128,-1,13
 183 496 183 496 183 511 c 0,14,15
 183 553 183 553 209 582 c 128,-1,16
 235 611 235 611 277 611 c 0,17,18
 405 611 405 611 405 362 c 0,0,1
EndSplineSet
EndChar

StartChar: afii57373
Encoding: 65551 -1 112
Width: 586
Flags: W
LayerCount: 2
Fore
SplineSet
160 1109 m 2,0,1
 132 1101 132 1101 121 1101 c 0,2,3
 76 1101 76 1101 76 1139 c 0,4,5
 76 1178 76 1178 125 1197 c 2,6,-1
 192 1223 l 1,7,8
 138 1272 138 1272 138 1339 c 0,9,10
 138 1415 138 1415 193 1466 c 0,11,12
 248 1518 248 1518 324 1518 c 0,13,14
 365 1518 365 1518 403 1500 c 0,15,16
 450 1477 450 1477 450 1442 c 0,17,18
 450 1406 450 1406 416 1406 c 0,19,20
 400 1406 400 1406 367 1412 c 0,21,22
 335 1418 335 1418 319 1418 c 0,23,24
 243 1418 243 1418 243 1353 c 0,25,26
 243 1280 243 1280 357 1280 c 0,27,28
 368 1280 368 1280 442 1300 c 0,29,30
 464 1305 464 1305 475 1305 c 0,31,32
 526 1305 526 1305 526 1265 c 256,33,34
 526 1225 526 1225 466 1205 c 2,35,-1
 160 1109 l 2,0,1
EndSplineSet
EndChar

StartChar: afii57374
Encoding: 65552 -1 113
Width: 693
GlyphClass: 2
Flags: W
LayerCount: 2
Fore
SplineSet
693 0 m 1,0,-1
 605 0 l 2,1,2
 548 0 548 0 471 19 c 0,3,4
 379 42 379 42 348 69 c 1,5,6
 250 0 250 0 85 0 c 2,7,-1
 -70 0 l 1,8,-1
 -70 233 l 1,9,-1
 151 233 l 1,10,11
 92 310 92 310 92 392 c 0,12,13
 92 500 92 500 178 604 c 0,14,15
 268 712 268 712 375 712 c 0,16,17
 487 712 487 712 552 623 c 0,18,19
 609 543 609 543 609 426 c 0,20,21
 609 300 609 300 530 233 c 1,22,-1
 693 233 l 1,23,-1
 693 0 l 1,0,-1
452 401 m 0,24,25
 452 439 452 439 429 470 c 0,26,27
 404 504 404 504 367 504 c 0,28,29
 325 504 325 504 291 468 c 0,30,31
 257 433 257 433 257 391 c 0,32,33
 257 357 257 357 289 331 c 0,34,35
 320 306 320 306 356 306 c 0,36,37
 389 306 389 306 420 337 c 0,38,39
 452 369 452 369 452 401 c 0,24,25
EndSplineSet
EndChar

StartChar: afii57375
Encoding: 1619 1619 114
Width: 500
GlyphClass: 2
Flags: W
LayerCount: 2
Fore
SplineSet
633 1547 m 0,0,1
 633 1459 633 1459 559 1400 c 0,2,3
 491 1346 491 1346 399 1346 c 0,4,5
 357 1346 357 1346 275 1352 c 0,6,7
 192 1358 192 1358 151 1358 c 0,8,9
 76 1358 76 1358 39 1327 c 0,10,11
 33 1322 33 1322 22.5 1308 c 128,-1,12
 12 1294 12 1294 -2 1271 c 0,13,14
 -22 1241 -22 1241 -51 1241 c 0,15,16
 -90 1241 -90 1241 -90 1280 c 0,17,18
 -90 1373 -90 1373 -29 1431 c 0,19,20
 32 1491 32 1491 124 1491 c 0,21,22
 146 1491 146 1491 178.5 1489.5 c 128,-1,23
 211 1488 211 1488 256 1484 c 0,24,25
 344 1478 344 1478 389 1478 c 0,26,27
 459 1478 459 1478 521 1532 c 0,28,29
 582 1586 582 1586 599 1586 c 0,30,31
 633 1586 633 1586 633 1547 c 0,0,1
EndSplineSet
EndChar

StartChar: afii57391
Encoding: 59450 59450 115
Width: 1024
GlyphClass: 2
Flags: W
LayerCount: 2
Fore
SplineSet
1024 0 m 1,0,-1
 -70 0 l 1,1,-1
 -70 188 l 1,2,-1
 1024 188 l 1,3,-1
 1024 0 l 1,0,-1
EndSplineSet
EndChar

StartChar: afii57471
Encoding: 65553 -1 116
Width: 1727
Flags: W
LayerCount: 2
Fore
SplineSet
1727 0 m 1,0,-1
 1687 0 l 2,1,2
 1519 0 1519 0 1460 122 c 1,3,4
 1325 -56 1325 -56 756 -56 c 0,5,6
 164 -56 164 -56 164 291 c 0,7,8
 164 379 164 379 190 465 c 0,9,10
 228 584 228 584 296 584 c 0,11,12
 369 584 369 584 369 511 c 0,13,14
 369 498 369 498 366 480 c 128,-1,15
 363 462 363 462 358 437 c 0,16,17
 348 391 348 391 348 364 c 0,18,19
 348 280 348 280 413 239 c 0,20,21
 509 179 509 179 767 179 c 2,22,-1
 890 179 l 2,23,24
 1271 179 1271 179 1359 291 c 0,25,26
 1371 306 1371 306 1413 402 c 0,27,28
 1439 461 1439 461 1485 461 c 0,29,30
 1536 461 1536 461 1554 417 c 0,31,32
 1555 415 1555 415 1569 342 c 0,33,34
 1590 233 1590 233 1724 233 c 2,35,-1
 1727 233 l 1,36,-1
 1727 0 l 1,0,-1
EndSplineSet
EndChar

StartChar: afii52258
Encoding: 65554 -1 117
Width: 1760
GlyphClass: 2
Flags: W
LayerCount: 2
Fore
SplineSet
1760 0 m 1,0,-1
 1672 0 l 2,1,2
 1506 0 1506 0 1410 72 c 1,3,4
 1355 31 1355 31 1191 -8 c 0,5,6
 988 -56 988 -56 756 -56 c 0,7,8
 164 -56 164 -56 164 291 c 0,9,10
 164 379 164 379 190 465 c 0,11,12
 228 584 228 584 296 584 c 0,13,14
 369 584 369 584 369 511 c 0,15,16
 369 498 369 498 366 480 c 128,-1,17
 363 462 363 462 358 437 c 0,18,19
 348 391 348 391 348 364 c 0,20,21
 348 280 348 280 413 239 c 0,22,23
 509 179 509 179 767 179 c 2,24,-1
 890 179 l 2,25,26
 1103 179 1103 179 1226 234 c 1,27,28
 1167 311 1167 311 1167 393 c 0,29,30
 1167 501 1167 501 1253 605 c 0,31,32
 1343 712 1343 712 1450 712 c 0,33,34
 1562 712 1562 712 1627 623 c 0,35,36
 1684 543 1684 543 1684 427 c 0,37,38
 1684 294 1684 294 1605 233 c 1,39,-1
 1760 233 l 1,40,-1
 1760 0 l 1,0,-1
1527 402 m 0,41,42
 1527 422 1527 422 1521.5 440 c 128,-1,43
 1516 458 1516 458 1505 472 c 128,-1,44
 1494 486 1494 486 1478.5 494.5 c 128,-1,45
 1463 503 1463 503 1444 503 c 0,46,47
 1402 503 1402 503 1367 468 c 256,48,49
 1332 433 1332 433 1332 392 c 0,50,51
 1332 354 1332 354 1365 330 c 0,52,53
 1393 308 1393 308 1433 308 c 0,54,55
 1464 308 1464 308 1495 339 c 0,56,57
 1527 371 1527 371 1527 402 c 0,41,42
EndSplineSet
EndChar

StartChar: afii62889
Encoding: 65555 -1 123
Width: 1313
Flags: W
LayerCount: 2
Fore
SplineSet
1313 0 m 1,0,-1
 1181 0 l 1,1,2
 1164 -179 1164 -179 1043 -312 c 0,3,4
 891 -480 891 -480 640 -480 c 0,5,6
 391 -480 391 -480 267 -329 c 0,7,8
 164 -205 164 -205 164 -17 c 0,9,10
 164 75 164 75 191 164 c 0,11,12
 230 293 230 293 306 293 c 0,13,14
 375 293 375 293 375 212 c 0,15,16
 375 196 375 196 372 173.5 c 128,-1,17
 369 151 369 151 364 120 c 0,18,19
 354 61 354 61 354 28 c 0,20,21
 354 -106 354 -106 442 -179 c 0,22,23
 525 -247 525 -247 661 -247 c 0,24,25
 854 -247 854 -247 953 -136 c 0,26,27
 1017 -65 1017 -65 1017 0 c 1,28,-1
 960 0 l 2,29,30
 810 0 810 0 743 46 c 0,31,32
 661 101 661 101 661 244 c 0,33,34
 661 353 661 353 729 456 c 0,35,36
 806 572 806 572 916 572 c 0,37,38
 1042 572 1042 572 1115 445 c 0,39,40
 1172 347 1172 347 1179 233 c 1,41,-1
 1313 233 l 1,42,-1
 1313 0 l 1,0,-1
1012 222 m 1,43,44
 1012 281 1012 281 987 321 c 0,45,46
 957 370 957 370 902 370 c 0,47,48
 828 370 828 370 828 283 c 0,49,50
 828 222 828 222 950 222 c 2,51,-1
 1012 222 l 1,43,44
EndSplineSet
EndChar

StartChar: afii62887
Encoding: 65556 -1 124
Width: 1696
Flags: W
LayerCount: 2
Fore
SplineSet
1668 336 m 0,0,1
 1668 114 1668 114 1398 19 c 0,2,3
 1182 -56 1182 -56 756 -56 c 0,4,5
 164 -56 164 -56 164 291 c 0,6,7
 164 379 164 379 190 465 c 0,8,9
 228 584 228 584 296 584 c 0,10,11
 369 584 369 584 369 511 c 0,12,13
 369 498 369 498 366 480 c 128,-1,14
 363 462 363 462 358 437 c 0,15,16
 348 391 348 391 348 364 c 0,17,18
 348 280 348 280 413 239 c 0,19,20
 509 179 509 179 767 179 c 2,21,-1
 890 179 l 2,22,23
 978 179 978 179 1058.5 184.5 c 128,-1,24
 1139 190 1139 190 1214 201 c 0,25,26
 1473 240 1473 240 1473 329 c 0,27,28
 1473 372 1473 372 1441 444 c 0,29,30
 1409 517 1409 517 1409 547 c 0,31,32
 1409 659 1409 659 1508 659 c 0,33,34
 1590 659 1590 659 1635 531 c 0,35,36
 1668 436 1668 436 1668 336 c 0,0,1
EndSplineSet
EndChar

StartChar: afii62888
Encoding: 1697 1697 125
Width: 1720
GlyphClass: 2
Flags: W
LayerCount: 2
Fore
SplineSet
1673 399 m 0,0,1
 1673 114 1673 114 1330 8 c 0,2,3
 1126 -55 1126 -55 756 -55 c 0,4,5
 164 -55 164 -55 164 292 c 0,6,7
 164 380 164 380 190 466 c 0,8,9
 228 585 228 585 296 585 c 0,10,11
 369 585 369 585 369 512 c 0,12,13
 369 499 369 499 366 481 c 128,-1,14
 363 463 363 463 358 438 c 0,15,16
 348 392 348 392 348 365 c 0,17,18
 348 281 348 281 413 240 c 0,19,20
 509 180 509 180 767 180 c 2,21,-1
 890 180 l 2,22,23
 1122 180 1122 180 1308 233 c 0,24,25
 1513 291 1513 291 1508 380 c 1,26,27
 1491 360 1491 360 1452 341 c 0,28,29
 1403 316 1403 316 1354 316 c 0,30,31
 1239 316 1239 316 1182 390 c 0,32,33
 1138 448 1138 448 1138 518 c 0,34,35
 1138 628 1138 628 1202 740 c 0,36,37
 1279 874 1279 874 1391 874 c 0,38,39
 1532 874 1532 874 1612 697 c 0,40,41
 1673 560 1673 560 1673 399 c 0,0,1
1469 568 m 0,42,43
 1469 606 1469 606 1439 641 c 256,44,45
 1409 676 1409 676 1370 676 c 0,46,47
 1337 676 1337 676 1313 647 c 0,48,49
 1290 618 1290 618 1290 586 c 0,50,51
 1290 506 1290 506 1367 506 c 0,52,53
 1469 506 1469 506 1469 568 c 0,42,43
EndSplineSet
Substitution2: "'medi' Medial Forms in Arabic lookup 3 subtable" afii57374
Substitution2: "'fina' Terminal Forms in Arabic lookup 2 subtable" afii52258
Substitution2: "'init' Initial Forms in Arabic lookup 1 subtable" afii57459
EndChar

StartChar: afii57567
Encoding: 1705 1705 132
Width: 1794
GlyphClass: 2
Flags: W
AnchorPoint: "Anchor-3" 705 -555 basechar 0
AnchorPoint: "Anchor-2" 615 1155 basechar 0
LayerCount: 2
Fore
SplineSet
1751 1035 m 0,0,1
 1434 958 1434 958 1217 873 c 0,2,3
 1193 862 1193 862 1193 841 c 256,4,5
 1193 820 1193 820 1213 805 c 0,6,7
 1582 524 1582 524 1582 326 c 0,8,9
 1582 -56 1582 -56 756 -56 c 0,10,11
 164 -56 164 -56 164 291 c 0,12,13
 164 379 164 379 190 465 c 0,14,15
 228 584 228 584 296 584 c 0,16,17
 369 584 369 584 369 511 c 0,18,19
 369 498 369 498 366 480 c 128,-1,20
 363 462 363 462 358 437 c 0,21,22
 348 391 348 391 348 364 c 0,23,24
 348 280 348 280 413 239 c 0,25,26
 509 179 509 179 767 179 c 2,27,-1
 804 179 l 2,28,29
 1037 179 1037 179 1196 209 c 0,30,31
 1393 247 1393 247 1393 319 c 0,32,33
 1393 371 1393 371 1225 515 c 0,34,35
 1035 678 1035 678 1004 737 c 0,36,37
 985 772 985 772 985 830 c 0,38,39
 985 951 985 951 1070 1003 c 0,40,41
 1260 1121 1260 1121 1679 1219 c 0,42,43
 1704 1225 1704 1225 1725 1225 c 0,44,45
 1772 1225 1772 1225 1803 1200 c 0,46,47
 1839 1173 1839 1173 1839 1129 c 0,48,49
 1839 1056 1839 1056 1751 1035 c 0,0,1
EndSplineSet
Substitution2: "'medi' Medial Forms in Arabic lookup 3 subtable" afii52306
Substitution2: "'fina' Terminal Forms in Arabic lookup 2 subtable" afii62964
Substitution2: "'init' Initial Forms in Arabic lookup 1 subtable" afii52305
EndChar

StartChar: afii62964
Encoding: 64399 64399 133
Width: 2006
GlyphClass: 2
Flags: W
AnchorPoint: "Anchor-3" 780 -600 basechar 0
AnchorPoint: "Anchor-2" 630 1185 basechar 0
LayerCount: 2
Fore
SplineSet
2006 0 m 1,0,-1
 1967 0 l 2,1,2
 1720 0 1720 0 1554 234 c 1,3,4
 1508 47 1508 47 1213 -19 c 0,5,6
 1050 -56 1050 -56 756 -56 c 0,7,8
 164 -56 164 -56 164 291 c 0,9,10
 164 379 164 379 190 465 c 0,11,12
 228 584 228 584 296 584 c 0,13,14
 369 584 369 584 369 511 c 0,15,16
 369 498 369 498 366 480 c 128,-1,17
 363 462 363 462 358 437 c 0,18,19
 348 391 348 391 348 364 c 0,20,21
 348 280 348 280 413 239 c 0,22,23
 509 179 509 179 767 179 c 2,24,-1
 804 179 l 2,25,26
 1037 179 1037 179 1196 209 c 0,27,28
 1393 247 1393 247 1393 319 c 0,29,30
 1393 371 1393 371 1225 515 c 0,31,32
 1037 676 1037 676 1004 737 c 0,33,34
 984 775 984 775 984 831 c 0,35,36
 984 952 984 952 1070 1003 c 0,37,38
 1283 1129 1283 1129 1679 1219 c 0,39,40
 1704 1225 1704 1225 1725 1225 c 0,41,42
 1771 1225 1771 1225 1803 1201 c 0,43,44
 1839 1174 1839 1174 1839 1130 c 0,45,46
 1839 1057 1839 1057 1751 1035 c 0,47,48
 1419 952 1419 952 1217 873 c 0,49,50
 1193 864 1193 864 1193 841 c 0,51,52
 1193 822 1193 822 1213 805 c 0,53,54
 1361 688 1361 688 1511 537 c 0,55,56
 1562 484 1562 484 1699 349 c 1,57,58
 1823 233 1823 233 1954 233 c 2,59,-1
 2006 233 l 1,60,-1
 2006 0 l 1,0,-1
EndSplineSet
EndChar

StartChar: afii52305
Encoding: 64400 64400 134
Width: 837
GlyphClass: 2
Flags: W
AnchorPoint: "Anchor-3" 270 -495 basechar 0
AnchorPoint: "Anchor-2" 240 1320 basechar 0
LayerCount: 2
Fore
SplineSet
789 1035 m 0,0,1
 507 970 507 970 256 873 c 0,2,3
 231 863 231 863 231 842 c 256,4,5
 231 821 231 821 252 805 c 0,6,7
 620 526 620 526 620 326 c 0,8,9
 620 137 620 137 468 63 c 0,10,11
 339 0 339 0 41 0 c 2,12,-1
 -70 0 l 1,13,-1
 -70 233 l 1,14,-1
 18 233 l 2,15,16
 217 233 217 233 253 236 c 0,17,18
 432 251 432 251 432 319 c 0,19,20
 432 371 432 371 264 515 c 0,21,22
 75 677 75 677 42 737 c 0,23,24
 23 771 23 771 23 830 c 0,25,26
 23 950 23 950 109 1003 c 0,27,28
 303 1122 303 1122 717 1219 c 0,29,30
 742 1225 742 1225 763 1225 c 0,31,32
 787 1225 787 1225 807.5 1218.5 c 128,-1,33
 828 1212 828 1212 843.5 1199.5 c 128,-1,34
 859 1187 859 1187 868 1169 c 128,-1,35
 877 1151 877 1151 877 1128 c 0,36,37
 877 1054 877 1054 789 1035 c 0,0,1
EndSplineSet
EndChar

StartChar: afii52306
Encoding: 64401 64401 135
Width: 1044
GlyphClass: 2
Flags: W
AnchorPoint: "Anchor-3" 390 -540 basechar 0
AnchorPoint: "Anchor-2" 315 1320 basechar 0
LayerCount: 2
Fore
SplineSet
1044 0 m 1,0,-1
 1006 0 l 2,1,2
 758 0 758 0 592 234 c 1,3,4
 555 82 555 82 393 32 c 0,5,6
 286 0 286 0 31 0 c 2,7,-1
 -70 0 l 1,8,-1
 -70 233 l 1,9,-1
 57 233 l 2,10,11
 257 233 257 233 289 236 c 0,12,13
 432 250 432 250 432 319 c 0,14,15
 432 371 432 371 264 515 c 0,16,17
 75 677 75 677 42 737 c 0,18,19
 23 771 23 771 23 830 c 0,20,21
 23 950 23 950 109 1003 c 0,22,23
 303 1122 303 1122 717 1219 c 0,24,25
 742 1225 742 1225 763 1225 c 0,26,27
 787 1225 787 1225 807.5 1218.5 c 128,-1,28
 828 1212 828 1212 843.5 1199.5 c 128,-1,29
 859 1187 859 1187 868 1169 c 128,-1,30
 877 1151 877 1151 877 1128 c 0,31,32
 877 1054 877 1054 789 1035 c 0,33,34
 504 970 504 970 256 873 c 0,35,36
 231 863 231 863 231 842 c 256,37,38
 231 821 231 821 252 805 c 0,39,40
 363 716 363 716 550 537 c 0,41,42
 576 511 576 511 623 464 c 128,-1,43
 670 417 670 417 739 349 c 0,44,45
 861 233 861 233 992 233 c 2,46,-1
 1044 233 l 1,47,-1
 1044 0 l 1,0,-1
EndSplineSet
EndChar

StartChar: afii57509
Encoding: 1711 1711 136
Width: 1823
GlyphClass: 2
Flags: W
AnchorPoint: "Anchor-3" 825 -555 basechar 0
AnchorPoint: "Anchor-2" 660 1260 basechar 0
LayerCount: 2
Fore
SplineSet
1701 1249 m 0,0,1
 1314 1151 1314 1151 1090 1042 c 0,2,3
 1051 1023 1051 1023 1025 1038 c 0,4,5
 1002 1052 1002 1052 1002 1084 c 0,6,7
 1002 1132 1002 1132 1050 1158 c 0,8,9
 1167 1221 1167 1221 1319 1273 c 128,-1,10
 1471 1325 1471 1325 1661 1370 c 0,11,12
 1674 1373 1674 1373 1689 1373 c 0,13,14
 1761 1373 1761 1373 1761 1313 c 0,15,16
 1761 1264 1761 1264 1701 1249 c 0,0,1
1780 967 m 0,17,18
 1418 879 1418 879 1246 806 c 0,19,20
 1221 796 1221 796 1221 772 c 0,21,22
 1221 750 1221 750 1242 737 c 0,23,24
 1582 517 1582 517 1582 326 c 0,25,26
 1582 -56 1582 -56 756 -56 c 0,27,28
 164 -56 164 -56 164 291 c 0,29,30
 164 379 164 379 190 465 c 0,31,32
 228 584 228 584 296 584 c 0,33,34
 369 584 369 584 369 511 c 0,35,36
 369 498 369 498 366 480 c 128,-1,37
 363 462 363 462 358 437 c 0,38,39
 348 391 348 391 348 364 c 0,40,41
 348 280 348 280 413 239 c 0,42,43
 509 179 509 179 767 179 c 2,44,-1
 804 179 l 2,45,46
 1037 179 1037 179 1196 209 c 0,47,48
 1393 247 1393 247 1393 319 c 0,49,50
 1393 371 1393 371 1240 482 c 0,51,52
 1068 606 1068 606 1033 670 c 0,53,54
 1013 708 1013 708 1013 762 c 0,55,56
 1013 882 1013 882 1099 936 c 0,57,58
 1291 1056 1291 1056 1708 1152 c 0,59,60
 1719 1154 1719 1154 1730.5 1155.5 c 128,-1,61
 1742 1157 1742 1157 1754 1157 c 0,62,63
 1800 1157 1800 1157 1832 1133 c 0,64,65
 1868 1106 1868 1106 1868 1062 c 0,66,67
 1868 988 1868 988 1780 967 c 0,17,18
EndSplineSet
Substitution2: "'medi' Medial Forms in Arabic lookup 3 subtable" afii62966
Substitution2: "'fina' Terminal Forms in Arabic lookup 2 subtable" afii62967
Substitution2: "'init' Initial Forms in Arabic lookup 1 subtable" afii62965
EndChar

StartChar: afii62967
Encoding: 64403 64403 137
Width: 2006
GlyphClass: 2
Flags: W
AnchorPoint: "Anchor-3" 780 -570 basechar 0
AnchorPoint: "Anchor-2" 690 1215 basechar 0
LayerCount: 2
Fore
SplineSet
1701 1249 m 0,0,1
 1314 1151 1314 1151 1090 1042 c 0,2,3
 1051 1023 1051 1023 1025 1038 c 0,4,5
 1002 1052 1002 1052 1002 1084 c 0,6,7
 1002 1132 1002 1132 1050 1158 c 0,8,9
 1167 1221 1167 1221 1319 1273 c 128,-1,10
 1471 1325 1471 1325 1661 1370 c 0,11,12
 1674 1373 1674 1373 1689 1373 c 0,13,14
 1761 1373 1761 1373 1761 1313 c 0,15,16
 1761 1264 1761 1264 1701 1249 c 0,0,1
2006 0 m 1,17,-1
 1967 0 l 2,18,19
 1720 0 1720 0 1554 234 c 1,20,21
 1508 47 1508 47 1213 -19 c 0,22,23
 1050 -56 1050 -56 756 -56 c 0,24,25
 164 -56 164 -56 164 291 c 0,26,27
 164 379 164 379 190 465 c 0,28,29
 228 584 228 584 296 584 c 0,30,31
 369 584 369 584 369 511 c 0,32,33
 369 498 369 498 366 480 c 128,-1,34
 363 462 363 462 358 437 c 0,35,36
 348 391 348 391 348 364 c 0,37,38
 348 280 348 280 413 239 c 0,39,40
 509 179 509 179 767 179 c 2,41,-1
 804 179 l 2,42,43
 1037 179 1037 179 1196 209 c 0,44,45
 1393 247 1393 247 1393 319 c 0,46,47
 1393 371 1393 371 1240 482 c 0,48,49
 1068 606 1068 606 1033 670 c 0,50,51
 1013 708 1013 708 1013 764 c 0,52,53
 1013 885 1013 885 1099 936 c 0,54,55
 1313 1063 1313 1063 1708 1152 c 0,56,57
 1733 1157 1733 1157 1753 1157 c 0,58,59
 1776 1157 1776 1157 1797 1150.5 c 128,-1,60
 1818 1144 1818 1144 1833.5 1132 c 128,-1,61
 1849 1120 1849 1120 1858.5 1102 c 128,-1,62
 1868 1084 1868 1084 1868 1062 c 0,63,64
 1868 988 1868 988 1780 967 c 0,65,66
 1592 922 1592 922 1459.5 881.5 c 128,-1,67
 1327 841 1327 841 1246 806 c 0,68,69
 1221 796 1221 796 1221 771 c 0,70,71
 1221 750 1221 750 1242 737 c 2,72,-1
 1369 654 l 2,73,74
 1443 606 1443 606 1541 509 c 2,75,-1
 1701 349 l 1,76,77
 1825 233 1825 233 1954 233 c 2,78,-1
 2006 233 l 1,79,-1
 2006 0 l 1,17,-1
EndSplineSet
EndChar

StartChar: afii62965
Encoding: 64404 64404 138
Width: 913
GlyphClass: 2
Flags: W
AnchorPoint: "Anchor-3" 300 -510 basechar 0
AnchorPoint: "Anchor-2" 165 1470 basechar 0
LayerCount: 2
Fore
SplineSet
739 1249 m 0,0,1
 358 1153 358 1153 129 1042 c 0,2,3
 89 1023 89 1023 63 1038 c 0,4,5
 40 1052 40 1052 40 1084 c 0,6,7
 40 1132 40 1132 88 1158 c 0,8,9
 206 1221 206 1221 358.5 1273 c 128,-1,10
 511 1325 511 1325 700 1370 c 0,11,12
 713 1373 713 1373 728 1373 c 0,13,14
 799 1373 799 1373 799 1313 c 0,15,16
 799 1264 799 1264 739 1249 c 0,0,1
818 967 m 0,17,18
 635 922 635 922 502.5 882.5 c 128,-1,19
 370 843 370 843 285 806 c 0,20,21
 261 795 261 795 261 774 c 0,22,23
 261 752 261 752 281 737 c 0,24,25
 375 665 375 665 429 621.5 c 128,-1,26
 483 578 483 578 500 562 c 0,27,28
 620 443 620 443 620 326 c 0,29,30
 620 137 620 137 468 63 c 0,31,32
 339 0 339 0 41 0 c 2,33,-1
 -70 0 l 1,34,-1
 -70 233 l 1,35,-1
 18 233 l 2,36,37
 217 233 217 233 253 236 c 0,38,39
 432 251 432 251 432 319 c 0,40,41
 432 371 432 371 278 482 c 0,42,43
 106 606 106 606 71 670 c 0,44,45
 52 704 52 704 52 762 c 0,46,47
 52 884 52 884 137 936 c 0,48,49
 329 1054 329 1054 746 1152 c 0,50,51
 757 1154 757 1154 768.5 1155.5 c 128,-1,52
 780 1157 780 1157 792 1157 c 0,53,54
 906 1157 906 1157 906 1062 c 0,55,56
 906 988 906 988 818 967 c 0,17,18
EndSplineSet
EndChar

StartChar: afii62966
Encoding: 64405 64405 139
Width: 1047
GlyphClass: 2
Flags: W
AnchorPoint: "Anchor-3" 405 -570 basechar 0
AnchorPoint: "Anchor-2" 360 1515 basechar 0
LayerCount: 2
Fore
SplineSet
739 1249 m 0,0,1
 358 1153 358 1153 129 1042 c 0,2,3
 89 1023 89 1023 63 1038 c 0,4,5
 40 1052 40 1052 40 1084 c 0,6,7
 40 1132 40 1132 88 1158 c 0,8,9
 206 1221 206 1221 358.5 1273 c 128,-1,10
 511 1325 511 1325 700 1370 c 0,11,12
 713 1373 713 1373 728 1373 c 0,13,14
 799 1373 799 1373 799 1313 c 0,15,16
 799 1264 799 1264 739 1249 c 0,0,1
1047 0 m 1,17,-1
 1006 0 l 2,18,19
 758 0 758 0 592 234 c 1,20,21
 555 82 555 82 393 32 c 0,22,23
 286 0 286 0 31 0 c 2,24,-1
 -70 0 l 1,25,-1
 -70 233 l 1,26,-1
 57 233 l 2,27,28
 257 233 257 233 289 236 c 0,29,30
 432 250 432 250 432 319 c 0,31,32
 432 371 432 371 278 482 c 0,33,34
 106 606 106 606 71 670 c 0,35,36
 52 704 52 704 52 762 c 0,37,38
 52 884 52 884 137 936 c 0,39,40
 329 1054 329 1054 746 1152 c 0,41,42
 757 1154 757 1154 768.5 1155.5 c 128,-1,43
 780 1157 780 1157 792 1157 c 0,44,45
 906 1157 906 1157 906 1062 c 0,46,47
 906 988 906 988 818 967 c 0,48,49
 635 922 635 922 502.5 882.5 c 128,-1,50
 370 843 370 843 285 806 c 0,51,52
 261 795 261 795 261 774 c 0,53,54
 261 754 261 754 281 737 c 1,55,56
 361 688 361 688 550 537 c 1,57,58
 576 511 576 511 623 464 c 128,-1,59
 670 417 670 417 739 349 c 0,60,61
 861 233 861 233 992 233 c 2,62,-1
 1047 233 l 1,63,-1
 1047 0 l 1,17,-1
EndSplineSet
EndChar

StartChar: afii57555
Encoding: 1740 1740 140
Width: 1412
GlyphClass: 2
Flags: W
AnchorPoint: "Anchor-3" 660 -930 basechar 0
AnchorPoint: "Anchor-2" 630 825 basechar 0
LayerCount: 2
Fore
SplineSet
1413 653 m 0,0,1
 1413 581 1413 581 1364 550 c 0,2,3
 1336 531 1336 531 1254 520 c 0,4,5
 1199 512 1199 512 1151 497.5 c 128,-1,6
 1103 483 1103 483 1061 461 c 0,7,8
 949 403 949 403 949 311 c 0,9,10
 949 272 949 272 1029 258 c 2,11,-1
 1165 234 l 1,12,13
 1250 210 1250 210 1286 174 c 0,14,15
 1327 130 1327 130 1327 48 c 0,16,17
 1327 -143 1327 -143 1106 -287 c 0,18,19
 895 -424 895 -424 648 -424 c 0,20,21
 417 -424 417 -424 293 -310 c 0,22,23
 164 -192 164 -192 164 36 c 0,24,25
 164 147 164 147 200 258 c 0,26,27
 246 403 246 403 328 403 c 0,28,29
 411 403 411 403 411 313 c 0,30,31
 411 280 411 280 387 202 c 256,32,33
 363 124 363 124 363 83 c 0,34,35
 363 -193 363 -193 673 -193 c 0,36,37
 871 -193 871 -193 1014 -124 c 0,38,39
 1136 -65 1136 -65 1136 -5 c 0,40,41
 1136 29 1136 29 1036 44 c 0,42,43
 901 63 901 63 850 91 c 0,44,45
 750 145 750 145 750 274 c 0,46,47
 750 459 750 459 929 608 c 0,48,49
 1101 751 1101 751 1288 751 c 0,50,51
 1413 751 1413 751 1413 653 c 0,0,1
EndSplineSet
Substitution2: "'medi' Medial Forms in Arabic lookup 3 subtable" afii62832
Substitution2: "'fina' Terminal Forms in Arabic lookup 2 subtable" afii52364
Substitution2: "'init' Initial Forms in Arabic lookup 1 subtable" uniFBFE
EndChar

StartChar: afii52364
Encoding: 64509 64509 141
Width: 1276
GlyphClass: 2
Flags: W
AnchorPoint: "Anchor-3" 570 -1140 basechar 0
AnchorPoint: "Anchor-2" 510 555 basechar 0
LayerCount: 2
Fore
SplineSet
1276 0 m 1,0,-1
 990 0 l 2,1,2
 886 0 886 0 886 -15 c 0,3,4
 886 -28 886 -28 962 -44 c 0,5,6
 1029 -58 1029 -58 1064 -66 c 128,-1,7
 1099 -74 1099 -74 1102 -75 c 0,8,9
 1188 -111 1188 -111 1188 -201 c 0,10,11
 1188 -334 1188 -334 1026 -469 c 0,12,13
 850 -617 850 -617 626 -617 c 0,14,15
 162 -617 162 -617 162 -158 c 0,16,17
 162 -46 162 -46 188 41 c 0,18,19
 225 161 225 161 306 161 c 256,20,21
 387 161 387 161 387 72 c 0,22,23
 387 43 387 43 373 -19 c 0,24,25
 366 -50 366 -50 362.5 -72.5 c 128,-1,26
 359 -95 359 -95 359 -111 c 0,27,28
 359 -264 359 -264 411 -323 c 0,29,30
 474 -396 474 -396 647 -396 c 0,31,32
 790 -396 790 -396 894 -341 c 0,33,34
 985 -293 985 -293 985 -250 c 0,35,36
 985 -237 985 -237 913 -228 c 0,37,38
 866 -223 866 -223 832.5 -215 c 128,-1,39
 799 -207 799 -207 779 -197 c 0,40,41
 708 -162 708 -162 708 -86 c 0,42,43
 708 71 708 71 848 158 c 0,44,45
 968 233 968 233 1134 233 c 2,46,-1
 1276 233 l 1,47,-1
 1276 0 l 1,0,-1
EndSplineSet
EndChar

StartChar: afii62945
Encoding: 65557 -1 147
Width: 1494
GlyphClass: 3
Flags: W
LayerCount: 2
Fore
SplineSet
1454 310 m 0,0,1
 1419 -11 1419 -11 1183 -11 c 0,2,3
 1033 -11 1033 -11 962 126 c 1,4,5
 888 0 888 0 736 0 c 0,6,7
 639 0 639 0 572 49 c 0,8,9
 498 102 498 102 482 192 c 1,10,11
 430 166 430 166 360 166 c 0,12,13
 275 166 275 166 205 202 c 0,14,15
 119 246 119 246 119 323 c 0,16,17
 119 412 119 412 181 483 c 0,18,19
 200 504 200 504 230.5 528 c 128,-1,20
 261 552 261 552 306 578 c 0,21,22
 398 633 398 633 430 665 c 0,23,24
 440 675 440 675 492 759 c 0,25,26
 520 805 520 805 569 805 c 0,27,28
 638 805 638 805 638 700 c 0,29,30
 638 679 638 679 637 647.5 c 128,-1,31
 636 616 636 616 634 574 c 256,32,33
 632 532 632 532 631 500.5 c 128,-1,34
 630 469 630 469 630 448 c 0,35,36
 630 349 630 349 646 307 c 0,37,38
 673 233 673 233 752 233 c 0,39,40
 879 233 879 233 868 406 c 2,41,-1
 848 763 l 2,42,43
 845 813 845 813 867 850 c 0,44,45
 892 892 892 892 941 892 c 0,46,47
 1028 892 1028 892 1032 783 c 2,48,-1
 1044 489 l 2,49,50
 1054 224 1054 224 1173 224 c 0,51,52
 1268 224 1268 224 1279 370 c 0,53,54
 1292 566 1292 566 1255 802 c 0,55,56
 1252 821 1252 821 1252 837 c 0,57,58
 1252 955 1252 955 1344 955 c 0,59,60
 1425 955 1425 955 1441 843 c 0,61,62
 1465 676 1465 676 1465 525 c 0,63,64
 1465 469 1465 469 1462 415.5 c 128,-1,65
 1459 362 1459 362 1454 310 c 0,0,1
473 513 m 1,66,67
 459 502 459 502 430 483.5 c 128,-1,68
 401 465 401 465 356 440 c 0,69,70
 295 406 295 406 295 374 c 0,71,72
 295 344 295 344 367 344 c 0,73,74
 435 344 435 344 469 361 c 1,75,76
 467 389 467 389 468 426.5 c 128,-1,77
 469 464 469 464 473 513 c 1,66,67
EndSplineSet
EndChar

StartChar: afii64184
Encoding: 65010 65010 148
Width: 1503
GlyphClass: 3
Flags: W
AnchorPoint: "Anchor-1" 1425 -390 baselig 0
AnchorPoint: "Anchor-0" 1305 1095 baselig 0
AnchorPoint: "Anchor-1" 960 -420 baselig 1
AnchorPoint: "Anchor-0" 930 960 baselig 1
AnchorPoint: "Anchor-1" 465 -480 baselig 2
AnchorPoint: "Anchor-0" 300 825 baselig 2
LayerCount: 2
Fore
SplineSet
974 1322 m 2,0,1
 974 1278 974 1278 945 1278 c 0,2,3
 917 1278 917 1278 913 1321 c 2,4,-1
 895 1471 l 2,5,6
 887 1527 887 1527 937 1527 c 0,7,8
 974 1527 974 1527 974 1477 c 2,9,-1
 974 1322 l 2,0,1
1154 1214 m 0,10,11
 1160 1185 1160 1185 1160 1155 c 0,12,13
 1160 1084 1160 1084 1129 1035 c 0,14,15
 1093 976 1093 976 1026 976 c 0,16,17
 968 976 968 976 941 1028 c 1,18,19
 905 942 905 942 816 942 c 0,20,21
 725 942 725 942 725 1062 c 0,22,23
 725 1113 725 1113 746 1157 c 0,24,25
 759 1184 759 1184 783 1184 c 0,26,27
 817 1184 817 1184 811 1136 c 0,28,29
 800 1062 800 1062 842 1062 c 0,30,31
 903 1062 903 1062 920 1175 c 0,32,33
 926 1219 926 1219 957 1219 c 0,34,35
 985 1219 985 1219 987 1177 c 0,36,37
 990 1091 990 1091 1039 1091 c 0,38,39
 1083 1091 1083 1091 1083 1158 c 0,40,41
 1083 1177 1083 1177 1080 1200 c 0,42,43
 1071 1262 1071 1262 1112 1262 c 0,44,45
 1143 1262 1143 1262 1154 1214 c 0,10,11
1454 311 m 0,46,47
 1419 -10 1419 -10 1183 -10 c 0,48,49
 1033 -10 1033 -10 962 127 c 1,50,51
 888 1 888 1 736 1 c 0,52,53
 639 1 639 1 572 50 c 0,54,55
 498 103 498 103 482 193 c 1,56,57
 430 167 430 167 360 167 c 0,58,59
 275 167 275 167 205 203 c 0,60,61
 119 247 119 247 119 324 c 0,62,63
 119 413 119 413 181 484 c 0,64,65
 200 505 200 505 230.5 529 c 128,-1,66
 261 553 261 553 306 579 c 0,67,68
 398 634 398 634 430 666 c 0,69,70
 440 676 440 676 492 760 c 0,71,72
 520 806 520 806 569 806 c 0,73,74
 638 806 638 806 638 701 c 0,75,76
 638 680 638 680 637 648.5 c 128,-1,77
 636 617 636 617 634 575 c 256,78,79
 632 533 632 533 631 501.5 c 128,-1,80
 630 470 630 470 630 449 c 0,81,82
 630 350 630 350 646 308 c 0,83,84
 673 234 673 234 752 234 c 0,85,86
 879 234 879 234 868 407 c 2,87,-1
 848 764 l 2,88,89
 845 814 845 814 867 851 c 0,90,91
 892 893 892 893 941 893 c 0,92,93
 1028 893 1028 893 1032 784 c 2,94,-1
 1044 490 l 2,95,96
 1054 225 1054 225 1173 225 c 0,97,98
 1268 225 1268 225 1279 371 c 0,99,100
 1292 567 1292 567 1255 803 c 0,101,102
 1252 822 1252 822 1252 838 c 0,103,104
 1252 956 1252 956 1344 956 c 0,105,106
 1425 956 1425 956 1441 844 c 0,107,108
 1465 677 1465 677 1465 526 c 0,109,110
 1465 470 1465 470 1462 416.5 c 128,-1,111
 1459 363 1459 363 1454 311 c 0,46,47
473 514 m 1,112,113
 459 503 459 503 430 484.5 c 128,-1,114
 401 466 401 466 356 441 c 0,115,116
 295 407 295 407 295 375 c 0,117,118
 295 345 295 345 367 345 c 0,119,120
 435 345 435 345 469 362 c 1,121,122
 467 390 467 390 468 427.5 c 128,-1,123
 469 465 469 465 473 514 c 1,112,113
EndSplineSet
Ligature2: "'rlig' Required Ligatures in Arabic lookup 5 subtable" afii62817 afii62818 uniFC63 afii62828
Ligature2: "'rlig' Required Ligatures in Arabic lookup 5 subtable" afii62817 afii62818 afii57457 uni0670 afii62828
EndChar

StartChar: afii57415.001
Encoding: 1575 1575 162
Width: 418
GlyphClass: 2
Flags: W
AnchorPoint: "Anchor-3" 300 -435 basechar 0
AnchorPoint: "Anchor-2" 255 1380 basechar 0
LayerCount: 2
Fore
SplineSet
374 75 m 2,0,1
 374 -34 374 -34 288 -34 c 0,2,3
 207 -34 207 -34 203 68 c 2,4,-1
 164 1062 l 2,5,6
 164 1098 164 1098 171.5 1129 c 128,-1,7
 179 1160 179 1160 193 1182 c 128,-1,8
 207 1204 207 1204 227 1216.5 c 128,-1,9
 247 1229 247 1229 273 1229 c 0,10,11
 374 1229 374 1229 374 1077 c 2,12,-1
 374 75 l 2,0,1
EndSplineSet
Substitution2: "'fina' Terminal Forms in Arabic lookup 2 subtable" afii62760
EndChar

StartChar: afii62760.001
Encoding: 65558 -1 163
Width: 540
GlyphClass: 2
Flags: W
LayerCount: 2
Fore
SplineSet
540 0 m 1,0,-1
 502 0 l 2,1,2
 417 0 417 0 359.5 18.5 c 128,-1,3
 302 37 302 37 265 88 c 128,-1,4
 228 139 228 139 210 229.5 c 128,-1,5
 192 320 192 320 187 463 c 2,6,-1
 164 1098 l 2,7,8
 164 1156 164 1156 189 1194 c 128,-1,9
 214 1232 214 1232 265 1232 c 0,10,11
 367 1232 367 1232 367 1098 c 2,12,-1
 367 426 l 2,13,14
 367 233 367 233 524 233 c 2,15,-1
 540 233 l 1,16,-1
 540 0 l 1,0,-1
EndSplineSet
EndChar

StartChar: afii57421
Encoding: 1581 1581 182
Width: 1178
GlyphClass: 2
Flags: W
AnchorPoint: "Anchor-3" 705 -1215 basechar 0
AnchorPoint: "Anchor-2" 615 930 basechar 0
LayerCount: 2
Fore
SplineSet
1179 -683 m 0,0,1
 990 -747 990 -747 819 -747 c 0,2,3
 164 -747 164 -747 164 -209 c 0,4,5
 164 -1 164 -1 333 175 c 0,6,7
 469 317 469 317 663 398 c 1,8,9
 581 405 581 405 531 408 c 128,-1,10
 481 411 481 411 463 411 c 0,11,12
 410 411 410 411 352 368 c 256,13,14
 294 325 294 325 279 325 c 0,15,16
 187 325 187 325 187 411 c 0,17,18
 187 478 187 478 256 555 c 0,19,20
 334 643 334 643 434 643 c 0,21,22
 474 643 474 643 533.5 637 c 128,-1,23
 593 631 593 631 673 620 c 256,24,25
 753 609 753 609 812.5 603.5 c 128,-1,26
 872 598 872 598 912 598 c 0,27,28
 967 598 967 598 1029 601 c 0,29,30
 1089 604 1089 604 1130 576 c 0,31,32
 1176 545 1176 545 1176 487 c 0,33,34
 1176 375 1176 375 1038 350 c 0,35,36
 794 306 794 306 596 165 c 0,37,38
 375 7 375 7 375 -164 c 0,39,40
 375 -373 375 -373 515 -453 c 0,41,42
 621 -514 621 -514 852 -514 c 0,43,44
 937 -514 937 -514 1143 -475 c 0,45,46
 1159 -472 1159 -472 1170 -472 c 0,47,48
 1271 -472 1271 -472 1271 -570 c 0,49,50
 1271 -651 1271 -651 1179 -683 c 0,0,1
EndSplineSet
Substitution2: "'medi' Medial Forms in Arabic lookup 3 subtable" afii62775
Substitution2: "'fina' Terminal Forms in Arabic lookup 2 subtable" afii62776
Substitution2: "'init' Initial Forms in Arabic lookup 1 subtable" afii62774
EndChar

StartChar: afii62776
Encoding: 65186 65186 183
Width: 1275
GlyphClass: 2
Flags: W
AnchorPoint: "Anchor-3" 675 -1215 basechar 0
AnchorPoint: "Anchor-2" 630 975 basechar 0
LayerCount: 2
Fore
SplineSet
1275 0 m 1,0,-1
 1063 0 l 2,1,2
 946 0 946 0 886 91 c 0,3,4
 836 167 836 167 834 291 c 1,5,6
 663 223 663 223 539 119 c 0,7,8
 375 -18 375 -18 375 -164 c 0,9,10
 375 -373 375 -373 515 -453 c 0,11,12
 621 -514 621 -514 852 -514 c 0,13,14
 928 -514 928 -514 1143 -475 c 0,15,16
 1148 -474 1148 -474 1154.5 -473.5 c 128,-1,17
 1161 -473 1161 -473 1169 -473 c 0,18,19
 1212 -473 1212 -473 1241.5 -500.5 c 128,-1,20
 1271 -528 1271 -528 1271 -571 c 0,21,22
 1271 -651 1271 -651 1179 -683 c 0,23,24
 990 -747 990 -747 819 -747 c 0,25,26
 164 -747 164 -747 164 -209 c 0,27,28
 164 -1 164 -1 333 175 c 0,29,30
 469 317 469 317 663 398 c 1,31,32
 581 405 581 405 531 408 c 128,-1,33
 481 411 481 411 463 411 c 0,34,35
 409 411 409 411 351 368 c 256,36,37
 293 325 293 325 279 325 c 0,38,39
 187 325 187 325 187 411 c 0,40,41
 187 478 187 478 256 555 c 0,42,43
 334 643 334 643 434 643 c 0,44,45
 474 643 474 643 533.5 637 c 128,-1,46
 593 631 593 631 673 620 c 256,47,48
 753 609 753 609 812.5 603.5 c 128,-1,49
 872 598 872 598 912 598 c 0,50,51
 967 598 967 598 1029 601 c 0,52,53
 1088 604 1088 604 1128 576 c 0,54,55
 1174 545 1174 545 1174 489 c 0,56,57
 1174 378 1174 378 1038 350 c 0,58,59
 1023 347 1023 347 1003.5 341.5 c 128,-1,60
 984 336 984 336 960 328 c 1,61,62
 977 233 977 233 1096 233 c 2,63,-1
 1275 233 l 1,64,-1
 1275 0 l 1,0,-1
EndSplineSet
EndChar

StartChar: afii62774
Encoding: 65187 65187 184
Width: 1053
GlyphClass: 2
Flags: W
AnchorPoint: "Anchor-3" 450 -525 basechar 0
AnchorPoint: "Anchor-2" 570 990 basechar 0
LayerCount: 2
Fore
SplineSet
962 308 m 0,0,1
 794 266 794 266 599 158 c 0,2,3
 430 64 430 64 384 47 c 0,4,5
 257 0 257 0 67 0 c 2,6,-1
 -70 0 l 1,7,-1
 -70 233 l 1,8,-1
 113 233 l 2,9,10
 256 233 256 233 361 268 c 0,11,12
 389 278 389 278 654 391 c 1,13,14
 384 474 384 474 332 474 c 0,15,16
 306 474 306 474 258 444 c 0,17,18
 211 414 211 414 181 414 c 0,19,20
 102 414 102 414 102 501 c 0,21,22
 102 569 102 569 180 637 c 0,23,24
 254 701 254 701 325 701 c 0,25,26
 411 701 411 701 597 636 c 0,27,28
 808 562 808 562 954 545 c 0,29,30
 1000 540 1000 540 1027 505.5 c 128,-1,31
 1054 471 1054 471 1054 424 c 0,32,33
 1054 331 1054 331 962 308 c 0,0,1
EndSplineSet
EndChar

StartChar: afii62775
Encoding: 65188 65188 185
Width: 1204
GlyphClass: 2
Flags: W
AnchorPoint: "Anchor-3" 555 -510 basechar 0
AnchorPoint: "Anchor-2" 585 1050 basechar 0
LayerCount: 2
Fore
SplineSet
1204 0 m 1,0,-1
 1006 0 l 2,1,2
 771 0 771 0 767 291 c 1,3,4
 738 274 738 274 693 243 c 128,-1,5
 648 212 648 212 587 164 c 0,6,7
 482 83 482 83 410 50 c 0,8,9
 301 0 301 0 173 0 c 2,10,-1
 -70 0 l 1,11,-1
 -70 233 l 1,12,-1
 142 233 l 2,13,14
 296 233 296 233 415 295 c 2,15,-1
 619 406 l 1,16,17
 405 449 405 449 349 449 c 0,18,19
 314 449 314 449 269 419 c 256,20,21
 224 389 224 389 198 389 c 0,22,23
 119 389 119 389 119 476 c 0,24,25
 119 545 119 545 196 613 c 0,26,27
 269 677 269 677 341 677 c 0,28,29
 444 677 444 677 656 626 c 0,30,31
 871 576 871 576 979 576 c 0,32,33
 1089 576 1089 576 1089 479 c 0,34,35
 1089 385 1089 385 1021 371 c 0,36,37
 995 366 995 366 960.5 355.5 c 128,-1,38
 926 345 926 345 883 331 c 1,39,40
 906 233 906 233 1039 233 c 2,41,-1
 1204 233 l 1,42,-1
 1204 0 l 1,0,-1
EndSplineSet
EndChar

StartChar: afii57423
Encoding: 1583 1583 190
Width: 907
GlyphClass: 2
Flags: W
AnchorPoint: "Anchor-3" 465 -495 basechar 0
AnchorPoint: "Anchor-2" 450 1110 basechar 0
LayerCount: 2
Fore
SplineSet
768 54 m 0,0,1
 705 9 705 9 565 -28 c 0,2,3
 463 -54 463 -54 357 -54 c 0,4,5
 162 -54 162 -54 162 46 c 0,6,7
 162 48 162 48 162.5 50.5 c 128,-1,8
 163 53 163 53 163 55 c 0,9,10
 170 143 170 143 315 162 c 0,11,12
 344 166 344 166 536 183 c 1,13,14
 692 215 692 215 697 266 c 1,15,-1
 697 275 l 2,16,17
 697 375 697 375 476 566 c 0,18,19
 398 635 398 635 398 685 c 0,20,21
 398 687 398 687 398.5 688.5 c 128,-1,22
 399 690 399 690 399 692 c 0,23,24
 404 734 404 734 433 760 c 128,-1,25
 462 786 462 786 504 786 c 2,26,-1
 514 786 l 1,27,28
 618 777 618 777 749 577 c 0,29,30
 874 383 874 383 874 272 c 0,31,32
 874 130 874 130 768 54 c 0,0,1
EndSplineSet
Substitution2: "'fina' Terminal Forms in Arabic lookup 2 subtable" afii62780
PairPos2: "'kern' Horizontal Kerning in Arabic lookup 0 subtable" afii57410 dx=0 dy=0 dh=0 dv=0 dx=0 dy=0 dh=-100 dv=0
PairPos2: "'kern' Horizontal Kerning in Arabic lookup 0 subtable" afii62965 dx=0 dy=0 dh=0 dv=0 dx=0 dy=0 dh=-100 dv=0
PairPos2: "'kern' Horizontal Kerning in Arabic lookup 0 subtable" afii57509 dx=0 dy=0 dh=0 dv=0 dx=0 dy=0 dh=-100 dv=0
PairPos2: "'kern' Horizontal Kerning in Arabic lookup 0 subtable" afii52305 dx=0 dy=0 dh=0 dv=0 dx=0 dy=0 dh=-100 dv=0
PairPos2: "'kern' Horizontal Kerning in Arabic lookup 0 subtable" afii57567 dx=0 dy=0 dh=0 dv=0 dx=0 dy=0 dh=-100 dv=0
EndChar

StartChar: afii62780
Encoding: 65194 65194 191
Width: 1073
GlyphClass: 2
Flags: W
AnchorPoint: "Anchor-3" 435 -570 basechar 0
AnchorPoint: "Anchor-2" 435 1050 basechar 0
LayerCount: 2
Fore
SplineSet
1073 0 m 1,0,-1
 1036 0 l 2,1,2
 868 0 868 0 811 88 c 1,3,4
 751 -11 751 -11 539 -56 c 0,5,6
 427 -79 427 -79 353 -79 c 0,7,8
 177 -79 177 -79 167 36 c 0,9,10
 167 39 167 39 166.5 41.5 c 128,-1,11
 166 44 166 44 166 47 c 0,12,13
 166 131 166 131 301 140 c 0,14,15
 671 164 671 164 671 261 c 0,16,17
 671 263 671 263 670.5 265.5 c 128,-1,18
 670 268 670 268 670 270 c 0,19,20
 661 320 661 320 608 405 c 0,21,22
 594 425 594 425 571 461 c 128,-1,23
 548 497 548 497 514 551 c 0,24,25
 463 633 463 633 463 690 c 0,26,27
 463 787 463 787 561 787 c 0,28,29
 580 787 580 787 592 783 c 0,30,31
 661 764 661 764 843 407 c 0,32,33
 891 314 891 314 923 282 c 0,34,35
 972 233 972 233 1057 233 c 2,36,-1
 1073 233 l 1,37,-1
 1073 0 l 1,0,-1
EndSplineSet
PairPos2: "'kern' Horizontal Kerning in Arabic lookup 0 subtable" afii57410 dx=0 dy=0 dh=0 dv=0 dx=0 dy=0 dh=-100 dv=0
PairPos2: "'kern' Horizontal Kerning in Arabic lookup 0 subtable" afii62965 dx=0 dy=0 dh=0 dv=0 dx=0 dy=0 dh=-100 dv=0
PairPos2: "'kern' Horizontal Kerning in Arabic lookup 0 subtable" afii57509 dx=0 dy=0 dh=0 dv=0 dx=0 dy=0 dh=-100 dv=0
PairPos2: "'kern' Horizontal Kerning in Arabic lookup 0 subtable" afii52305 dx=0 dy=0 dh=0 dv=0 dx=0 dy=0 dh=-100 dv=0
PairPos2: "'kern' Horizontal Kerning in Arabic lookup 0 subtable" afii57567 dx=0 dy=0 dh=0 dv=0 dx=0 dy=0 dh=-100 dv=0
EndChar

StartChar: afii57425
Encoding: 1585 1585 194
Width: 847
GlyphClass: 2
Flags: W
AnchorPoint: "Anchor-3" 255 -840 basechar 0
AnchorPoint: "Anchor-2" 615 885 basechar 0
LayerCount: 2
Fore
SplineSet
817 432 m 0,0,1
 820 393 820 393 820 357 c 0,2,3
 820 85 820 85 661 -105 c 0,4,5
 509 -287 509 -287 242 -363 c 0,6,7
 221 -369 221 -369 196 -369 c 0,8,9
 97 -369 97 -369 97 -279 c 0,10,11
 97 -203 97 -203 188 -163 c 0,12,13
 420 -58 420 -58 505 33 c 0,14,15
 604 139 604 139 604 317 c 0,16,17
 604 336 604 336 601 377 c 0,18,19
 598 417 598 417 598 437 c 0,20,21
 598 601 598 601 697 601 c 0,22,23
 804 601 804 601 817 432 c 0,0,1
EndSplineSet
Substitution2: "'fina' Terminal Forms in Arabic lookup 2 subtable" afii62782
PairPos2: "'kern' Horizontal Kerning in Arabic lookup 0 subtable" afii62831 dx=0 dy=0 dh=0 dv=0 dx=0 dy=0 dh=60 dv=0
PairPos2: "'kern' Horizontal Kerning in Arabic lookup 0 subtable" afii57444 dx=0 dy=0 dh=0 dv=0 dx=0 dy=0 dh=-50 dv=0
PairPos2: "'kern' Horizontal Kerning in Arabic lookup 0 subtable" afii57410 dx=0 dy=0 dh=0 dv=0 dx=0 dy=0 dh=-200 dv=0
PairPos2: "'kern' Horizontal Kerning in Arabic lookup 0 subtable" afii62761 dx=0 dy=0 dh=0 dv=0 dx=0 dy=0 dh=60 dv=0
PairPos2: "'kern' Horizontal Kerning in Arabic lookup 0 subtable" afii57413 dx=0 dy=0 dh=0 dv=0 dx=0 dy=0 dh=70 dv=0
PairPos2: "'kern' Horizontal Kerning in Arabic lookup 0 subtable" afii62965 dx=0 dy=0 dh=0 dv=0 dx=0 dy=0 dh=-200 dv=0
PairPos2: "'kern' Horizontal Kerning in Arabic lookup 0 subtable" afii57509 dx=0 dy=0 dh=0 dv=0 dx=0 dy=0 dh=-200 dv=0
PairPos2: "'kern' Horizontal Kerning in Arabic lookup 0 subtable" afii52305 dx=0 dy=0 dh=0 dv=0 dx=0 dy=0 dh=-200 dv=0
PairPos2: "'kern' Horizontal Kerning in Arabic lookup 0 subtable" afii57567 dx=0 dy=0 dh=0 dv=0 dx=0 dy=0 dh=-200 dv=0
PairPos2: "'kern' Horizontal Kerning in Arabic lookup 0 subtable" afii62956 dx=0 dy=0 dh=0 dv=0 dx=0 dy=0 dh=60 dv=0
EndChar

StartChar: afii62782
Encoding: 65198 65198 195
Width: 1046
GlyphClass: 2
Flags: W
AnchorPoint: "Anchor-3" 330 -915 basechar 0
AnchorPoint: "Anchor-2" 585 825 basechar 0
LayerCount: 2
Fore
SplineSet
1046 0 m 1,0,-1
 1008 0 l 2,1,2
 900 0 900 0 840 70 c 1,3,4
 769 -119 769 -119 622 -247 c 0,5,6
 497 -354 497 -354 288 -442 c 0,7,8
 259 -455 259 -455 230 -455 c 0,9,10
 191 -455 191 -455 163.5 -430.5 c 128,-1,11
 136 -406 136 -406 136 -367 c 0,12,13
 136 -296 136 -296 220 -257 c 0,14,15
 399 -173 399 -173 491 -102 c 0,16,17
 634 8 634 8 667 147 c 0,18,19
 671 160 671 160 671 186 c 0,20,21
 671 263 671 263 639 357 c 0,22,23
 633 373 633 373 633 392 c 0,24,25
 633 434 633 434 661 463 c 128,-1,26
 689 492 689 492 731 495 c 2,27,-1
 738 495 l 2,28,29
 794 495 794 495 831 422 c 0,30,31
 841 402 841 402 854.5 371.5 c 128,-1,32
 868 341 868 341 887 301 c 1,33,34
 937 233 937 233 1045 233 c 2,35,-1
 1046 233 l 1,36,-1
 1046 0 l 1,0,-1
EndSplineSet
PairPos2: "'kern' Horizontal Kerning in Arabic lookup 0 subtable" afii62831 dx=0 dy=0 dh=0 dv=0 dx=0 dy=0 dh=60 dv=0
PairPos2: "'kern' Horizontal Kerning in Arabic lookup 0 subtable" afii57444 dx=0 dy=0 dh=0 dv=0 dx=0 dy=0 dh=-50 dv=0
PairPos2: "'kern' Horizontal Kerning in Arabic lookup 0 subtable" afii57410 dx=0 dy=0 dh=0 dv=0 dx=0 dy=0 dh=-200 dv=0
PairPos2: "'kern' Horizontal Kerning in Arabic lookup 0 subtable" afii57422 dx=0 dy=0 dh=0 dv=0 dx=0 dy=0 dh=60 dv=0
PairPos2: "'kern' Horizontal Kerning in Arabic lookup 0 subtable" afii57421 dx=0 dy=0 dh=0 dv=0 dx=0 dy=0 dh=60 dv=0
PairPos2: "'kern' Horizontal Kerning in Arabic lookup 0 subtable" afii57420 dx=0 dy=0 dh=0 dv=0 dx=0 dy=0 dh=60 dv=0
PairPos2: "'kern' Horizontal Kerning in Arabic lookup 0 subtable" afii62761 dx=0 dy=0 dh=0 dv=0 dx=0 dy=0 dh=60 dv=0
PairPos2: "'kern' Horizontal Kerning in Arabic lookup 0 subtable" afii62965 dx=0 dy=0 dh=0 dv=0 dx=0 dy=0 dh=-200 dv=0
PairPos2: "'kern' Horizontal Kerning in Arabic lookup 0 subtable" afii57509 dx=0 dy=0 dh=0 dv=0 dx=0 dy=0 dh=-200 dv=0
PairPos2: "'kern' Horizontal Kerning in Arabic lookup 0 subtable" afii52305 dx=0 dy=0 dh=0 dv=0 dx=0 dy=0 dh=-200 dv=0
PairPos2: "'kern' Horizontal Kerning in Arabic lookup 0 subtable" afii57567 dx=0 dy=0 dh=0 dv=0 dx=0 dy=0 dh=-200 dv=0
PairPos2: "'kern' Horizontal Kerning in Arabic lookup 0 subtable" afii57507 dx=0 dy=0 dh=0 dv=0 dx=0 dy=0 dh=60 dv=0
PairPos2: "'kern' Horizontal Kerning in Arabic lookup 0 subtable" afii62956 dx=0 dy=0 dh=0 dv=0 dx=0 dy=0 dh=60 dv=0
EndChar

StartChar: afii57427
Encoding: 1587 1587 198
Width: 2050
GlyphClass: 2
Flags: W
AnchorPoint: "Anchor-3" 1245 -855 basechar 0
AnchorPoint: "Anchor-2" 1380 945 basechar 0
LayerCount: 2
Fore
SplineSet
2020 316 m 0,0,1
 2020 186 2020 186 1942 95 c 0,2,3
 1859 0 1859 0 1731 0 c 0,4,5
 1587 0 1587 0 1529 120 c 1,6,7
 1476 0 1476 0 1352 0 c 0,8,9
 1258 0 1258 0 1212 32 c 1,10,11
 1212 -224 1212 -224 1083 -387 c 0,12,13
 931 -579 931 -579 644 -579 c 0,14,15
 389 -579 389 -579 263 -411 c 0,16,17
 164 -279 164 -279 164 -87 c 0,18,19
 164 206 164 206 300 206 c 0,20,21
 374 206 374 206 374 119 c 0,22,23
 374 88 374 88 365 30 c 0,24,25
 356 -29 356 -29 356 -59 c 0,26,27
 356 -198 356 -198 441 -273 c 0,28,29
 522 -345 522 -345 663 -345 c 0,30,31
 836 -345 836 -345 934 -253 c 0,32,33
 1033 -162 1033 -162 1033 10 c 0,34,35
 1033 65 1033 65 992 165 c 0,36,37
 952 263 952 263 952 297 c 0,38,39
 952 399 952 399 1054 399 c 0,40,41
 1094 399 1094 399 1128 356 c 0,42,43
 1154 322 1154 322 1171.5 302.5 c 128,-1,44
 1189 283 1189 283 1197 276 c 0,45,46
 1249 233 1249 233 1336 233 c 0,47,48
 1404 233 1404 233 1427 289 c 0,49,50
 1431 306 1431 306 1437.5 332.5 c 128,-1,51
 1444 359 1444 359 1452 394 c 0,52,53
 1468 451 1468 451 1530 451 c 0,54,55
 1596 451 1596 451 1613 364 c 0,56,57
 1636 233 1636 233 1756 233 c 0,58,59
 1831 233 1831 233 1831 318 c 0,60,61
 1831 341 1831 341 1818 383 c 0,62,63
 1806 426 1806 426 1806 449 c 0,64,65
 1806 466 1806 466 1812.5 482 c 128,-1,66
 1819 498 1819 498 1829.5 510 c 128,-1,67
 1840 522 1840 522 1854.5 529.5 c 128,-1,68
 1869 537 1869 537 1886 537 c 0,69,70
 1960 537 1960 537 1994 458 c 0,71,72
 2020 398 2020 398 2020 316 c 0,0,1
EndSplineSet
Substitution2: "'medi' Medial Forms in Arabic lookup 3 subtable" afii62785
Substitution2: "'fina' Terminal Forms in Arabic lookup 2 subtable" afii62786
Substitution2: "'init' Initial Forms in Arabic lookup 1 subtable" afii62784
EndChar

StartChar: afii62786
Encoding: 65202 65202 199
Width: 2177
GlyphClass: 2
Flags: W
AnchorPoint: "Anchor-3" 1320 -840 basechar 0
AnchorPoint: "Anchor-2" 1530 915 basechar 0
LayerCount: 2
Fore
SplineSet
2177 0 m 1,0,-1
 2149 0 l 2,1,2
 2008 0 2008 0 1947 111 c 1,3,4
 1891 0 1891 0 1740 0 c 0,5,6
 1587 0 1587 0 1529 120 c 1,7,8
 1476 0 1476 0 1352 0 c 0,9,10
 1258 0 1258 0 1212 32 c 1,11,12
 1212 -227 1212 -227 1083 -390 c 0,13,14
 933 -579 933 -579 644 -579 c 0,15,16
 389 -579 389 -579 263 -411 c 0,17,18
 164 -279 164 -279 164 -87 c 0,19,20
 164 206 164 206 300 206 c 0,21,22
 374 206 374 206 374 119 c 0,23,24
 374 88 374 88 365 30 c 0,25,26
 356 -29 356 -29 356 -59 c 0,27,28
 356 -198 356 -198 441 -273 c 0,29,30
 522 -345 522 -345 663 -345 c 0,31,32
 836 -345 836 -345 934 -253 c 0,33,34
 1033 -162 1033 -162 1033 10 c 0,35,36
 1033 65 1033 65 992 165 c 0,37,38
 952 263 952 263 952 297 c 0,39,40
 952 399 952 399 1054 399 c 0,41,42
 1094 399 1094 399 1128 356 c 0,43,44
 1154 322 1154 322 1171.5 302.5 c 128,-1,45
 1189 283 1189 283 1197 276 c 0,46,47
 1249 233 1249 233 1336 233 c 0,48,49
 1428 233 1428 233 1447 351 c 0,50,51
 1463 448 1463 448 1534 448 c 0,52,53
 1606 448 1606 448 1619 351 c 0,54,55
 1635 233 1635 233 1737 233 c 0,56,57
 1846 233 1846 233 1863 353 c 0,58,59
 1876 444 1876 444 1943 444 c 0,60,61
 2016 444 2016 444 2033 345 c 0,62,63
 2043 281 2043 281 2073 256 c 0,64,65
 2104 233 2104 233 2170 233 c 2,66,-1
 2177 233 l 1,67,-1
 2177 0 l 1,0,-1
EndSplineSet
EndChar

StartChar: afii62784
Encoding: 65203 65203 200
Width: 1158
GlyphClass: 2
Flags: W
AnchorPoint: "Anchor-3" 435 -630 basechar 0
AnchorPoint: "Anchor-2" 600 915 basechar 0
LayerCount: 2
Fore
SplineSet
1131 319 m 0,0,1
 1131 187 1131 187 1058 98 c 0,2,3
 980 0 980 0 852 0 c 0,4,5
 789 0 789 0 729 33 c 0,6,7
 664 68 664 68 640 123 c 1,8,9
 616 71 616 71 558 35 c 0,10,11
 500 0 500 0 444 0 c 0,12,13
 289 0 289 0 231 111 c 1,14,15
 169 0 169 0 29 0 c 2,16,-1
 -70 0 l 1,17,-1
 -70 233 l 1,18,-1
 8 233 l 2,19,20
 124 233 124 233 145 355 c 0,21,22
 162 450 162 450 231 450 c 256,23,24
 300 450 300 450 314 355 c 0,25,26
 331 233 331 233 448 233 c 0,27,28
 516 233 516 233 539 290 c 0,29,30
 543 308 543 308 549.5 335 c 128,-1,31
 556 362 556 362 564 397 c 0,32,33
 580 454 580 454 640 454 c 0,34,35
 705 454 705 454 725 367 c 0,36,37
 754 233 754 233 867 233 c 0,38,39
 942 233 942 233 942 321 c 0,40,41
 942 344 942 344 929 386 c 0,42,43
 917 429 917 429 917 452 c 0,44,45
 917 469 917 469 923.5 485 c 128,-1,46
 930 501 930 501 941 513 c 128,-1,47
 952 525 952 525 966.5 532.5 c 128,-1,48
 981 540 981 540 998 540 c 0,49,50
 1070 540 1070 540 1105 460 c 0,51,52
 1131 400 1131 400 1131 319 c 0,0,1
EndSplineSet
EndChar

StartChar: afii62785
Encoding: 65204 65204 201
Width: 1310
GlyphClass: 2
Flags: W
AnchorPoint: "Anchor-3" 630 -645 basechar 0
AnchorPoint: "Anchor-2" 615 885 basechar 0
LayerCount: 2
Fore
SplineSet
1310 0 m 1,0,-1
 1280 0 l 2,1,2
 1136 0 1136 0 1078 111 c 1,3,4
 1022 0 1022 0 871 0 c 0,5,6
 718 0 718 0 660 120 c 1,7,8
 606 0 606 0 466 0 c 0,9,10
 289 0 289 0 231 111 c 1,11,12
 169 0 169 0 29 0 c 2,13,-1
 -70 0 l 1,14,-1
 -70 233 l 1,15,-1
 8 233 l 2,16,17
 130 233 130 233 151 355 c 0,18,19
 168 450 168 450 237 450 c 256,20,21
 306 450 306 450 320 355 c 0,22,23
 337 233 337 233 448 233 c 0,24,25
 558 233 558 233 577 351 c 0,26,27
 593 450 593 450 667 450 c 0,28,29
 736 450 736 450 750 357 c 0,30,31
 766 233 766 233 868 233 c 0,32,33
 979 233 979 233 996 355 c 0,34,35
 1010 450 1010 450 1078 450 c 256,36,37
 1146 450 1146 450 1163 355 c 0,38,39
 1184 233 1184 233 1301 233 c 2,40,-1
 1310 233 l 1,41,-1
 1310 0 l 1,0,-1
EndSplineSet
EndChar

StartChar: afii57429
Encoding: 1589 1589 206
Width: 2139
GlyphClass: 2
Flags: W
AnchorPoint: "Anchor-3" 1245 -825 basechar 0
AnchorPoint: "Anchor-2" 1305 1020 basechar 0
LayerCount: 2
Fore
SplineSet
2109 426 m 0,0,1
 2109 186 2109 186 1872 74 c 0,2,3
 1693 -10 1693 -10 1418 -10 c 0,4,5
 1276 -10 1276 -10 1212 32 c 1,6,7
 1212 -227 1212 -227 1083 -390 c 0,8,9
 933 -579 933 -579 644 -579 c 0,10,11
 389 -579 389 -579 263 -411 c 0,12,13
 164 -279 164 -279 164 -87 c 0,14,15
 164 206 164 206 300 206 c 0,16,17
 374 206 374 206 374 119 c 0,18,19
 374 88 374 88 365 30 c 0,20,21
 356 -29 356 -29 356 -59 c 0,22,23
 356 -198 356 -198 441 -273 c 0,24,25
 522 -345 522 -345 663 -345 c 0,26,27
 836 -345 836 -345 934 -253 c 0,28,29
 1033 -162 1033 -162 1033 10 c 0,30,31
 1033 65 1033 65 992 165 c 0,32,33
 952 263 952 263 952 297 c 0,34,35
 952 399 952 399 1054 399 c 0,36,37
 1093 399 1093 399 1162 316 c 256,38,39
 1231 233 1231 233 1276 233 c 256,40,41
 1321 233 1321 233 1385 336 c 0,42,43
 1610 690 1610 690 1836 690 c 0,44,45
 1956 690 1956 690 2033 618 c 0,46,47
 2109 548 2109 548 2109 426 c 0,0,1
1915 374 m 0,48,49
 1915 469 1915 469 1811 469 c 0,50,51
 1674 469 1674 469 1496 222 c 1,52,53
 1617 222 1617 222 1736 250 c 0,54,55
 1915 291 1915 291 1915 374 c 0,48,49
EndSplineSet
Substitution2: "'medi' Medial Forms in Arabic lookup 3 subtable" afii62791
Substitution2: "'fina' Terminal Forms in Arabic lookup 2 subtable" afii62792
Substitution2: "'init' Initial Forms in Arabic lookup 1 subtable" afii62790
EndChar

StartChar: afii62792
Encoding: 65210 65210 207
Width: 2188
GlyphClass: 2
Flags: W
AnchorPoint: "Anchor-3" 1275 -795 basechar 0
AnchorPoint: "Anchor-2" 1260 960 basechar 0
LayerCount: 2
Fore
SplineSet
2188 0 m 1,0,-1
 2159 0 l 2,1,2
 1996 0 1996 0 1911 94 c 1,3,4
 1729 -10 1729 -10 1418 -10 c 0,5,6
 1276 -10 1276 -10 1212 32 c 1,7,8
 1212 -227 1212 -227 1083 -390 c 0,9,10
 933 -579 933 -579 644 -579 c 0,11,12
 389 -579 389 -579 263 -411 c 0,13,14
 164 -279 164 -279 164 -87 c 0,15,16
 164 206 164 206 300 206 c 0,17,18
 374 206 374 206 374 119 c 0,19,20
 374 88 374 88 365 30 c 0,21,22
 356 -29 356 -29 356 -59 c 0,23,24
 356 -198 356 -198 441 -273 c 0,25,26
 522 -345 522 -345 663 -345 c 0,27,28
 836 -345 836 -345 934 -253 c 0,29,30
 1033 -162 1033 -162 1033 10 c 0,31,32
 1033 65 1033 65 992 165 c 0,33,34
 952 263 952 263 952 297 c 0,35,36
 952 399 952 399 1054 399 c 0,37,38
 1093 399 1093 399 1162 316 c 256,39,40
 1231 233 1231 233 1276 233 c 256,41,42
 1321 233 1321 233 1385 336 c 0,43,44
 1610 690 1610 690 1836 690 c 0,45,46
 1956 690 1956 690 2033 618 c 0,47,48
 2109 548 2109 548 2109 426 c 0,49,50
 2109 339 2109 339 2063 251 c 1,51,52
 2100 233 2100 233 2173 233 c 2,53,-1
 2188 233 l 1,54,-1
 2188 0 l 1,0,-1
1915 374 m 0,55,56
 1915 469 1915 469 1811 469 c 0,57,58
 1674 469 1674 469 1496 222 c 1,59,60
 1617 222 1617 222 1736 250 c 0,61,62
 1915 291 1915 291 1915 374 c 0,55,56
EndSplineSet
EndChar

StartChar: afii62790
Encoding: 65211 65211 208
Width: 1287
GlyphClass: 2
Flags: W
AnchorPoint: "Anchor-3" 435 -600 basechar 0
AnchorPoint: "Anchor-2" 555 1005 basechar 0
LayerCount: 2
Fore
SplineSet
1262 426 m 0,0,1
 1262 185 1262 185 1026 74 c 0,2,3
 847 -10 847 -10 572 -10 c 0,4,5
 447 -10 447 -10 386 4 c 0,6,7
 281 29 281 29 242 109 c 1,8,9
 172 0 172 0 31 0 c 2,10,-1
 -70 0 l 1,11,-1
 -70 233 l 1,12,-1
 9 233 l 2,13,14
 147 233 147 233 173 382 c 0,15,16
 186 458 186 458 251 458 c 0,17,18
 317 458 317 458 329 382 c 0,19,20
 352 233 352 233 430 233 c 0,21,22
 472 233 472 233 538 336 c 0,23,24
 763 690 763 690 990 690 c 0,25,26
 1111 690 1111 690 1186 618 c 0,27,28
 1262 548 1262 548 1262 426 c 0,0,1
1069 374 m 0,29,30
 1069 417 1069 417 1039.5 443 c 128,-1,31
 1010 469 1010 469 965 469 c 0,32,33
 828 469 828 469 650 222 c 1,34,35
 771 222 771 222 890 250 c 0,36,37
 1069 291 1069 291 1069 374 c 0,29,30
EndSplineSet
EndChar

StartChar: afii62791
Encoding: 65212 65212 209
Width: 1342
GlyphClass: 2
Flags: W
AnchorPoint: "Anchor-3" 480 -585 basechar 0
AnchorPoint: "Anchor-2" 540 945 basechar 0
LayerCount: 2
Fore
SplineSet
1342 0 m 1,0,-1
 1312 0 l 2,1,2
 1149 0 1149 0 1065 94 c 1,3,4
 883 -10 883 -10 572 -10 c 0,5,6
 447 -10 447 -10 386 4 c 0,7,8
 279 29 279 29 242 109 c 1,9,10
 172 0 172 0 31 0 c 2,11,-1
 -70 0 l 1,12,-1
 -70 233 l 1,13,-1
 9 233 l 2,14,15
 147 233 147 233 173 382 c 0,16,17
 186 458 186 458 251 458 c 0,18,19
 317 458 317 458 329 382 c 0,20,21
 352 233 352 233 430 233 c 0,22,23
 472 233 472 233 538 336 c 0,24,25
 763 690 763 690 990 690 c 0,26,27
 1111 690 1111 690 1186 618 c 0,28,29
 1262 548 1262 548 1262 426 c 0,30,31
 1262 339 1262 339 1217 251 c 1,32,33
 1254 233 1254 233 1327 233 c 2,34,-1
 1342 233 l 1,35,-1
 1342 0 l 1,0,-1
1069 374 m 0,36,37
 1069 417 1069 417 1039.5 443 c 128,-1,38
 1010 469 1010 469 965 469 c 0,39,40
 828 469 828 469 650 222 c 1,41,42
 771 222 771 222 890 250 c 0,43,44
 1069 291 1069 291 1069 374 c 0,36,37
EndSplineSet
EndChar

StartChar: afii57431
Encoding: 1591 1591 214
Width: 1274
GlyphClass: 2
Flags: W
AnchorPoint: "Anchor-3" 720 -495 basechar 0
AnchorPoint: "Anchor-2" 975 1335 basechar 0
LayerCount: 2
Fore
SplineSet
1248 424 m 0,0,1
 1248 211 1248 211 1053 97 c 0,2,3
 887 0 887 0 637 0 c 2,4,-1
 439 0 l 2,5,6
 164 0 164 0 164 147 c 0,7,8
 164 234 164 234 314 234 c 0,9,10
 415 234 415 234 453 271 c 0,11,12
 506 322 506 322 506 570 c 0,13,14
 506 655 506 655 498.5 783 c 128,-1,15
 491 911 491 911 475 1085 c 0,16,17
 470 1139 470 1139 503 1182 c 0,18,19
 536 1226 536 1226 589 1226 c 0,20,21
 682 1226 682 1226 687 1109 c 2,22,-1
 702 744 l 1,23,24
 702 593 702 593 687 526 c 1,25,26
 831 680 831 680 979 680 c 0,27,28
 1093 680 1093 680 1170 608 c 0,29,30
 1248 537 1248 537 1248 424 c 0,0,1
1059 374 m 0,31,32
 1059 458 1059 458 932 458 c 0,33,34
 850 458 850 458 726 352 c 0,35,36
 713 341 713 341 679.5 309 c 128,-1,37
 646 277 646 277 592 223 c 1,38,39
 827 223 827 223 963 279 c 0,40,41
 1059 319 1059 319 1059 374 c 0,31,32
EndSplineSet
Substitution2: "'medi' Medial Forms in Arabic lookup 3 subtable" afii62797
Substitution2: "'fina' Terminal Forms in Arabic lookup 2 subtable" afii62798
Substitution2: "'init' Initial Forms in Arabic lookup 1 subtable" afii62796
EndChar

StartChar: afii62798
Encoding: 65218 65218 215
Width: 1352
GlyphClass: 2
Flags: W
AnchorPoint: "Anchor-3" 690 -510 basechar 0
AnchorPoint: "Anchor-2" 1005 1185 basechar 0
LayerCount: 2
Fore
SplineSet
1352 0 m 1,0,-1
 1322 0 l 2,1,2
 1247 0 1247 0 1178 25 c 0,3,4
 1092 55 1092 55 1061 107 c 1,5,6
 894 0 894 0 637 0 c 2,7,-1
 439 0 l 2,8,9
 164 0 164 0 164 147 c 0,10,11
 164 234 164 234 314 234 c 0,12,13
 415 234 415 234 453 271 c 0,14,15
 506 322 506 322 506 570 c 0,16,17
 506 655 506 655 498.5 783 c 128,-1,18
 491 911 491 911 475 1085 c 0,19,20
 470 1139 470 1139 503 1182 c 0,21,22
 536 1226 536 1226 589 1226 c 0,23,24
 682 1226 682 1226 687 1109 c 2,25,-1
 702 744 l 1,26,27
 702 593 702 593 687 526 c 1,28,29
 831 680 831 680 979 680 c 0,30,31
 1092 680 1092 680 1169 615 c 0,32,33
 1248 548 1248 548 1248 434 c 0,34,35
 1248 351 1248 351 1201 266 c 1,36,37
 1241 233 1241 233 1336 233 c 2,38,-1
 1352 233 l 1,39,-1
 1352 0 l 1,0,-1
1059 374 m 0,40,41
 1059 458 1059 458 932 458 c 0,42,43
 850 458 850 458 726 352 c 0,44,45
 713 341 713 341 679.5 309 c 128,-1,46
 646 277 646 277 592 223 c 1,47,48
 827 223 827 223 963 279 c 0,49,50
 1059 319 1059 319 1059 374 c 0,40,41
EndSplineSet
EndChar

StartChar: afii62796
Encoding: 65219 65219 216
Width: 962
GlyphClass: 2
Flags: W
AnchorPoint: "Anchor-3" 225 -495 basechar 0
AnchorPoint: "Anchor-2" 645 1260 basechar 0
LayerCount: 2
Fore
SplineSet
931 424 m 0,0,1
 931 269 931 269 806 153 c 0,2,3
 642 0 642 0 320 0 c 2,4,-1
 -70 0 l 1,5,-1
 -70 233 l 1,6,-1
 16 233 l 2,7,8
 105 233 105 233 139 270 c 0,9,10
 189 323 189 323 189 570 c 0,11,12
 189 659 189 659 181.5 787 c 128,-1,13
 174 915 174 915 158 1085 c 0,14,15
 152 1147 152 1147 192 1190 c 0,16,17
 225 1226 225 1226 271 1226 c 0,18,19
 365 1226 365 1226 370 1109 c 2,20,-1
 384 744 l 2,21,22
 384 668 384 668 380.5 614 c 128,-1,23
 377 560 377 560 370 526 c 1,24,25
 512 680 512 680 662 680 c 0,26,27
 775 680 775 680 853 608 c 256,28,29
 931 536 931 536 931 424 c 0,0,1
741 374 m 0,30,31
 741 458 741 458 614 458 c 0,32,33
 534 458 534 458 409 352 c 0,34,35
 393 338 393 338 359.5 306 c 128,-1,36
 326 274 326 274 275 223 c 1,37,38
 414 223 414 223 539 248 c 0,39,40
 741 288 741 288 741 374 c 0,30,31
EndSplineSet
EndChar

StartChar: afii62797
Encoding: 65220 65220 217
Width: 1035
GlyphClass: 2
Flags: W
AnchorPoint: "Anchor-3" 375 -525 basechar 0
AnchorPoint: "Anchor-2" 690 1275 basechar 0
LayerCount: 2
Fore
SplineSet
1035 0 m 1,0,-1
 1005 0 l 2,1,2
 827 0 827 0 744 107 c 1,3,4
 575 0 575 0 320 0 c 2,5,-1
 -70 0 l 1,6,-1
 -70 233 l 1,7,-1
 16 233 l 2,8,9
 105 233 105 233 139 270 c 0,10,11
 189 323 189 323 189 570 c 0,12,13
 189 659 189 659 181.5 787 c 128,-1,14
 174 915 174 915 158 1085 c 0,15,16
 152 1147 152 1147 192 1190 c 0,17,18
 225 1226 225 1226 271 1226 c 0,19,20
 365 1226 365 1226 370 1109 c 2,21,-1
 384 744 l 2,22,23
 384 668 384 668 380.5 614 c 128,-1,24
 377 560 377 560 370 526 c 1,25,26
 512 680 512 680 662 680 c 0,27,28
 774 680 774 680 851 614 c 0,29,30
 931 545 931 545 931 434 c 0,31,32
 931 351 931 351 884 266 c 1,33,34
 923 233 923 233 1019 233 c 2,35,-1
 1035 233 l 1,36,-1
 1035 0 l 1,0,-1
741 374 m 0,37,38
 741 458 741 458 614 458 c 0,39,40
 534 458 534 458 409 352 c 0,41,42
 393 338 393 338 359.5 306 c 128,-1,43
 326 274 326 274 275 223 c 1,44,45
 414 223 414 223 539 248 c 0,46,47
 741 288 741 288 741 374 c 0,37,38
EndSplineSet
EndChar

StartChar: afii57433
Encoding: 1593 1593 222
Width: 1102
GlyphClass: 2
Flags: W
AnchorPoint: "Anchor-3" 600 -1155 basechar 0
AnchorPoint: "Anchor-2" 555 1020 basechar 0
LayerCount: 2
Fore
SplineSet
831 -736 m 0,0,1
 542 -736 542 -736 372 -632 c 0,2,3
 165 -505 165 -505 165 -231 c 0,4,5
 165 33 165 33 421 222 c 1,6,7
 280 321 280 321 280 478 c 0,8,9
 280 629 280 629 385 733 c 0,10,11
 491 838 491 838 643 838 c 0,12,13
 726 838 726 838 810 797 c 0,14,15
 909 747 909 747 909 671 c 0,16,17
 909 587 909 587 839 587 c 0,18,19
 819 587 819 587 746 613 c 0,20,21
 674 639 674 639 630 639 c 0,22,23
 568 639 568 639 524 604 c 0,24,25
 479 566 479 566 479 504 c 0,26,27
 479 373 479 373 684 373 c 0,28,29
 710 373 710 373 805 389 c 2,30,-1
 944 412 l 2,31,32
 948 413 948 413 966 413 c 0,33,34
 1066 413 1066 413 1066 315 c 0,35,36
 1066 226 1066 226 986 211 c 0,37,38
 360 94 360 94 360 -217 c 0,39,40
 360 -375 360 -375 545 -449 c 0,41,42
 678 -502 678 -502 863 -502 c 0,43,44
 917 -502 917 -502 963 -500.5 c 128,-1,45
 1009 -499 1009 -499 1051 -495 c 0,46,47
 1096 -491 1096 -491 1125.5 -516.5 c 128,-1,48
 1155 -542 1155 -542 1155 -587 c 0,49,50
 1155 -676 1155 -676 1061 -706 c 0,51,52
 968 -736 968 -736 831 -736 c 0,0,1
EndSplineSet
Substitution2: "'medi' Medial Forms in Arabic lookup 3 subtable" afii62803
Substitution2: "'fina' Terminal Forms in Arabic lookup 2 subtable" afii62804
Substitution2: "'init' Initial Forms in Arabic lookup 1 subtable" afii62802
EndChar

StartChar: afii62804
Encoding: 65226 65226 223
Width: 1074
GlyphClass: 2
Flags: W
AnchorPoint: "Anchor-3" 645 -1200 basechar 0
AnchorPoint: "Anchor-2" 645 1095 basechar 0
LayerCount: 2
Fore
SplineSet
1074 0 m 1,0,-1
 1041 0 l 2,1,2
 812 0 812 0 632 195 c 1,3,4
 578 161 578 161 532 118.5 c 128,-1,5
 486 76 486 76 447 22 c 0,6,7
 357 -101 357 -101 357 -217 c 0,8,9
 357 -502 357 -502 830 -502 c 0,10,11
 899 -502 899 -502 943 -500.5 c 128,-1,12
 987 -499 987 -499 1008 -497 c 0,13,14
 1013 -496 1013 -496 1018 -496 c 0,15,16
 1024 -496 1024 -496 1032 -496 c 0,17,18
 1145 -496 1145 -496 1145 -595 c 0,19,20
 1145 -690 1145 -690 1009 -721 c 0,21,22
 941 -736 941 -736 796 -736 c 0,23,24
 502 -736 502 -736 348 -635 c 0,25,26
 164 -512 164 -512 164 -231 c 0,27,28
 164 86 164 86 476 334 c 1,29,30
 355 461 355 461 355 550 c 0,31,32
 355 672 355 672 477 735 c 0,33,34
 574 786 574 786 708 786 c 0,35,36
 837 786 837 786 926 744 c 0,37,38
 1043 688 1043 688 1043 575 c 0,39,40
 1043 424 1043 424 819 302 c 1,41,42
 910 233 910 233 1064 233 c 2,43,-1
 1074 233 l 1,44,-1
 1074 0 l 1,0,-1
812 545 m 0,45,46
 812 590 812 590 709 590 c 0,47,48
 582 590 582 590 582 540 c 0,49,50
 582 505 582 505 672 429 c 1,51,52
 812 497 812 497 812 545 c 0,45,46
EndSplineSet
EndChar

StartChar: afii62802
Encoding: 65227 65227 224
Width: 886
GlyphClass: 2
Flags: W
AnchorPoint: "Anchor-3" 375 -540 basechar 0
AnchorPoint: "Anchor-2" 420 1035 basechar 0
LayerCount: 2
Fore
SplineSet
774 92 m 0,0,1
 545 0 545 0 154 0 c 2,2,-1
 -70 0 l 1,3,-1
 -70 233 l 1,4,-1
 170 233 l 1,5,6
 122 344 122 344 122 426 c 0,7,8
 122 529 122 529 207 623 c 0,9,10
 304 732 304 732 448 732 c 0,11,12
 531 732 531 732 614 688 c 0,13,14
 711 636 711 636 711 559 c 256,15,16
 711 482 711 482 647 482 c 0,17,18
 626 482 626 482 563 505 c 256,19,20
 500 528 500 528 464 528 c 0,21,22
 400 528 400 528 356 499 c 0,23,24
 307 465 307 465 307 403 c 0,25,26
 307 333 307 333 362 291 c 0,27,28
 411 252 411 252 484 252 c 0,29,30
 524 252 524 252 581 261 c 128,-1,31
 638 270 638 270 714 287 c 0,32,33
 739 293 739 293 762 293 c 0,34,35
 859 293 859 293 859 208 c 0,36,37
 859 126 859 126 774 92 c 0,0,1
EndSplineSet
EndChar

StartChar: afii62803
Encoding: 65228 65228 225
Width: 890
GlyphClass: 2
Flags: W
AnchorPoint: "Anchor-3" 390 -555 basechar 0
AnchorPoint: "Anchor-2" 420 1050 basechar 0
LayerCount: 2
Fore
SplineSet
890 0 m 1,0,-1
 830 0 l 2,1,2
 728 0 728 0 611 32 c 0,3,4
 480 68 480 68 413 126 c 1,5,6
 338 73 338 73 233 37 c 0,7,8
 125 0 125 0 37 0 c 2,9,-1
 -70 0 l 1,10,-1
 -70 233 l 1,11,-1
 25 233 l 2,12,13
 193 233 193 233 254 279 c 1,14,15
 115 421 115 421 115 535 c 0,16,17
 115 640 115 640 245 701 c 0,18,19
 348 749 348 749 466 749 c 0,20,21
 581 749 581 749 672 703 c 0,22,23
 787 646 787 646 787 542 c 0,24,25
 787 398 787 398 606 278 c 1,26,27
 670 233 670 233 834 233 c 2,28,-1
 890 233 l 1,29,-1
 890 0 l 1,0,-1
564 508 m 0,30,31
 564 560 564 560 444 560 c 0,32,33
 326 560 326 560 326 511 c 0,34,35
 326 482 326 482 371 436 c 0,36,37
 411 393 411 393 442 378 c 1,38,39
 472 391 472 391 513 429 c 0,40,41
 564 475 564 475 564 508 c 0,30,31
EndSplineSet
EndChar

StartChar: afii57443
Encoding: 1603 1603 238
Width: 1437
GlyphClass: 2
Flags: W
AnchorPoint: "Anchor-3" 690 -525 basechar 0
AnchorPoint: "Anchor-2" 735 1140 basechar 0
LayerCount: 2
Fore
SplineSet
675 181 m 1,0,1
 775 182 775 182 860 188.5 c 128,-1,2
 945 195 945 195 1016 209 c 0,3,4
 1213 247 1213 247 1213 319 c 0,5,6
 1213 326 1213 326 1213.5 340 c 128,-1,7
 1214 354 1214 354 1215 374 c 2,8,-1
 1215 387 l 1,9,-1
 1189 1089 l 2,10,11
 1187 1146 1187 1146 1215 1191 c 0,12,13
 1246 1242 1246 1242 1301 1242 c 0,14,15
 1397 1242 1397 1242 1397 1094 c 0,16,17
 1399 728 1399 728 1400.5 536 c 128,-1,18
 1402 344 1402 344 1402 326 c 2,19,-1
 1402 322 l 1,20,21
 1398 -31 1398 -31 675 -54 c 1,22,23
 164 -32 164 -32 164 291 c 0,24,25
 164 379 164 379 190 465 c 0,26,27
 228 584 228 584 296 584 c 0,28,29
 369 584 369 584 369 511 c 0,30,31
 369 498 369 498 366 480 c 128,-1,32
 363 462 363 462 358 437 c 0,33,34
 348 391 348 391 348 364 c 0,35,36
 348 280 348 280 413 239 c 0,37,38
 490 190 490 190 675 181 c 1,0,1
615 586 m 2,39,40
 597 581 597 581 586 581 c 0,41,42
 541 581 541 581 541 619 c 0,43,44
 541 658 541 658 590 677 c 2,45,-1
 647 700 l 1,46,47
 593 749 593 749 593 816 c 0,48,49
 593 893 593 893 647 944 c 256,50,51
 701 995 701 995 779 995 c 0,52,53
 820 995 820 995 858 977 c 0,54,55
 905 954 905 954 905 919 c 0,56,57
 905 883 905 883 871 883 c 0,58,59
 853 883 853 883 822 889 c 0,60,61
 790 895 790 895 773 895 c 0,62,63
 698 895 698 895 698 830 c 0,64,65
 698 757 698 757 812 757 c 0,66,67
 833 757 833 757 877 772 c 0,68,69
 903 780 903 780 919.5 785 c 128,-1,70
 936 790 936 790 944 792 c 0,71,72
 948 793 948 793 962 793 c 0,73,74
 1015 793 1015 793 1015 753 c 0,75,76
 1015 712 1015 712 952 693 c 2,77,-1
 615 586 l 2,39,40
EndSplineSet
Substitution2: "'medi' Medial Forms in Arabic lookup 3 subtable" afii52306
Substitution2: "'fina' Terminal Forms in Arabic lookup 2 subtable" afii62816
Substitution2: "'init' Initial Forms in Arabic lookup 1 subtable" afii52305
EndChar

StartChar: afii62816
Encoding: 65242 65242 239
Width: 1575
GlyphClass: 2
Flags: W
AnchorPoint: "Anchor-3" 720 -540 basechar 0
AnchorPoint: "Anchor-2" 780 1200 basechar 0
LayerCount: 2
Fore
SplineSet
1575 0 m 1,0,-1
 1544 0 l 2,1,2
 1438 0 1438 0 1393 42 c 0,3,4
 1377 57 1377 57 1357.5 79.5 c 128,-1,5
 1338 102 1338 102 1326 130 c 1,6,7
 1167 -39 1167 -39 675 -54 c 1,8,9
 164 -32 164 -32 164 291 c 0,10,11
 164 379 164 379 190 465 c 0,12,13
 228 584 228 584 296 584 c 0,14,15
 369 584 369 584 369 511 c 0,16,17
 369 498 369 498 366 480 c 128,-1,18
 363 462 363 462 358 437 c 0,19,20
 348 391 348 391 348 364 c 0,21,22
 348 280 348 280 413 239 c 0,23,24
 490 190 490 190 675 181 c 1,25,26
 775 182 775 182 860 188.5 c 128,-1,27
 945 195 945 195 1016 209 c 0,28,29
 1213 247 1213 247 1213 319 c 0,30,31
 1213 326 1213 326 1213.5 340 c 128,-1,32
 1214 354 1214 354 1215 374 c 2,33,-1
 1215 387 l 1,34,-1
 1189 1089 l 2,35,36
 1187 1146 1187 1146 1215 1191 c 0,37,38
 1246 1242 1246 1242 1301 1242 c 0,39,40
 1397 1242 1397 1242 1397 1094 c 0,41,42
 1399 883 1399 883 1399.5 733 c 128,-1,43
 1400 583 1400 583 1401 489 c 0,44,45
 1401 233 1401 233 1570 233 c 2,46,-1
 1575 233 l 1,47,-1
 1575 0 l 1,0,-1
615 586 m 2,48,49
 597 581 597 581 586 581 c 0,50,51
 541 581 541 581 541 619 c 0,52,53
 541 658 541 658 590 677 c 2,54,-1
 647 700 l 1,55,56
 593 749 593 749 593 816 c 0,57,58
 593 893 593 893 647 944 c 256,59,60
 701 995 701 995 779 995 c 0,61,62
 820 995 820 995 858 977 c 0,63,64
 905 954 905 954 905 919 c 0,65,66
 905 883 905 883 871 883 c 0,67,68
 853 883 853 883 822 889 c 0,69,70
 790 895 790 895 773 895 c 0,71,72
 698 895 698 895 698 830 c 0,73,74
 698 757 698 757 812 757 c 0,75,76
 833 757 833 757 877 772 c 0,77,78
 903 780 903 780 919.5 785 c 128,-1,79
 936 790 936 790 944 792 c 0,80,81
 948 793 948 793 962 793 c 0,82,83
 1015 793 1015 793 1015 753 c 0,84,85
 1015 712 1015 712 952 693 c 2,86,-1
 615 586 l 2,48,49
EndSplineSet
EndChar

StartChar: afii57444
Encoding: 1604 1604 242
Width: 1140
GlyphClass: 2
Flags: W
AnchorPoint: "Anchor-3" 630 -690 basechar 0
AnchorPoint: "Anchor-2" 765 1350 basechar 0
LayerCount: 2
Fore
SplineSet
1104 380 m 2,0,1
 1104 -236 1104 -236 588 -236 c 0,2,3
 397 -236 397 -236 280 -117 c 0,4,5
 164 2 164 2 164 193 c 0,6,7
 164 302 164 302 193 391 c 0,8,9
 230 502 230 502 298 502 c 0,10,11
 376 502 376 502 376 427 c 0,12,13
 376 393 376 393 364 327 c 256,14,15
 352 261 352 261 352 227 c 0,16,17
 352 116 352 116 430 55 c 0,18,19
 502 -2 502 -2 615 -2 c 0,20,21
 935 -2 935 -2 922 368 c 2,22,-1
 896 1070 l 2,23,24
 894 1127 894 1127 922 1172 c 0,25,26
 953 1223 953 1223 1008 1223 c 0,27,28
 1104 1223 1104 1223 1104 1075 c 2,29,-1
 1104 380 l 2,0,1
EndSplineSet
Substitution2: "'medi' Medial Forms in Arabic lookup 3 subtable" afii62818
Substitution2: "'fina' Terminal Forms in Arabic lookup 2 subtable" afii62819
Substitution2: "'init' Initial Forms in Arabic lookup 1 subtable" afii62817
EndChar

StartChar: afii62817
Encoding: 65247 65247 243
Width: 401
GlyphClass: 2
Flags: W
AnchorPoint: "Anchor-3" 165 -480 basechar 0
AnchorPoint: "Anchor-2" 150 1380 basechar 0
LayerCount: 2
Fore
SplineSet
370 422 m 2,0,1
 370 226 370 226 330 139 c 0,2,3
 267 0 267 0 86 0 c 2,4,-1
 -70 0 l 1,5,-1
 -70 233 l 1,6,-1
 36 233 l 2,7,8
 131 233 131 233 160 271 c 0,9,10
 185 303 185 303 183 401 c 2,11,-1
 167 1098 l 2,12,13
 166 1148 166 1148 192 1185 c 0,14,15
 220 1225 220 1225 271 1225 c 0,16,17
 370 1225 370 1225 370 1103 c 2,18,-1
 370 422 l 2,0,1
EndSplineSet
EndChar

StartChar: afii62818
Encoding: 65248 65248 244
Width: 540
GlyphClass: 2
Flags: W
AnchorPoint: "Anchor-3" 180 -525 basechar 0
AnchorPoint: "Anchor-2" 285 1380 basechar 0
LayerCount: 2
Fore
SplineSet
540 0 m 1,0,-1
 506 0 l 2,1,2
 441 0 441 0 379 32 c 0,3,4
 311 67 311 67 290 124 c 1,5,6
 226 0 226 0 37 0 c 2,7,-1
 -70 0 l 1,8,-1
 -70 233 l 1,9,-1
 36 233 l 2,10,11
 135 233 135 233 165 290 c 0,12,13
 186 329 186 329 183 439 c 2,14,-1
 167 1102 l 2,15,16
 166 1151 166 1151 193 1186 c 0,17,18
 222 1224 222 1224 271 1224 c 0,19,20
 318 1224 318 1224 345 1188 c 0,21,22
 370 1157 370 1157 370 1107 c 2,23,-1
 370 480 l 2,24,25
 370 233 370 233 521 233 c 2,26,-1
 540 233 l 1,27,-1
 540 0 l 1,0,-1
EndSplineSet
EndChar

StartChar: afii57445
Encoding: 1605 1605 245
Width: 932
GlyphClass: 2
Flags: W
AnchorPoint: "Anchor-3" 420 -1020 basechar 0
AnchorPoint: "Anchor-2" 435 870 basechar 0
LayerCount: 2
Fore
SplineSet
575 49 m 2,0,1
 562 49 562 49 488 54.5 c 128,-1,2
 414 60 414 60 363 59 c 0,3,4
 314 59 314 59 299 22 c 0,5,6
 291 0 291 0 291 -46 c 2,7,-1
 291 -60 l 1,8,-1
 301 -624 l 1,9,-1
 301 -629 l 2,10,11
 301 -665 301 -665 280 -692 c 0,12,13
 256 -723 256 -723 217 -723 c 0,14,15
 140 -723 140 -723 135 -634 c 2,16,-1
 105 2 l 2,17,18
 104 9 104 9 104 16 c 256,19,20
 104 23 104 23 104 30 c 0,21,22
 104 248 104 248 345 278 c 1,23,24
 337 318 337 318 337 347 c 0,25,26
 337 461 337 461 418 547 c 0,27,28
 491 625 491 625 589 625 c 0,29,30
 594 625 594 625 600 625 c 256,31,32
 606 625 606 625 612 624 c 0,33,34
 739 613 739 613 817 532 c 0,35,36
 897 449 897 449 897 326 c 0,37,38
 897 185 897 185 804 113 c 0,39,40
 719 49 719 49 581 49 c 2,41,-1
 575 49 l 2,0,1
724 319 m 1,42,-1
 724 329 l 2,43,44
 724 412 724 412 602 426 c 1,45,-1
 592 426 l 2,46,47
 558 426 558 426 533 401 c 0,48,49
 505 373 505 373 505 332 c 0,50,51
 505 259 505 259 628 259 c 0,52,53
 719 259 719 259 724 319 c 1,42,-1
EndSplineSet
Substitution2: "'medi' Medial Forms in Arabic lookup 3 subtable" afii62821
Substitution2: "'fina' Terminal Forms in Arabic lookup 2 subtable" afii62822
Substitution2: "'init' Initial Forms in Arabic lookup 1 subtable" afii62820
EndChar

StartChar: afii62822
Encoding: 65250 65250 246
Width: 1160
GlyphClass: 2
Flags: W
AnchorPoint: "Anchor-3" 645 -960 basechar 0
AnchorPoint: "Anchor-2" 630 780 basechar 0
LayerCount: 2
Fore
SplineSet
1160 0 m 1,0,-1
 1123 0 l 2,1,2
 980 0 980 0 912 68 c 1,3,4
 887 10 887 10 833 -27 c 0,5,6
 781 -64 781 -64 716 -64 c 0,7,8
 577 -64 577 -64 458 82 c 1,9,10
 368 82 368 82 368 -46 c 2,11,-1
 368 -661 l 2,12,13
 368 -739 368 -739 286 -739 c 0,14,15
 208 -739 208 -739 204 -661 c 2,16,-1
 174 -18 l 2,17,18
 173 -12 173 -12 173 -5 c 0,19,20
 173 1 173 1 173 7 c 0,21,22
 173 245 173 245 400 313 c 0,23,24
 427 321 427 321 471 375 c 0,25,26
 499 409 499 409 520 432 c 128,-1,27
 541 455 541 455 556 466 c 0,28,29
 614 512 614 512 688 512 c 0,30,31
 817 512 817 512 951 299 c 0,32,33
 991 233 991 233 1155 233 c 2,34,-1
 1160 233 l 1,35,-1
 1160 0 l 1,0,-1
772 161 m 0,36,37
 782 177 782 177 782 200 c 0,38,39
 782 243 782 243 752 279 c 0,40,41
 724 316 724 316 681 316 c 0,42,43
 648 316 648 316 616 287 c 0,44,45
 585 259 585 259 585 226 c 0,46,47
 585 190 585 190 632 157 c 0,48,49
 676 125 676 125 713 125 c 0,50,51
 752 125 752 125 772 161 c 0,36,37
EndSplineSet
EndChar

StartChar: afii62820
Encoding: 65251 65251 247
Width: 699
GlyphClass: 2
Flags: W
AnchorPoint: "Anchor-3" 240 -600 basechar 0
AnchorPoint: "Anchor-2" 360 885 basechar 0
LayerCount: 2
Fore
SplineSet
676 247 m 0,0,1
 676 136 676 136 617 59 c 0,2,3
 552 -27 552 -27 445 -27 c 0,4,5
 306 -27 306 -27 221 76 c 1,6,7
 145 0 145 0 34 0 c 2,8,-1
 -70 0 l 1,9,-1
 -70 233 l 1,10,-1
 9 233 l 2,11,12
 66 233 66 233 98 250 c 0,13,14
 128 266 128 266 163 316 c 0,15,16
 201 370 201 370 224.5 402 c 128,-1,17
 248 434 248 434 258 445 c 0,18,19
 352 547 352 547 447 547 c 0,20,21
 560 547 560 547 623 450 c 0,22,23
 676 367 676 367 676 247 c 0,0,1
519 239 m 0,24,25
 519 280 519 280 499 312 c 0,26,27
 476 348 476 348 437 348 c 256,28,29
 398 348 398 348 359 312 c 0,30,31
 321 277 321 277 321 239 c 0,32,33
 321 210 321 210 367 186 c 0,34,35
 407 166 407 166 439 166 c 0,36,37
 519 166 519 166 519 239 c 0,24,25
EndSplineSet
EndChar

StartChar: afii57446
Encoding: 1606 1606 248
Width: 1244
GlyphClass: 2
Flags: W
AnchorPoint: "Anchor-3" 735 -690 basechar 0
AnchorPoint: "Anchor-2" 630 1140 basechar 0
LayerCount: 2
Fore
SplineSet
1205 300 m 0,0,1
 1205 57 1205 57 1066 -101 c 0,2,3
 913 -275 913 -275 646 -275 c 0,4,5
 410 -275 410 -275 277 -130 c 0,6,7
 164 -5 164 -5 164 167 c 0,8,9
 164 273 164 273 200 381 c 0,10,11
 246 519 246 519 324 519 c 256,12,13
 402 519 402 519 402 437 c 0,14,15
 402 401 402 401 380 326 c 256,16,17
 358 251 358 251 358 210 c 0,18,19
 358 87 358 87 452 20 c 0,20,21
 534 -41 534 -41 662 -41 c 0,22,23
 817 -41 817 -41 906 34 c 0,24,25
 1001 115 1001 115 1001 268 c 0,26,27
 1001 307 1001 307 978 391 c 256,28,29
 955 475 955 475 955 508 c 0,30,31
 955 620 955 620 1062 620 c 0,32,33
 1137 620 1137 620 1177 490 c 0,34,35
 1205 400 1205 400 1205 300 c 0,0,1
772 812 m 256,36,37
 772 788 772 788 763 767 c 128,-1,38
 754 746 754 746 739 730 c 128,-1,39
 724 714 724 714 703 705 c 128,-1,40
 682 696 682 696 658 696 c 256,41,42
 634 696 634 696 613 705 c 128,-1,43
 592 714 592 714 577 730 c 128,-1,44
 562 746 562 746 553 767 c 128,-1,45
 544 788 544 788 544 812 c 256,46,47
 544 836 544 836 553 857 c 128,-1,48
 562 878 562 878 577 893 c 128,-1,49
 592 908 592 908 613 917 c 128,-1,50
 634 926 634 926 658 926 c 256,51,52
 682 926 682 926 703 917 c 128,-1,53
 724 908 724 908 739 893 c 128,-1,54
 754 878 754 878 763 857 c 128,-1,55
 772 836 772 836 772 812 c 256,36,37
EndSplineSet
Substitution2: "'medi' Medial Forms in Arabic lookup 3 subtable" afii62824
Substitution2: "'fina' Terminal Forms in Arabic lookup 2 subtable" afii62825
Substitution2: "'init' Initial Forms in Arabic lookup 1 subtable" afii62823
EndChar

StartChar: afii62825
Encoding: 65254 65254 249
Width: 1381
GlyphClass: 2
Flags: W
AnchorPoint: "Anchor-3" 615 -1005 basechar 0
AnchorPoint: "Anchor-2" 675 900 basechar 0
LayerCount: 2
Fore
SplineSet
1381 0 m 1,0,-1
 1352 0 l 2,1,2
 1261 0 1261 0 1212 41 c 1,3,4
 1212 -223 1212 -223 1083 -388 c 0,5,6
 934 -579 934 -579 644 -579 c 0,7,8
 389 -579 389 -579 263 -411 c 0,9,10
 164 -279 164 -279 164 -87 c 0,11,12
 164 206 164 206 300 206 c 0,13,14
 374 206 374 206 374 119 c 0,15,16
 374 88 374 88 365 30 c 0,17,18
 356 -29 356 -29 356 -59 c 0,19,20
 356 -198 356 -198 441 -273 c 0,21,22
 522 -345 522 -345 663 -345 c 0,23,24
 836 -345 836 -345 934 -253 c 0,25,26
 1033 -162 1033 -162 1033 10 c 0,27,28
 1033 65 1033 65 992 165 c 0,29,30
 952 263 952 263 952 297 c 0,31,32
 952 399 952 399 1054 399 c 0,33,34
 1093 399 1093 399 1130 356 c 0,35,36
 1186 291 1186 291 1207 276 c 0,37,38
 1268 233 1268 233 1365 233 c 2,39,-1
 1381 233 l 1,40,-1
 1381 0 l 1,0,-1
757 559 m 256,41,42
 757 535 757 535 748 514 c 128,-1,43
 739 493 739 493 723.5 477 c 128,-1,44
 708 461 708 461 687 452 c 128,-1,45
 666 443 666 443 642 443 c 256,46,47
 618 443 618 443 597 452 c 128,-1,48
 576 461 576 461 561 477 c 128,-1,49
 546 493 546 493 537 514 c 128,-1,50
 528 535 528 535 528 559 c 0,51,52
 528 606 528 606 561 639 c 0,53,54
 595 673 595 673 642 673 c 0,55,56
 666 673 666 673 687 664 c 128,-1,57
 708 655 708 655 723.5 640 c 128,-1,58
 739 625 739 625 748 604 c 128,-1,59
 757 583 757 583 757 559 c 256,41,42
EndSplineSet
EndChar

StartChar: afii62828
Encoding: 65258 65258 253
Width: 902
GlyphClass: 2
Flags: W
AnchorPoint: "Anchor-3" 405 -495 basechar 0
AnchorPoint: "Anchor-2" 465 1080 basechar 0
LayerCount: 2
Fore
SplineSet
901 0 m 1,0,-1
 862 0 l 2,1,2
 585 0 585 0 565 257 c 1,3,4
 509 227 509 227 430 227 c 0,5,6
 335 227 335 227 259 267 c 0,7,8
 164 317 164 317 164 402 c 0,9,10
 164 547 164 547 302 642 c 0,11,12
 333 662 333 662 387 697 c 128,-1,13
 441 732 441 732 520 783 c 0,14,15
 538 798 538 798 558.5 823.5 c 128,-1,16
 579 849 579 849 602 884 c 0,17,18
 631 928 631 928 671 928 c 0,19,20
 753 928 753 928 753 811 c 0,21,22
 753 787 753 787 750 751 c 128,-1,23
 747 715 747 715 742 666 c 0,24,25
 737 618 737 618 734.5 582 c 128,-1,26
 732 546 732 546 732 522 c 0,27,28
 732 398 732 398 748 341 c 0,29,30
 778 233 778 233 866 233 c 2,31,-1
 901 233 l 1,32,-1
 901 0 l 1,0,-1
558 608 m 1,33,34
 532 585 532 585 428 527 c 0,35,36
 361 490 361 490 361 454 c 0,37,38
 361 420 361 420 441 420 c 0,39,40
 518 420 518 420 553 439 c 1,41,42
 552 450 552 450 552 461 c 256,43,44
 552 472 552 472 552 484 c 0,45,46
 552 537 552 537 558 608 c 1,33,34
EndSplineSet
EndChar

StartChar: afii57448
Encoding: 1608 1608 254
Width: 836
GlyphClass: 2
Flags: W
AnchorPoint: "Anchor-3" 285 -840 basechar 0
AnchorPoint: "Anchor-2" 435 885 basechar 0
LayerCount: 2
Fore
SplineSet
802 275 m 0,0,1
 802 44 802 44 637 -146 c 0,2,3
 488 -317 488 -317 259 -407 c 0,4,5
 235 -417 235 -417 207 -417 c 0,6,7
 186 -417 186 -417 168 -410 c 128,-1,8
 150 -403 150 -403 136.5 -390.5 c 128,-1,9
 123 -378 123 -378 115 -361 c 128,-1,10
 107 -344 107 -344 107 -324 c 0,11,12
 107 -261 107 -261 179 -229 c 0,13,14
 312 -170 312 -170 425 -78 c 0,15,16
 562 35 562 35 602 145 c 1,17,18
 554 122 554 122 489 122 c 0,19,20
 377 122 377 122 315.5 185 c 128,-1,21
 254 248 254 248 254 360 c 256,22,23
 254 472 254 472 323 573 c 0,24,25
 400 683 400 683 502 683 c 0,26,27
 653 683 653 683 734 548 c 0,28,29
 802 435 802 435 802 275 c 0,0,1
604 341 m 1,30,31
 599 389 599 389 574 425 c 0,32,33
 544 466 544 466 499 466 c 0,34,35
 466 466 466 466 442 443.5 c 128,-1,36
 418 421 418 421 418 388 c 0,37,38
 418 322 418 322 505 322 c 0,39,40
 570 322 570 322 604 341 c 1,30,31
EndSplineSet
Substitution2: "'fina' Terminal Forms in Arabic lookup 2 subtable" afii62829
PairPos2: "'kern' Horizontal Kerning in Arabic lookup 0 subtable" afii62831 dx=0 dy=0 dh=0 dv=0 dx=0 dy=0 dh=40 dv=0
PairPos2: "'kern' Horizontal Kerning in Arabic lookup 0 subtable" afii57410 dx=0 dy=0 dh=0 dv=0 dx=0 dy=0 dh=-100 dv=0
PairPos2: "'kern' Horizontal Kerning in Arabic lookup 0 subtable" afii62761 dx=0 dy=0 dh=0 dv=0 dx=0 dy=0 dh=40 dv=0
PairPos2: "'kern' Horizontal Kerning in Arabic lookup 0 subtable" afii62965 dx=0 dy=0 dh=0 dv=0 dx=0 dy=0 dh=-100 dv=0
PairPos2: "'kern' Horizontal Kerning in Arabic lookup 0 subtable" afii57509 dx=0 dy=0 dh=0 dv=0 dx=0 dy=0 dh=-100 dv=0
PairPos2: "'kern' Horizontal Kerning in Arabic lookup 0 subtable" afii52305 dx=0 dy=0 dh=0 dv=0 dx=0 dy=0 dh=-100 dv=0
PairPos2: "'kern' Horizontal Kerning in Arabic lookup 0 subtable" afii57567 dx=0 dy=0 dh=0 dv=0 dx=0 dy=0 dh=-100 dv=0
PairPos2: "'kern' Horizontal Kerning in Arabic lookup 0 subtable" afii62956 dx=0 dy=0 dh=0 dv=0 dx=0 dy=0 dh=40 dv=0
EndChar

StartChar: afii62829
Encoding: 65262 65262 255
Width: 923
GlyphClass: 2
Flags: W
AnchorPoint: "Anchor-3" 360 -960 basechar 0
AnchorPoint: "Anchor-2" 495 840 basechar 0
LayerCount: 2
Fore
SplineSet
923 0 m 1,0,-1
 789 0 l 1,1,2
 688 -341 688 -341 262 -507 c 0,3,4
 238 -517 238 -517 212 -517 c 0,5,6
 172 -517 172 -517 146 -491 c 128,-1,7
 120 -465 120 -465 120 -425 c 0,8,9
 120 -355 120 -355 196 -321 c 0,10,11
 510 -181 510 -181 597 4 c 1,12,13
 435 4 435 4 362 42 c 0,14,15
 263 94 263 94 263 239 c 0,16,17
 263 352 263 352 331 455 c 0,18,19
 406 567 406 567 508 567 c 0,20,21
 632 567 632 567 715 459 c 0,22,23
 788 365 788 365 800 233 c 1,24,-1
 923 233 l 1,25,-1
 923 0 l 1,0,-1
604 219 m 1,26,27
 601 270 601 270 573 311 c 0,28,29
 542 360 542 360 494 360 c 0,30,31
 465 360 465 360 444 339.5 c 128,-1,32
 423 319 423 319 423 290 c 0,33,34
 423 237 423 237 495 224 c 0,35,36
 509 222 509 222 536 220.5 c 128,-1,37
 563 219 563 219 604 219 c 1,26,27
EndSplineSet
PairPos2: "'kern' Horizontal Kerning in Arabic lookup 0 subtable" afii57410 dx=0 dy=0 dh=0 dv=0 dx=0 dy=0 dh=-100 dv=0
PairPos2: "'kern' Horizontal Kerning in Arabic lookup 0 subtable" afii57434 dx=0 dy=0 dh=0 dv=0 dx=0 dy=0 dh=60 dv=0
PairPos2: "'kern' Horizontal Kerning in Arabic lookup 0 subtable" afii57433 dx=0 dy=0 dh=0 dv=0 dx=0 dy=0 dh=60 dv=0
PairPos2: "'kern' Horizontal Kerning in Arabic lookup 0 subtable" afii57422 dx=0 dy=0 dh=0 dv=0 dx=0 dy=0 dh=80 dv=0
PairPos2: "'kern' Horizontal Kerning in Arabic lookup 0 subtable" afii57421 dx=0 dy=0 dh=0 dv=0 dx=0 dy=0 dh=80 dv=0
PairPos2: "'kern' Horizontal Kerning in Arabic lookup 0 subtable" afii57420 dx=0 dy=0 dh=0 dv=0 dx=0 dy=0 dh=80 dv=0
PairPos2: "'kern' Horizontal Kerning in Arabic lookup 0 subtable" afii57413 dx=0 dy=0 dh=0 dv=0 dx=0 dy=0 dh=50 dv=0
PairPos2: "'kern' Horizontal Kerning in Arabic lookup 0 subtable" afii62965 dx=0 dy=0 dh=0 dv=0 dx=0 dy=0 dh=-100 dv=0
PairPos2: "'kern' Horizontal Kerning in Arabic lookup 0 subtable" afii57509 dx=0 dy=0 dh=0 dv=0 dx=0 dy=0 dh=-100 dv=0
PairPos2: "'kern' Horizontal Kerning in Arabic lookup 0 subtable" afii52305 dx=0 dy=0 dh=0 dv=0 dx=0 dy=0 dh=-100 dv=0
PairPos2: "'kern' Horizontal Kerning in Arabic lookup 0 subtable" afii57567 dx=0 dy=0 dh=0 dv=0 dx=0 dy=0 dh=-100 dv=0
PairPos2: "'kern' Horizontal Kerning in Arabic lookup 0 subtable" afii57507 dx=0 dy=0 dh=0 dv=0 dx=0 dy=0 dh=80 dv=0
EndChar

StartChar: afii62840
Encoding: 65275 65275 268
Width: 979
GlyphClass: 3
Flags: W
AnchorPoint: "Anchor-1" 765 -450 baselig 0
AnchorPoint: "Anchor-0" 855 1350 baselig 0
AnchorPoint: "Anchor-1" 315 -465 baselig 1
AnchorPoint: "Anchor-0" 240 1305 baselig 1
LayerCount: 2
Fore
SplineSet
515 187 m 1,0,1
 638 221 638 221 688 289 c 0,2,3
 745 367 745 367 745 535 c 0,4,5
 745 561 745 561 743.5 595 c 128,-1,6
 742 629 742 629 738 671 c 2,7,-1
 704 1072 l 2,8,9
 699 1130 699 1130 723 1173 c 0,10,11
 751 1225 751 1225 806 1225 c 0,12,13
 906 1225 906 1225 913 1089 c 2,14,-1
 939 642 l 2,15,16
 942 589 942 589 942 561 c 0,17,18
 942 -48 942 -48 344 -48 c 0,19,20
 168 -48 168 -48 168 57 c 0,21,22
 168 129 168 129 312 158 c 0,23,24
 320 160 320 160 370.5 167 c 128,-1,25
 421 174 421 174 515 187 c 1,0,1
375 445 m 0,26,27
 375 746 375 746 222 1009 c 0,28,29
 201 1045 201 1045 201 1085 c 0,30,31
 201 1130 201 1130 228 1161.5 c 128,-1,32
 255 1193 255 1193 300 1193 c 0,33,34
 430 1193 430 1193 505 900 c 0,35,36
 558 690 558 690 558 505 c 0,37,38
 558 396 558 396 540 297 c 0,39,40
 525 213 525 213 443 213 c 0,41,42
 366 213 366 213 366 290 c 0,43,44
 366 303 366 303 367 322 c 128,-1,45
 368 341 368 341 370 367 c 256,46,47
 372 393 372 393 373.5 412.5 c 128,-1,48
 375 432 375 432 375 445 c 0,26,27
EndSplineSet
Ligature2: "'rlig' Required Ligatures in Arabic lookup 6 subtable" afii62817 afii62760
Substitution2: "'fina' Terminal Forms in Arabic lookup 2 subtable" afii62841
PairPos2: "'kern' Horizontal Kerning in Arabic lookup 0 subtable" afii57445 dx=0 dy=0 dh=0 dv=0 dx=0 dy=0 dh=-70 dv=0
EndChar

StartChar: afii62841
Encoding: 65276 65276 269
Width: 1134
GlyphClass: 3
Flags: W
AnchorPoint: "Anchor-1" 930 -480 baselig 0
AnchorPoint: "Anchor-0" 750 1350 baselig 0
AnchorPoint: "Anchor-1" 435 -510 baselig 1
AnchorPoint: "Anchor-0" 195 1335 baselig 1
LayerCount: 2
Fore
SplineSet
519 189 m 0,0,1
 647 216 647 216 703 312 c 0,2,3
 745 385 745 385 745 536 c 0,4,5
 745 562 745 562 743.5 595.5 c 128,-1,6
 742 629 742 629 738 671 c 2,7,-1
 704 1072 l 2,8,9
 699 1130 699 1130 723 1173 c 0,10,11
 751 1225 751 1225 806 1225 c 0,12,13
 906 1225 906 1225 913 1089 c 2,14,-1
 939 642 l 2,15,16
 951 427 951 427 982 343 c 0,17,18
 1023 233 1023 233 1124 233 c 2,19,-1
 1134 233 l 1,20,-1
 1134 0 l 1,21,-1
 1099 0 l 2,22,23
 1011 0 1011 0 943 50 c 0,24,25
 876 99 876 99 853 184 c 1,26,27
 747 -48 747 -48 335 -48 c 0,28,29
 168 -48 168 -48 168 61 c 0,30,31
 168 131 168 131 275 149 c 0,32,33
 309 154 309 154 370 163.5 c 128,-1,34
 431 173 431 173 519 189 c 0,0,1
375 445 m 0,35,36
 375 746 375 746 222 1009 c 0,37,38
 201 1045 201 1045 201 1085 c 0,39,40
 201 1130 201 1130 228 1161.5 c 128,-1,41
 255 1193 255 1193 300 1193 c 0,42,43
 430 1193 430 1193 505 900 c 0,44,45
 558 690 558 690 558 505 c 0,46,47
 558 396 558 396 540 297 c 0,48,49
 525 213 525 213 443 213 c 0,50,51
 366 213 366 213 366 290 c 0,52,53
 366 303 366 303 367 322 c 128,-1,54
 368 341 368 341 370 367 c 256,55,56
 372 393 372 393 373.5 412.5 c 128,-1,57
 375 432 375 432 375 445 c 0,35,36
EndSplineSet
Ligature2: "'rlig' Required Ligatures in Arabic lookup 6 subtable" afii62818 afii62760
PairPos2: "'kern' Horizontal Kerning in Arabic lookup 0 subtable" afii57422 dx=0 dy=0 dh=0 dv=0 dx=0 dy=0 dh=100 dv=0
PairPos2: "'kern' Horizontal Kerning in Arabic lookup 0 subtable" afii57421 dx=0 dy=0 dh=0 dv=0 dx=0 dy=0 dh=100 dv=0
PairPos2: "'kern' Horizontal Kerning in Arabic lookup 0 subtable" afii57420 dx=0 dy=0 dh=0 dv=0 dx=0 dy=0 dh=100 dv=0
PairPos2: "'kern' Horizontal Kerning in Arabic lookup 0 subtable" afii57507 dx=0 dy=0 dh=0 dv=0 dx=0 dy=0 dh=100 dv=0
EndChar

StartChar: afii59759
Encoding: 3663 3663 276
Width: 1233
GlyphClass: 2
Flags: W
LayerCount: 2
Fore
SplineSet
616 983 m 0,0,1
 823 983 823 983 969.5 836.5 c 128,-1,2
 1116 690 1116 690 1116 483 c 0,3,4
 1116 277 1116 277 969.5 130.5 c 128,-1,5
 823 -16 823 -16 616 -16 c 0,6,7
 410 -16 410 -16 263.5 130.5 c 128,-1,8
 117 277 117 277 117 483 c 0,9,10
 117 690 117 690 263.5 836.5 c 128,-1,11
 410 983 410 983 616 983 c 0,0,1
616 147 m 0,12,13
 758 147 758 147 849 242 c 128,-1,14
 940 337 940 337 940 483 c 256,15,16
 940 629 940 629 849 724 c 128,-1,17
 758 819 758 819 616 819 c 0,18,19
 475 819 475 819 384 724 c 128,-1,20
 293 629 293 629 293 483 c 256,21,22
 293 337 293 337 384 242 c 128,-1,23
 475 147 475 147 616 147 c 0,12,13
616 598 m 0,24,25
 664 598 664 598 697.5 565 c 128,-1,26
 731 532 731 532 731 485 c 256,27,28
 731 438 731 438 697.5 404.5 c 128,-1,29
 664 371 664 371 616 371 c 0,30,31
 569 371 569 371 535.5 404.5 c 128,-1,32
 502 438 502 438 502 485 c 256,33,34
 502 532 502 532 535.5 565 c 128,-1,35
 569 598 569 598 616 598 c 0,24,25
EndSplineSet
EndChar

StartChar: afii59760
Encoding: 3664 3664 277
Width: 1233
GlyphClass: 2
Flags: W
LayerCount: 2
Fore
SplineSet
616 924 m 0,0,1
 834 924 834 924 975 794.5 c 128,-1,2
 1116 665 1116 665 1116 453 c 0,3,4
 1116 242 1116 242 975 113 c 128,-1,5
 834 -16 834 -16 616 -16 c 0,6,7
 399 -16 399 -16 258 113 c 128,-1,8
 117 242 117 242 117 453 c 0,9,10
 117 665 117 665 258 794.5 c 128,-1,11
 399 924 399 924 616 924 c 0,0,1
616 150 m 0,12,13
 765 150 765 150 852.5 231 c 128,-1,14
 940 312 940 312 940 453 c 256,15,16
 940 594 940 594 852 677 c 128,-1,17
 764 760 764 760 616 760 c 0,18,19
 469 760 469 760 381 677 c 128,-1,20
 293 594 293 594 293 453 c 0,21,22
 293 310 293 310 381.5 230 c 128,-1,23
 470 150 470 150 616 150 c 0,12,13
EndSplineSet
EndChar

StartChar: glyph279
Encoding: 65559 -1 279
Width: 0
GlyphClass: 2
Flags: W
LayerCount: 2
Fore
SplineSet
36 1831 m 1,0,-1
 36 863 l 1,1,-1
 -36 863 l 1,2,-1
 -36 1831 l 1,3,-1
 36 1831 l 1,0,-1
36 543 m 1,4,-1
 36 -423 l 1,5,-1
 -36 -423 l 1,6,-1
 -36 543 l 1,7,-1
 36 543 l 1,4,-1
EndSplineSet
EndChar

StartChar: glyph280
Encoding: 65560 -1 280
Width: 0
GlyphClass: 2
Flags: W
LayerCount: 2
Fore
SplineSet
-234 -423 m 1,0,-1
 -234 -352 l 1,1,-1
 -36 -352 l 1,2,-1
 -36 1760 l 1,3,-1
 -234 1760 l 1,4,-1
 -234 1831 l 1,5,-1
 234 1831 l 1,6,-1
 234 1760 l 1,7,-1
 36 1760 l 1,8,-1
 36 -352 l 1,9,-1
 234 -352 l 1,10,-1
 234 -423 l 1,11,-1
 -234 -423 l 1,0,-1
EndSplineSet
EndChar

StartChar: glyph281
Encoding: 65561 -1 281
Width: 0
GlyphClass: 2
Flags: W
LayerCount: 2
Fore
SplineSet
224 1646 m 1,0,-1
 36 1504 l 1,1,-1
 36 -423 l 1,2,-1
 -36 -423 l 1,3,-1
 -36 1831 l 1,4,-1
 224 1646 l 1,0,-1
EndSplineSet
EndChar

StartChar: glyph282
Encoding: 65562 -1 282
Width: 0
GlyphClass: 2
Flags: W
LayerCount: 2
Fore
SplineSet
36 1831 m 1,0,-1
 36 -423 l 1,1,-1
 -36 -423 l 1,2,-1
 -36 1504 l 1,3,-1
 -224 1646 l 1,4,-1
 36 1831 l 1,0,-1
EndSplineSet
EndChar

StartChar: glyph283
Encoding: 65563 -1 283
Width: 0
GlyphClass: 2
Flags: W
LayerCount: 2
Fore
SplineSet
36 1831 m 1,0,-1
 36 -352 l 1,1,-1
 234 -352 l 1,2,-1
 234 -423 l 1,3,-1
 -36 -423 l 1,4,-1
 -36 1831 l 1,5,-1
 36 1831 l 1,0,-1
EndSplineSet
EndChar

StartChar: glyph284
Encoding: 65564 -1 284
Width: 0
GlyphClass: 2
Flags: W
LayerCount: 2
Fore
SplineSet
224 1646 m 1,0,-1
 36 1504 l 1,1,-1
 36 -423 l 1,2,-1
 -36 -423 l 1,3,-1
 -36 1504 l 1,4,-1
 -224 1641 l 1,5,-1
 0 1831 l 1,6,-1
 224 1646 l 1,0,-1
EndSplineSet
EndChar

StartChar: uni0670
Encoding: 1648 1648 297
Width: 0
GlyphClass: 4
Flags: W
AnchorPoint: "Anchor-2" 0 0 mark 0
AnchorPoint: "Anchor-0" 0 0 mark 0
LayerCount: 2
Fore
SplineSet
41 47 m 2,0,1
 41 3 41 3 12 3 c 0,2,3
 -26 3 -26 3 -30 46 c 2,4,-1
 -47 292 l 1,5,6
 -55 348 -55 348 5 348 c 0,7,8
 42 348 42 348 42 298 c 2,9,-1
 41 47 l 2,0,1
EndSplineSet
EndChar

StartChar: glyph298
Encoding: 65565 -1 298
Width: 590
GlyphClass: 2
Flags: W
LayerCount: 2
Fore
SplineSet
554 1362 m 0,0,1
 554 1280 554 1280 488 1237 c 0,2,3
 431 1201 431 1201 345 1201 c 0,4,5
 330 1201 330 1201 307.5 1203 c 128,-1,6
 285 1205 285 1205 254 1209 c 0,7,8
 194 1218 194 1218 164 1218 c 0,9,10
 144 1218 144 1218 110 1203 c 0,11,12
 74 1189 74 1189 57 1189 c 0,13,14
 16 1189 16 1189 16 1235 c 0,15,16
 16 1277 16 1277 67 1301 c 0,17,18
 106 1320 106 1320 155 1320 c 0,19,20
 179 1320 179 1320 199 1316 c 1,21,22
 297 1483 297 1483 439 1483 c 0,23,24
 554 1483 554 1483 554 1362 c 0,0,1
485 1351 m 0,25,26
 485 1388 485 1388 412 1388 c 0,27,28
 338 1388 338 1388 276 1308 c 1,29,30
 294 1306 294 1306 312.5 1305 c 128,-1,31
 331 1304 331 1304 351 1304 c 0,32,33
 485 1304 485 1304 485 1351 c 0,25,26
EndSplineSet
EndChar

StartChar: glyph299
Encoding: 65566 -1 299
Width: 1274
GlyphClass: 2
Flags: W
LayerCount: 2
Fore
SplineSet
1240 176 m 0,0,1
 1240 -108 1240 -108 1081 -265 c 0,2,3
 923 -424 923 -424 640 -424 c 0,4,5
 405 -424 405 -424 275 -273 c 0,6,7
 164 -146 164 -146 164 39 c 0,8,9
 164 139 164 139 189 223 c 0,10,11
 223 343 223 343 294 343 c 0,12,13
 371 343 371 343 371 260 c 0,14,15
 371 230 371 230 359 172 c 0,16,17
 354 143 354 143 351 121 c 128,-1,18
 348 99 348 99 348 84 c 0,19,20
 348 -51 348 -51 438 -124 c 0,21,22
 521 -191 521 -191 659 -191 c 0,23,24
 833 -191 833 -191 943 -123 c 0,25,26
 1078 -40 1078 -40 1067 124 c 1,27,28
 1013 61 1013 61 905 61 c 0,29,30
 678 61 678 61 678 268 c 0,31,32
 678 391 678 391 740 504 c 0,33,34
 816 643 816 643 940 643 c 0,35,36
 1087 643 1087 643 1172 474 c 0,37,38
 1240 336 1240 336 1240 176 c 0,0,1
1029 314 m 1,39,40
 1009 428 1009 428 931 428 c 0,41,42
 913 428 913 428 896.5 420.5 c 128,-1,43
 880 413 880 413 867.5 400.5 c 128,-1,44
 855 388 855 388 847.5 371.5 c 128,-1,45
 840 355 840 355 840 337 c 0,46,47
 840 263 840 263 929 263 c 0,48,49
 1008 263 1008 263 1029 314 c 1,39,40
EndSplineSet
EndChar

StartChar: uni06DD
Encoding: 1757 1757 388
Width: 2300
GlyphClass: 2
Flags: W
LayerCount: 2
Fore
SplineSet
2250 715 m 256,0,1
 2250 469 2250 469 2146 249 c 0,2,3
 2046 35 2046 35 1867 -119 c 1,4,5
 1870 -133 1870 -133 1870 -148 c 0,6,7
 1870 -203 1870 -203 1831 -241.5 c 128,-1,8
 1792 -280 1792 -280 1737 -280 c 0,9,10
 1697 -280 1697 -280 1664 -258 c 1,11,12
 1424 -385 1424 -385 1149 -385 c 0,13,14
 876 -385 876 -385 636 -258 c 1,15,16
 603 -280 603 -280 563 -280 c 0,17,18
 508 -280 508 -280 469 -241.5 c 128,-1,19
 430 -203 430 -203 430 -148 c 0,20,21
 430 -133 430 -133 433 -119 c 1,22,23
 254 35 254 35 154 249 c 0,24,25
 50 469 50 469 50 715 c 256,26,27
 50 961 50 961 154 1181 c 0,28,29
 254 1394 254 1394 433 1548 c 1,30,31
 430 1562 430 1562 430 1577 c 0,32,33
 430 1632 430 1632 469 1670.5 c 128,-1,34
 508 1709 508 1709 563 1709 c 0,35,36
 603 1709 603 1709 636 1687 c 1,37,38
 876 1814 876 1814 1151 1814 c 0,39,40
 1424 1814 1424 1814 1664 1687 c 1,41,42
 1697 1709 1697 1709 1737 1709 c 0,43,44
 1792 1709 1792 1709 1831 1670.5 c 128,-1,45
 1870 1632 1870 1632 1870 1577 c 0,46,47
 1870 1562 1870 1562 1867 1548 c 1,48,49
 2046 1394 2046 1394 2146 1181 c 0,50,51
 2250 961 2250 961 2250 715 c 256,0,1
1816 1576 m 0,52,53
 1816 1609 1816 1609 1793 1632 c 128,-1,54
 1770 1655 1770 1655 1738 1655 c 256,55,56
 1706 1655 1706 1655 1682.5 1631.5 c 128,-1,57
 1659 1608 1659 1608 1659 1576 c 256,58,59
 1659 1544 1659 1544 1682 1521 c 128,-1,60
 1705 1498 1705 1498 1738 1498 c 0,61,62
 1770 1498 1770 1498 1793 1521 c 128,-1,63
 1816 1544 1816 1544 1816 1576 c 0,52,53
1602 1595 m 1,64,65
 1390 1704 1390 1704 1151 1704 c 0,66,67
 910 1704 910 1704 698 1595 c 1,68,-1
 1602 1595 l 1,64,65
641 1576 m 256,69,70
 641 1608 641 1608 617.5 1631.5 c 128,-1,71
 594 1655 594 1655 562 1655 c 256,72,73
 530 1655 530 1655 507 1632 c 128,-1,74
 484 1609 484 1609 484 1576 c 0,75,76
 484 1544 484 1544 507 1521 c 128,-1,77
 530 1498 530 1498 562 1498 c 0,78,79
 595 1498 595 1498 618 1521 c 128,-1,80
 641 1544 641 1544 641 1576 c 256,69,70
2140 714 m 0,81,82
 2140 933 2140 933 2048 1131 c 0,83,84
 1960 1321 1960 1321 1801 1460 c 1,85,86
 1772 1444 1772 1444 1737 1444 c 0,87,88
 1681 1444 1681 1444 1642 1485 c 1,89,-1
 658 1485 l 1,90,91
 619 1444 619 1444 563 1444 c 0,92,93
 528 1444 528 1444 499 1460 c 1,94,95
 340 1321 340 1321 252 1131 c 0,96,97
 160 933 160 933 160 714 c 0,98,99
 160 265 160 265 499 -31 c 1,100,101
 528 -15 528 -15 563 -15 c 0,102,103
 619 -15 619 -15 658 -56 c 1,104,-1
 1642 -56 l 1,105,106
 1681 -15 1681 -15 1737 -15 c 0,107,108
 1772 -15 1772 -15 1801 -31 c 1,109,110
 2140 265 2140 265 2140 714 c 0,81,82
1816 -147 m 0,111,112
 1816 -115 1816 -115 1793 -92 c 128,-1,113
 1770 -69 1770 -69 1738 -69 c 0,114,115
 1705 -69 1705 -69 1682 -92 c 128,-1,116
 1659 -115 1659 -115 1659 -147 c 256,117,118
 1659 -179 1659 -179 1682.5 -202.5 c 128,-1,119
 1706 -226 1706 -226 1738 -226 c 256,120,121
 1770 -226 1770 -226 1793 -203 c 128,-1,122
 1816 -180 1816 -180 1816 -147 c 0,111,112
1602 -166 m 1,123,-1
 698 -166 l 1,124,125
 910 -275 910 -275 1151 -275 c 0,126,127
 1390 -275 1390 -275 1602 -166 c 1,123,-1
641 -147 m 256,128,129
 641 -115 641 -115 618 -92 c 128,-1,130
 595 -69 595 -69 562 -69 c 0,131,132
 530 -69 530 -69 507 -92 c 128,-1,133
 484 -115 484 -115 484 -147 c 0,134,135
 484 -180 484 -180 507 -203 c 128,-1,136
 530 -226 530 -226 562 -226 c 256,137,138
 594 -226 594 -226 617.5 -202.5 c 128,-1,139
 641 -179 641 -179 641 -147 c 256,128,129
EndSplineSet
EndChar

StartChar: uni06DE
Encoding: 1758 1758 389
Width: 2221
GlyphClass: 2
Flags: W
LayerCount: 2
Fore
SplineSet
2171 750 m 1,0,-1
 1861 439 l 1,1,-1
 1861 0 l 1,2,-1
 1421 0 l 1,3,-1
 1111 -311 l 1,4,-1
 800 0 l 1,5,-1
 361 0 l 1,6,-1
 361 439 l 1,7,-1
 50 750 l 1,8,-1
 361 1061 l 1,9,-1
 361 1500 l 1,10,-1
 800 1500 l 1,11,-1
 1111 1811 l 1,12,-1
 1421 1500 l 1,13,-1
 1861 1500 l 1,14,-1
 1861 1061 l 1,15,-1
 2171 750 l 1,0,-1
436 364 m 1,16,-1
 436 75 l 1,17,-1
 725 75 l 1,18,-1
 436 364 l 1,16,-1
725 1425 m 1,19,-1
 436 1425 l 1,20,-1
 436 1136 l 1,21,-1
 725 1425 l 1,19,-1
1786 1136 m 1,22,-1
 1786 1425 l 1,23,-1
 1496 1425 l 1,24,-1
 1786 1136 l 1,22,-1
1786 75 m 1,25,-1
 1786 364 l 1,26,-1
 1496 75 l 1,27,-1
 1786 75 l 1,25,-1
906 0 m 1,28,-1
 1111 -205 l 1,29,-1
 1315 0 l 1,30,-1
 906 0 l 1,28,-1
361 955 m 1,31,-1
 156 750 l 1,32,-1
 361 545 l 1,33,-1
 361 955 l 1,31,-1
1315 1500 m 1,34,-1
 1111 1705 l 1,35,-1
 906 1500 l 1,36,-1
 1315 1500 l 1,34,-1
1786 1030 m 1,37,-1
 1390 1425 l 1,38,-1
 831 1425 l 1,39,-1
 436 1030 l 1,40,-1
 436 470 l 1,41,-1
 831 75 l 1,42,-1
 1390 75 l 1,43,-1
 1786 470 l 1,44,-1
 1786 1030 l 1,37,-1
2065 750 m 1,45,-1
 1861 955 l 1,46,-1
 1861 545 l 1,47,-1
 2065 750 l 1,45,-1
1328 750 m 256,48,49
 1328 660 1328 660 1264.5 596 c 128,-1,50
 1201 532 1201 532 1111 532 c 256,51,52
 1021 532 1021 532 957 596 c 128,-1,53
 893 660 893 660 893 750 c 256,54,55
 893 840 893 840 957 903.5 c 128,-1,56
 1021 967 1021 967 1111 967 c 256,57,58
 1201 967 1201 967 1264.5 903.5 c 128,-1,59
 1328 840 1328 840 1328 750 c 256,48,49
1253 750 m 256,60,61
 1253 809 1253 809 1211 850.5 c 128,-1,62
 1169 892 1169 892 1110 892 c 256,63,64
 1051 892 1051 892 1009 850.5 c 128,-1,65
 967 809 967 809 967 750 c 256,66,67
 967 691 967 691 1009 649 c 128,-1,68
 1051 607 1051 607 1110 607 c 256,69,70
 1169 607 1169 607 1211 649 c 128,-1,71
 1253 691 1253 691 1253 750 c 256,60,61
EndSplineSet
EndChar

StartChar: uni06DF
Encoding: 1759 1759 390
Width: 0
GlyphClass: 2
Flags: W
LayerCount: 2
Fore
SplineSet
75 1429 m 256,0,1
 75 1398 75 1398 53 1376 c 128,-1,2
 31 1354 31 1354 0 1354 c 256,3,4
 -31 1354 -31 1354 -53 1376 c 128,-1,5
 -75 1398 -75 1398 -75 1429 c 256,6,7
 -75 1460 -75 1460 -53 1482 c 128,-1,8
 -31 1504 -31 1504 0 1504 c 256,9,10
 31 1504 31 1504 53 1482 c 128,-1,11
 75 1460 75 1460 75 1429 c 256,0,1
EndSplineSet
EndChar

StartChar: uni06E9
Encoding: 1769 1769 391
Width: 1229
GlyphClass: 2
Flags: W
LayerCount: 2
Fore
SplineSet
1179 0 m 1,0,-1
 50 0 l 1,1,-1
 278 261 l 1,2,-1
 278 849 l 1,3,-1
 50 1108 l 1,4,-1
 614 1676 l 1,5,-1
 1179 1108 l 1,6,-1
 951 849 l 1,7,-1
 951 261 l 1,8,-1
 1179 0 l 1,0,-1
1101 1108 m 1,9,-1
 614 1598 l 1,10,-1
 128 1108 l 1,11,-1
 338 871 l 1,12,-1
 338 239 l 1,13,-1
 178 56 l 1,14,-1
 1051 56 l 1,15,-1
 891 239 l 1,16,-1
 891 871 l 1,17,-1
 1101 1108 l 1,9,-1
995 1108 m 1,18,-1
 845 937 l 1,19,-1
 845 131 l 1,20,-1
 384 131 l 1,21,-1
 384 937 l 1,22,-1
 234 1108 l 1,23,-1
 614 1489 l 1,24,-1
 995 1108 l 1,18,-1
922 1108 m 1,25,-1
 614 1416 l 1,26,-1
 307 1108 l 1,27,-1
 433 968 l 1,28,-1
 433 186 l 1,29,-1
 796 186 l 1,30,-1
 796 968 l 1,31,-1
 922 1108 l 1,25,-1
833 1108 m 1,32,-1
 745 1011 l 1,33,-1
 745 267 l 1,34,-1
 484 267 l 1,35,-1
 484 1011 l 1,36,-1
 396 1108 l 1,37,-1
 614 1331 l 1,38,-1
 833 1108 l 1,32,-1
780 1108 m 1,39,-1
 614 1278 l 1,40,-1
 449 1108 l 1,41,-1
 523 1027 l 1,42,-1
 523 309 l 1,43,-1
 705 309 l 1,44,-1
 705 1027 l 1,45,-1
 780 1108 l 1,39,-1
EndSplineSet
EndChar

StartChar: uni06EB
Encoding: 1771 1771 393
Width: 0
GlyphClass: 2
Flags: W
LayerCount: 2
Fore
SplineSet
168 1522 m 1,0,-1
 -1 1354 l 1,1,-1
 -168 1521 l 1,2,-1
 1 1689 l 1,3,-1
 168 1522 l 1,0,-1
104 1522 m 1,4,-1
 0 1626 l 1,5,-1
 -104 1521 l 1,6,-1
 0 1417 l 1,7,-1
 104 1522 l 1,4,-1
EndSplineSet
EndChar

StartChar: comma
Encoding: 44 44 402
Width: 400
Flags: W
LayerCount: 2
Fore
SplineSet
402 212 m 1,0,-1
 214 -209 l 1,1,-1
 65 -207 l 1,2,-1
 184 211 l 1,3,-1
 402 212 l 1,0,-1
EndSplineSet
EndChar

StartChar: afii57407
Encoding: 1567 1567 403
Width: 960
GlyphClass: 2
Flags: W
LayerCount: 2
Fore
SplineSet
880 952 m 0,0,1
 880 819 880 819 783 819 c 0,2,3
 683 819 683 819 683 929 c 0,4,5
 683 996 683 996 633 1034 c 0,6,7
 589 1068 589 1068 518 1068 c 0,8,9
 454 1068 454 1068 414 1034 c 0,10,11
 369 996 369 996 369 936 c 0,12,13
 369 849 369 849 443 778 c 0,14,15
 480 743 480 743 581 649 c 1,16,17
 655 558 655 558 655 427 c 0,18,19
 655 310 655 310 573 310 c 0,20,21
 532 310 532 310 506 345 c 0,22,23
 482 376 482 376 482 418 c 0,24,25
 482 524 482 524 401 595 c 0,26,27
 391 603 391 603 354.5 633 c 128,-1,28
 318 663 318 663 252 715 c 1,29,30
 171 794 171 794 171 910 c 0,31,32
 171 1044 171 1044 250 1138 c 0,33,34
 345 1251 345 1251 522 1251 c 0,35,36
 655 1251 655 1251 762 1169 c 0,37,38
 880 1081 880 1081 880 952 c 0,0,1
700 102 m 0,39,40
 700 51 700 51 664 15 c 0,41,42
 629 -20 629 -20 578 -20 c 0,43,44
 528 -20 528 -20 491 15 c 0,45,46
 456 52 456 52 456 102 c 0,47,48
 456 153 456 153 491 188 c 0,49,50
 527 224 527 224 578 224 c 0,51,52
 628 224 628 224 664 188 c 256,53,54
 700 152 700 152 700 102 c 0,39,40
EndSplineSet
EndChar

StartChar: afii57392
Encoding: 1776 1776 404
Width: 1115
Flags: W
LayerCount: 2
Fore
SplineSet
811 463 m 0,0,1
 811 385 811 385 756 330 c 0,2,3
 702 276 702 276 623 276 c 256,4,5
 544 276 544 276 490 330 c 256,6,7
 436 384 436 384 436 463 c 256,8,9
 436 542 436 542 490 596 c 0,10,11
 544 651 544 651 623 651 c 256,12,13
 702 651 702 651 756 596 c 0,14,15
 811 542 811 542 811 463 c 0,0,1
EndSplineSet
EndChar

StartChar: afii57393
Encoding: 1777 1777 405
Width: 679
Flags: W
LayerCount: 2
Fore
SplineSet
373 -92 m 0,0,1
 278 -92 278 -92 284 27 c 0,2,3
 286 75 286 75 287.5 121.5 c 128,-1,4
 289 168 289 168 289 214 c 0,5,6
 289 635 289 635 191 1010 c 0,7,8
 181 1046 181 1046 181 1082 c 0,9,10
 181 1200 181 1200 287 1200 c 0,11,12
 376 1200 376 1200 410 1073 c 0,13,14
 494 759 494 759 494 346 c 0,15,16
 494 251 494 251 492 188.5 c 128,-1,17
 490 126 490 126 486 94 c 0,18,19
 462 -92 462 -92 373 -92 c 0,0,1
EndSplineSet
EndChar

StartChar: afii57394
Encoding: 1778 1778 406
Width: 1140
Flags: W
LayerCount: 2
Fore
SplineSet
1029 1087 m 0,0,1
 1029 909 1029 909 961 802 c 0,2,3
 880 673 880 673 712 673 c 0,4,5
 587 673 587 673 527 737 c 1,6,7
 571 487 571 487 571 208 c 0,8,9
 571 2 571 2 539 -54 c 0,10,11
 517 -91 517 -91 465 -91 c 0,12,13
 369 -91 369 -91 370 21 c 0,14,15
 372 210 372 210 369.5 336.5 c 128,-1,16
 367 463 367 463 360 529 c 0,17,18
 335 770 335 770 256 1023 c 0,19,20
 243 1063 243 1063 243 1095 c 0,21,22
 243 1200 243 1200 354 1200 c 0,23,24
 405 1200 405 1200 434 1161 c 0,25,26
 450 1141 450 1141 477 1073 c 0,27,28
 511 988 511 988 560 950 c 0,29,30
 613 909 613 909 701 909 c 0,31,32
 836 909 836 909 836 1083 c 0,33,34
 836 1221 836 1221 930 1221 c 0,35,36
 979 1221 979 1221 1006 1176 c 0,37,38
 1029 1138 1029 1138 1029 1087 c 0,0,1
EndSplineSet
EndChar

StartChar: afii57395
Encoding: 1779 1779 407
Width: 1306
Flags: W
LayerCount: 2
Fore
SplineSet
1148 1071 m 0,0,1
 1148 918 1148 918 1093 821 c 0,2,3
 1026 700 1026 700 883 700 c 0,4,5
 773 700 773 700 722 784 c 1,6,7
 669 673 669 673 562 673 c 0,8,9
 496 673 496 673 441 709 c 1,10,11
 490 501 490 501 490 222 c 0,12,13
 490 104 490 104 478 26 c 0,14,15
 460 -91 460 -91 383 -91 c 0,16,17
 298 -91 298 -91 297 21 c 0,18,19
 295 197 295 197 286 330.5 c 128,-1,20
 277 464 277 464 262 560 c 0,21,22
 251 632 251 632 234.5 697 c 128,-1,23
 218 762 218 762 198 820 c 2,24,-1
 125 1023 l 2,25,26
 114 1056 114 1056 114 1090 c 0,27,28
 114 1200 114 1200 223 1200 c 0,29,30
 294 1200 294 1200 346 1073 c 0,31,32
 372 1013 372 1013 415 967 c 0,33,34
 470 909 470 909 522 909 c 0,35,36
 628 909 628 909 628 1083 c 0,37,38
 628 1129 628 1129 651 1164 c 0,39,40
 677 1202 677 1202 722 1202 c 0,41,42
 815 1202 815 1202 815 1075 c 0,43,44
 815 999 815 999 825 975 c 0,45,46
 842 934 842 934 895 934 c 0,47,48
 973 934 973 934 973 1076 c 0,49,50
 973 1193 973 1193 1056 1193 c 0,51,52
 1101 1193 1101 1193 1126 1153 c 0,53,54
 1148 1119 1148 1119 1148 1071 c 0,0,1
EndSplineSet
EndChar

StartChar: afii62843
Encoding: 1780 1780 408
Width: 1254
Flags: W
LayerCount: 2
Fore
SplineSet
1040 718 m 0,0,1
 925 627 925 627 762 627 c 0,2,3
 581 627 581 627 478 693 c 1,4,5
 498 576 498 576 508.5 460.5 c 128,-1,6
 519 345 519 345 519 227 c 0,7,8
 519 4 519 4 485 -54 c 0,9,10
 463 -91 463 -91 412 -91 c 0,11,12
 317 -91 317 -91 316 21 c 2,13,-1
 306 471 l 1,14,15
 270 740 270 740 192 937 c 0,16,17
 175 982 175 982 175 1015 c 0,18,19
 175 1064 175 1064 206 1095.5 c 128,-1,20
 237 1127 237 1127 286 1127 c 0,21,22
 337 1127 337 1127 398 1027 c 0,23,24
 472 908 472 908 530 893 c 1,25,26
 526 910 526 910 524 927 c 128,-1,27
 522 944 522 944 522 961 c 0,28,29
 522 1068 522 1068 588 1151 c 0,30,31
 658 1239 658 1239 763 1239 c 0,32,33
 872 1239 872 1239 942 1192 c 0,34,35
 1000 1153 1000 1153 1000 1108 c 0,36,37
 1000 1050 1000 1050 942 1050 c 0,38,39
 922 1050 922 1050 873 1061 c 0,40,41
 826 1072 826 1072 804 1072 c 0,42,43
 755 1072 755 1072 725.5 1040 c 128,-1,44
 696 1008 696 1008 696 957 c 0,45,46
 696 902 696 902 732.5 870 c 128,-1,47
 769 838 769 838 826 838 c 0,48,49
 868 838 868 838 939 868 c 0,50,51
 1010 899 1010 899 1031 899 c 0,52,53
 1105 899 1105 899 1105 825 c 0,54,55
 1105 769 1105 769 1040 718 c 0,0,1
EndSplineSet
EndChar

StartChar: afii62844
Encoding: 1781 1781 409
Width: 1221
Flags: W
LayerCount: 2
Fore
SplineSet
1076 301 m 0,0,1
 1076 128 1076 128 983 25 c 0,2,3
 905 -62 905 -62 807 -62 c 0,4,5
 694 -62 694 -62 632 12 c 1,6,7
 556 -94 556 -94 436 -94 c 0,8,9
 307 -94 307 -94 238 10 c 0,10,11
 180 98 180 98 180 235 c 0,12,13
 180 547 180 547 479 933 c 1,14,-1
 444 965 l 2,15,16
 405 1001 405 1001 405 1049 c 0,17,18
 405 1095 405 1095 439 1129 c 256,19,20
 473 1163 473 1163 520 1163 c 0,21,22
 564 1163 564 1163 603 1130 c 0,23,24
 801 961 801 961 926 761 c 0,25,26
 1076 522 1076 522 1076 301 c 0,0,1
894 333 m 0,27,28
 894 441 894 441 793 599 c 0,29,30
 750 666 750 666 702 723.5 c 128,-1,31
 654 781 654 781 600 830 c 1,32,33
 514 723 514 723 441 584 c 0,34,35
 349 411 349 411 349 312 c 0,36,37
 349 181 349 181 444 181 c 0,38,39
 496 181 496 181 542 236 c 0,40,41
 590 291 590 291 614 291 c 0,42,43
 639 291 639 291 687 237 c 0,44,45
 737 184 737 184 782 184 c 0,46,47
 894 184 894 184 894 333 c 0,27,28
EndSplineSet
EndChar

StartChar: afii62845
Encoding: 1782 1782 410
Width: 1298
Flags: W
LayerCount: 2
Fore
SplineSet
1122 798 m 0,0,1
 1122 720 1122 720 950 615 c 0,2,3
 658 437 658 437 459 149 c 0,4,5
 442 123 442 123 410 76.5 c 128,-1,6
 378 30 378 30 332 -38 c 0,7,8
 291 -97 291 -97 235 -97 c 0,9,10
 160 -97 160 -97 160 -15 c 0,11,12
 160 13 160 13 170 37 c 0,13,14
 261 279 261 279 505 550 c 1,15,16
 424 567 424 567 356 645 c 0,17,18
 274 739 274 739 274 863 c 0,19,20
 274 1028 274 1028 378 1137 c 0,21,22
 481 1245 481 1245 647 1245 c 0,23,24
 720 1245 720 1245 782 1215 c 0,25,26
 859 1177 859 1177 859 1112 c 0,27,28
 859 1066 859 1066 801 1053 c 1,29,-1
 651 1045 l 2,30,31
 576 1041 576 1041 526 1000 c 0,32,33
 473 955 473 955 473 882 c 0,34,35
 473 820 473 820 542 780 c 0,36,37
 600 746 600 746 666 746 c 0,38,39
 716 746 716 746 849 817 c 256,40,41
 982 888 982 888 1024 888 c 0,42,43
 1122 888 1122 888 1122 798 c 0,0,1
EndSplineSet
EndChar

StartChar: afii57399
Encoding: 1783 1783 411
Width: 1249
Flags: W
LayerCount: 2
Fore
SplineSet
1052 952 m 0,0,1
 1003 879 1003 879 954 774.5 c 128,-1,2
 905 670 905 670 856 532 c 0,3,4
 752 241 752 241 734 43 c 0,5,6
 724 -66 724 -66 633 -66 c 0,7,8
 543 -66 543 -66 534 43 c 0,9,10
 519 236 519 236 414 529 c 0,11,12
 316 803 316 803 217 952 c 0,13,14
 173 1019 173 1019 173 1079 c 0,15,16
 173 1183 173 1183 261 1183 c 0,17,18
 331 1183 331 1183 390 1094 c 0,19,20
 606 768 606 768 636 458 c 1,21,22
 676 780 676 780 879 1094 c 0,23,24
 936 1183 936 1183 1007 1183 c 0,25,26
 1096 1183 1096 1183 1096 1078 c 0,27,28
 1096 1019 1096 1019 1052 952 c 0,0,1
EndSplineSet
EndChar

StartChar: afii57400
Encoding: 1784 1784 412
Width: 1252
Flags: W
LayerCount: 2
Fore
SplineSet
215 175 m 0,0,1
 266 249 266 249 314.5 353.5 c 128,-1,2
 363 458 363 458 412 595 c 0,3,4
 464 741 464 741 494 862.5 c 128,-1,5
 524 984 524 984 534 1084 c 0,6,7
 544 1193 544 1193 634 1193 c 0,8,9
 725 1193 725 1193 734 1084 c 0,10,11
 742 984 742 984 771.5 862.5 c 128,-1,12
 801 741 801 741 853 597 c 0,13,14
 902 459 902 459 951 354.5 c 128,-1,15
 1000 250 1000 250 1050 175 c 0,16,17
 1095 107 1095 107 1095 48 c 0,18,19
 1095 6 1095 6 1071.5 -25 c 128,-1,20
 1048 -56 1048 -56 1006 -56 c 0,21,22
 936 -56 936 -56 877 33 c 0,23,24
 662 358 662 358 632 669 c 1,25,26
 590 346 590 346 388 33 c 0,27,28
 331 -56 331 -56 261 -56 c 0,29,30
 171 -56 171 -56 171 49 c 0,31,32
 171 110 171 110 215 175 c 0,0,1
EndSplineSet
EndChar

StartChar: afii57401
Encoding: 1785 1785 413
Width: 1091
Flags: W
LayerCount: 2
Fore
SplineSet
940 48 m 0,0,1
 940 -77 940 -77 829 -77 c 0,2,3
 745 -77 745 -77 691 134 c 0,4,5
 643 321 643 321 643 545 c 1,6,7
 389 545 389 545 292 629 c 0,8,9
 215 695 215 695 215 844 c 0,10,11
 215 994 215 994 306 1106 c 0,12,13
 403 1226 403 1226 549 1226 c 0,14,15
 829 1226 829 1226 829 762 c 0,16,17
 829 635 829 635 836.5 533 c 128,-1,18
 844 431 844 431 858 351 c 0,19,20
 876 257 876 257 911 163 c 0,21,22
 940 87 940 87 940 48 c 0,0,1
637 779 m 1,23,24
 637 1004 637 1004 525 1004 c 0,25,26
 471 1004 471 1004 435 966 c 0,27,28
 400 928 400 928 400 873 c 0,29,30
 400 774 400 774 562 774 c 0,31,32
 579 774 579 774 598 775.5 c 128,-1,33
 617 777 617 777 637 779 c 1,23,24
EndSplineSet
EndChar

StartChar: afii57392.001
Encoding: 1632 1632 414
Width: 1115
Flags: W
LayerCount: 2
Fore
SplineSet
811 463 m 0,0,1
 811 385 811 385 756 330 c 0,2,3
 702 276 702 276 623 276 c 256,4,5
 544 276 544 276 490 330 c 256,6,7
 436 384 436 384 436 463 c 256,8,9
 436 542 436 542 490 596 c 0,10,11
 544 651 544 651 623 651 c 256,12,13
 702 651 702 651 756 596 c 0,14,15
 811 542 811 542 811 463 c 0,0,1
EndSplineSet
EndChar

StartChar: afii57393.001
Encoding: 1633 1633 415
Width: 696
Flags: W
LayerCount: 2
Fore
SplineSet
386 -92 m 0,0,1
 291 -92 291 -92 297 27 c 0,2,3
 299 75 299 75 300.5 121.5 c 128,-1,4
 302 168 302 168 302 214 c 0,5,6
 302 635 302 635 204 1010 c 0,7,8
 194 1046 194 1046 194 1082 c 0,9,10
 194 1200 194 1200 300 1200 c 0,11,12
 389 1200 389 1200 423 1073 c 0,13,14
 507 759 507 759 507 346 c 0,15,16
 507 251 507 251 505 188.5 c 128,-1,17
 503 126 503 126 499 94 c 0,18,19
 475 -92 475 -92 386 -92 c 0,0,1
EndSplineSet
EndChar

StartChar: afii57394.001
Encoding: 1634 1634 416
Width: 1029
Flags: W
LayerCount: 2
Fore
SplineSet
916 1087 m 0,0,1
 916 909 916 909 848 802 c 0,2,3
 767 673 767 673 599 673 c 0,4,5
 474 673 474 673 414 737 c 1,6,7
 458 487 458 487 458 208 c 0,8,9
 458 2 458 2 426 -54 c 0,10,11
 404 -91 404 -91 352 -91 c 0,12,13
 256 -91 256 -91 257 21 c 0,14,15
 259 210 259 210 256.5 336.5 c 128,-1,16
 254 463 254 463 247 529 c 0,17,18
 222 770 222 770 143 1023 c 0,19,20
 130 1063 130 1063 130 1095 c 0,21,22
 130 1200 130 1200 241 1200 c 0,23,24
 292 1200 292 1200 321 1161 c 0,25,26
 337 1141 337 1141 364 1073 c 0,27,28
 398 988 398 988 447 950 c 0,29,30
 500 909 500 909 588 909 c 0,31,32
 723 909 723 909 723 1083 c 0,33,34
 723 1221 723 1221 817 1221 c 0,35,36
 866 1221 866 1221 893 1176 c 0,37,38
 916 1138 916 1138 916 1087 c 0,0,1
EndSplineSet
EndChar

StartChar: afii57395.001
Encoding: 1635 1635 417
Width: 1272
Flags: W
LayerCount: 2
Fore
SplineSet
1148 1071 m 0,0,1
 1148 918 1148 918 1093 821 c 0,2,3
 1026 700 1026 700 883 700 c 0,4,5
 773 700 773 700 722 784 c 1,6,7
 669 673 669 673 562 673 c 0,8,9
 496 673 496 673 441 709 c 1,10,11
 490 501 490 501 490 222 c 0,12,13
 490 104 490 104 478 26 c 0,14,15
 460 -91 460 -91 383 -91 c 0,16,17
 298 -91 298 -91 297 21 c 0,18,19
 295 197 295 197 286 330.5 c 128,-1,20
 277 464 277 464 262 560 c 0,21,22
 251 632 251 632 234.5 697 c 128,-1,23
 218 762 218 762 198 820 c 2,24,-1
 125 1023 l 2,25,26
 114 1056 114 1056 114 1090 c 0,27,28
 114 1200 114 1200 223 1200 c 0,29,30
 294 1200 294 1200 346 1073 c 0,31,32
 372 1013 372 1013 415 967 c 0,33,34
 470 909 470 909 522 909 c 0,35,36
 628 909 628 909 628 1083 c 0,37,38
 628 1129 628 1129 651 1164 c 0,39,40
 677 1202 677 1202 722 1202 c 0,41,42
 815 1202 815 1202 815 1075 c 0,43,44
 815 999 815 999 825 975 c 0,45,46
 842 934 842 934 895 934 c 0,47,48
 973 934 973 934 973 1076 c 0,49,50
 973 1193 973 1193 1056 1193 c 0,51,52
 1101 1193 1101 1193 1126 1153 c 0,53,54
 1148 1119 1148 1119 1148 1071 c 0,0,1
EndSplineSet
EndChar

StartChar: afii57396
Encoding: 1636 1636 418
Width: 1127
Flags: W
LayerCount: 2
Fore
SplineSet
521 642 m 1,0,1
 475 657 475 657 442 681.5 c 128,-1,2
 409 706 409 706 387.5 737 c 128,-1,3
 366 768 366 768 356 804.5 c 128,-1,4
 346 841 346 841 346 879 c 0,5,6
 346 940 346 940 370 1002 c 128,-1,7
 394 1064 394 1064 438 1113.5 c 128,-1,8
 482 1163 482 1163 543 1194 c 128,-1,9
 604 1225 604 1225 678 1225 c 0,10,11
 702 1225 702 1225 731.5 1221 c 128,-1,12
 761 1217 761 1217 787 1205.5 c 128,-1,13
 813 1194 813 1194 830.5 1174 c 128,-1,14
 848 1154 848 1154 848 1122 c 0,15,16
 848 1108 848 1108 843 1095 c 128,-1,17
 838 1082 838 1082 825.5 1071.5 c 128,-1,18
 813 1061 813 1061 791.5 1054.5 c 128,-1,19
 770 1048 770 1048 736 1048 c 0,20,21
 710 1048 710 1048 675 1044.5 c 128,-1,22
 640 1041 640 1041 608.5 1027.5 c 128,-1,23
 577 1014 577 1014 555.5 986.5 c 128,-1,24
 534 959 534 959 534 911 c 0,25,26
 534 850 534 850 596.5 809 c 128,-1,27
 659 768 659 768 778 768 c 1,28,29
 832 764 832 764 865 739.5 c 128,-1,30
 898 715 898 715 898 665 c 0,31,32
 898 623 898 623 874.5 601.5 c 128,-1,33
 851 580 851 580 814 565.5 c 128,-1,34
 777 551 777 551 730.5 537.5 c 128,-1,35
 684 524 684 524 639 500 c 0,36,37
 549 451 549 451 507.5 388 c 128,-1,38
 466 325 466 325 466 270 c 0,39,40
 466 227 466 227 486.5 199.5 c 128,-1,41
 507 172 507 172 538.5 156 c 128,-1,42
 570 140 570 140 609 133.5 c 128,-1,43
 648 127 648 127 686 127 c 0,44,45
 742 127 742 127 788.5 134 c 128,-1,46
 835 141 835 141 855 143 c 0,47,48
 863 144 863 144 871 144 c 256,49,50
 879 144 879 144 887 144 c 0,51,52
 925 144 925 144 949 135 c 128,-1,53
 973 126 973 126 987 110 c 128,-1,54
 1001 94 1001 94 1006.5 72 c 128,-1,55
 1012 50 1012 50 1012 25 c 0,56,57
 1012 -4 1012 -4 984 -26 c 128,-1,58
 956 -48 956 -48 914 -62.5 c 128,-1,59
 872 -77 872 -77 824.5 -84 c 128,-1,60
 777 -91 777 -91 738 -91 c 0,61,62
 706 -91 706 -91 663 -89.5 c 128,-1,63
 620 -88 620 -88 576 -83.5 c 128,-1,64
 532 -79 532 -79 490.5 -71 c 128,-1,65
 449 -63 449 -63 420 -49 c 0,66,67
 329 -7 329 -7 288.5 61 c 128,-1,68
 248 129 248 129 248 210 c 0,69,70
 248 271 248 271 268.5 334 c 128,-1,71
 289 397 289 397 325.5 455 c 128,-1,72
 362 513 362 513 412 561.5 c 128,-1,73
 462 610 462 610 521 642 c 1,0,1
EndSplineSet
EndChar

StartChar: afii57397
Encoding: 1637 1637 419
Width: 1213
Flags: W
LayerCount: 2
Fore
SplineSet
1100 301 m 0,0,1
 1100 238 1100 238 1084.5 177.5 c 128,-1,2
 1069 117 1069 117 1037.5 66 c 128,-1,3
 1006 15 1006 15 959.5 -23.5 c 128,-1,4
 913 -62 913 -62 852 -81 c 0,5,6
 789 -101 789 -101 731 -108.5 c 128,-1,7
 673 -116 673 -116 620 -116 c 0,8,9
 501 -116 501 -116 421 -94 c 128,-1,10
 341 -72 341 -72 293 -27.5 c 128,-1,11
 245 17 245 17 224.5 82.5 c 128,-1,12
 204 148 204 148 204 235 c 0,13,14
 204 547 204 547 503 933 c 1,15,-1
 468 965 l 2,16,17
 429 1001 429 1001 429 1049 c 0,18,19
 429 1072 429 1072 438.5 1092.5 c 128,-1,20
 448 1113 448 1113 463.5 1129 c 128,-1,21
 479 1145 479 1145 500 1154 c 128,-1,22
 521 1163 521 1163 544 1163 c 0,23,24
 581 1163 581 1163 621.5 1140 c 128,-1,25
 662 1117 662 1117 702 1080 c 128,-1,26
 742 1043 742 1043 780 998 c 128,-1,27
 818 953 818 953 851 908 c 128,-1,28
 884 863 884 863 909.5 824 c 128,-1,29
 935 785 935 785 950 761 c 0,30,31
 1100 522 1100 522 1100 301 c 0,0,1
918 333 m 0,32,33
 918 441 918 441 817 599 c 0,34,35
 731 734 731 734 624 830 c 1,36,37
 538 723 538 723 465 584 c 0,38,39
 425 509 425 509 398.5 435 c 128,-1,40
 372 361 372 361 372 298 c 0,41,42
 372 210 372 210 437 161 c 128,-1,43
 502 112 502 112 617 112 c 0,44,45
 667 112 667 112 715.5 121 c 128,-1,46
 764 130 764 130 806 142 c 0,47,48
 918 184 918 184 918 333 c 0,32,33
EndSplineSet
EndChar

StartChar: afii57398
Encoding: 1638 1638 420
Width: 1224
Flags: W
LayerCount: 2
Fore
SplineSet
844 134 m 0,0,1
 830 188 830 188 816.5 254 c 128,-1,2
 803 320 803 320 792 397 c 128,-1,3
 781 474 781 474 774 564 c 128,-1,4
 767 654 767 654 767 756 c 0,5,6
 767 843 767 843 773 941 c 1,7,8
 721 929 721 929 670 924 c 128,-1,9
 619 919 619 919 570 919 c 0,10,11
 522 919 522 919 477.5 923 c 128,-1,12
 433 927 433 927 394.5 933 c 128,-1,13
 356 939 356 939 325.5 946.5 c 128,-1,14
 295 954 295 954 275 961 c 256,15,16
 255 968 255 968 237 979.5 c 128,-1,17
 219 991 219 991 205 1006 c 128,-1,18
 191 1021 191 1021 183 1039 c 128,-1,19
 175 1057 175 1057 175 1075 c 0,20,21
 175 1133 175 1133 205.5 1161 c 128,-1,22
 236 1189 236 1189 275 1189 c 0,23,24
 288 1189 288 1189 300 1186 c 0,25,26
 369 1168 369 1168 438 1160 c 128,-1,27
 507 1152 507 1152 575 1152 c 0,28,29
 645 1152 645 1152 709.5 1160 c 128,-1,30
 774 1168 774 1168 830 1185 c 0,31,32
 851 1191 851 1191 874 1191 c 0,33,34
 893 1191 893 1191 912 1186.5 c 128,-1,35
 931 1182 931 1182 945.5 1173 c 128,-1,36
 960 1164 960 1164 969 1149.5 c 128,-1,37
 978 1135 978 1135 978 1116 c 2,38,-1
 978 1112 l 1,39,40
 972 1001 972 1001 965.5 912 c 128,-1,41
 959 823 959 823 959 738 c 0,42,43
 959 687 959 687 962.5 634 c 128,-1,44
 966 581 966 581 974 522.5 c 128,-1,45
 982 464 982 464 995.5 398 c 128,-1,46
 1009 332 1009 332 1029 255 c 1,47,48
 1093 105 1093 105 1093 48 c 0,49,50
 1093 -77 1093 -77 982 -77 c 0,51,52
 898 -77 898 -77 844 134 c 0,0,1
EndSplineSet
EndChar

StartChar: afii57399.001
Encoding: 1639 1639 421
Width: 1203
Flags: W
LayerCount: 2
Fore
SplineSet
1052 952 m 0,0,1
 1003 879 1003 879 954 774.5 c 128,-1,2
 905 670 905 670 856 532 c 0,3,4
 752 241 752 241 734 43 c 0,5,6
 724 -66 724 -66 633 -66 c 0,7,8
 543 -66 543 -66 534 43 c 0,9,10
 519 236 519 236 414 529 c 0,11,12
 316 803 316 803 217 952 c 0,13,14
 173 1019 173 1019 173 1079 c 0,15,16
 173 1183 173 1183 261 1183 c 0,17,18
 331 1183 331 1183 390 1094 c 0,19,20
 606 768 606 768 636 458 c 1,21,22
 676 780 676 780 879 1094 c 0,23,24
 936 1183 936 1183 1007 1183 c 0,25,26
 1096 1183 1096 1183 1096 1078 c 0,27,28
 1096 1019 1096 1019 1052 952 c 0,0,1
EndSplineSet
EndChar

StartChar: afii57400.001
Encoding: 1640 1640 422
Width: 1228
Flags: W
LayerCount: 2
Fore
SplineSet
215 175 m 0,0,1
 266 249 266 249 314.5 353.5 c 128,-1,2
 363 458 363 458 412 595 c 0,3,4
 464 741 464 741 494 862.5 c 128,-1,5
 524 984 524 984 534 1084 c 0,6,7
 544 1193 544 1193 634 1193 c 0,8,9
 725 1193 725 1193 734 1084 c 0,10,11
 742 984 742 984 771.5 862.5 c 128,-1,12
 801 741 801 741 853 597 c 0,13,14
 902 459 902 459 951 354.5 c 128,-1,15
 1000 250 1000 250 1050 175 c 0,16,17
 1095 107 1095 107 1095 48 c 0,18,19
 1095 6 1095 6 1071.5 -25 c 128,-1,20
 1048 -56 1048 -56 1006 -56 c 0,21,22
 936 -56 936 -56 877 33 c 0,23,24
 662 358 662 358 632 669 c 1,25,26
 590 346 590 346 388 33 c 0,27,28
 331 -56 331 -56 261 -56 c 0,29,30
 171 -56 171 -56 171 49 c 0,31,32
 171 110 171 110 215 175 c 0,0,1
EndSplineSet
EndChar

StartChar: afii57401.001
Encoding: 1641 1641 423
Width: 1115
Flags: W
LayerCount: 2
Fore
SplineSet
964 48 m 0,0,1
 964 -77 964 -77 853 -77 c 0,2,3
 769 -77 769 -77 715 134 c 0,4,5
 667 321 667 321 667 545 c 1,6,7
 413 545 413 545 316 629 c 0,8,9
 239 695 239 695 239 844 c 0,10,11
 239 994 239 994 330 1106 c 0,12,13
 427 1226 427 1226 573 1226 c 0,14,15
 853 1226 853 1226 853 762 c 0,16,17
 853 635 853 635 860.5 533 c 128,-1,18
 868 431 868 431 882 351 c 0,19,20
 900 257 900 257 935 163 c 0,21,22
 964 87 964 87 964 48 c 0,0,1
661 779 m 1,23,24
 661 1004 661 1004 549 1004 c 0,25,26
 495 1004 495 1004 459 966 c 0,27,28
 424 928 424 928 424 873 c 0,29,30
 424 774 424 774 586 774 c 0,31,32
 603 774 603 774 622 775.5 c 128,-1,33
 641 777 641 777 661 779 c 1,23,24
EndSplineSet
EndChar

StartChar: guillemotleft
Encoding: 171 171 424
Width: 524
Flags: W
LayerCount: 2
Fore
SplineSet
524 585 m 0,0,1
 397 452 397 452 397 299 c 0,2,3
 397 167 397 167 478 46 c 0,4,5
 487 32 487 32 487 21 c 0,6,7
 487 -2 487 -2 460 -2 c 0,8,9
 443 -2 443 -2 417 23 c 128,-1,10
 391 48 391 48 366 91 c 128,-1,11
 341 134 341 134 323.5 190 c 128,-1,12
 306 246 306 246 306 309 c 0,13,14
 306 344 306 344 317 382.5 c 128,-1,15
 328 421 328 421 345.5 457.5 c 128,-1,16
 363 494 363 494 385 526.5 c 128,-1,17
 407 559 407 559 429.5 583.5 c 128,-1,18
 452 608 452 608 473 622.5 c 128,-1,19
 494 637 494 637 509 637 c 0,20,21
 538 637 538 637 538 614 c 0,22,23
 538 602 538 602 524 585 c 0,0,1
369 586 m 0,24,25
 241 455 241 455 241 299 c 0,26,27
 241 165 241 165 322 47 c 0,28,29
 331 33 331 33 331 22 c 0,30,31
 331 -1 331 -1 304 -1 c 0,32,33
 287 -1 287 -1 261 24 c 128,-1,34
 235 49 235 49 210 91.5 c 128,-1,35
 185 134 185 134 167.5 190 c 128,-1,36
 150 246 150 246 150 309 c 0,37,38
 150 344 150 344 160.5 382 c 128,-1,39
 171 420 171 420 188.5 456.5 c 128,-1,40
 206 493 206 493 228 525.5 c 128,-1,41
 250 558 250 558 272.5 583 c 128,-1,42
 295 608 295 608 316 622.5 c 128,-1,43
 337 637 337 637 353 637 c 0,44,45
 383 637 383 637 383 614 c 0,46,47
 383 600 383 600 369 586 c 0,24,25
EndSplineSet
EndChar

StartChar: guillemotright
Encoding: 187 187 425
Width: 524
Flags: W
LayerCount: 2
Fore
SplineSet
471 130 m 0,0,1
 391 -2 391 -2 333 -2 c 0,2,3
 303 -2 303 -2 303 21 c 0,4,5
 303 35 303 35 317 49 c 0,6,7
 445 180 445 180 445 337 c 0,8,9
 445 469 445 469 364 588 c 0,10,11
 355 601 355 601 355 613 c 0,12,13
 355 636 355 636 382 636 c 0,14,15
 443 636 443 636 502 481 c 0,16,17
 535 394 535 394 535 326 c 0,18,19
 535 236 535 236 471 130 c 0,0,1
379 302 m 0,20,21
 371 222 371 222 316 131 c 0,22,23
 235 -2 235 -2 176 -2 c 0,24,25
 147 -2 147 -2 147 22 c 0,26,27
 147 34 147 34 161 50 c 0,28,29
 289 184 289 184 289 337 c 0,30,31
 289 467 289 467 208 589 c 0,32,33
 199 602 199 602 199 614 c 0,34,35
 199 637 199 637 226 637 c 0,36,37
 287 637 287 637 347 482 c 0,38,39
 386 380 386 380 379 302 c 0,20,21
EndSplineSet
EndChar

StartChar: quoteleft
Encoding: 8216 8216 426
Width: 445
Flags: W
LayerCount: 2
Fore
SplineSet
149 961 m 0,0,1
 150 1037 150 1037 201.5 1111.5 c 128,-1,2
 253 1186 253 1186 316 1216 c 1,3,-1
 352 1148 l 1,4,5
 333 1138 333 1138 307.5 1110 c 128,-1,6
 282 1082 282 1082 270 1037 c 1,7,8
 347 1005 347 1005 344 940 c 0,9,10
 344 921 344 921 336.5 904 c 128,-1,11
 329 887 329 887 316.5 874.5 c 128,-1,12
 304 862 304 862 286.5 854.5 c 128,-1,13
 269 847 269 847 250 847 c 0,14,15
 226 847 226 847 207 857 c 128,-1,16
 188 867 188 867 175.5 883 c 128,-1,17
 163 899 163 899 156 919.5 c 128,-1,18
 149 940 149 940 149 961 c 0,0,1
EndSplineSet
EndChar

StartChar: quoteright
Encoding: 8217 8217 427
Width: 423
Flags: W
LayerCount: 2
Fore
SplineSet
320 1102 m 0,0,1
 319 1026 319 1026 267.5 951.5 c 128,-1,2
 216 877 216 877 152 847 c 1,3,-1
 116 915 l 1,4,5
 134 925 134 925 160 953 c 128,-1,6
 186 981 186 981 197 1026 c 1,7,8
 120 1058 120 1058 124 1123 c 0,9,10
 124 1142 124 1142 131.5 1158.5 c 128,-1,11
 139 1175 139 1175 152 1188 c 128,-1,12
 165 1201 165 1201 182 1208.5 c 128,-1,13
 199 1216 199 1216 218 1216 c 0,14,15
 242 1216 242 1216 260.5 1206 c 128,-1,16
 279 1196 279 1196 292.5 1180 c 128,-1,17
 306 1164 306 1164 313 1143.5 c 128,-1,18
 320 1123 320 1123 320 1102 c 0,0,1
EndSplineSet
EndChar

StartChar: afii57451
Encoding: 1611 1611 428
Width: 0
GlyphClass: 4
Flags: W
AnchorPoint: "Anchor-2" 0 0 mark 0
AnchorPoint: "Anchor-0" 0 0 mark 0
LayerCount: 2
Fore
SplineSet
-193 196 m 2,0,1
 -201 194 -201 194 -208 194 c 0,2,3
 -252 194 -252 194 -252 241 c 0,4,5
 -252 276 -252 276 -210 290 c 2,6,-1
 161 408 l 2,7,8
 170 411 170 411 182 411 c 0,9,10
 232 411 232 411 232 363 c 0,11,12
 232 328 232 328 192 316 c 2,13,-1
 -193 196 l 2,0,1
-183 6 m 2,14,15
 -191 4 -191 4 -198 4 c 0,16,17
 -242 4 -242 4 -242 51 c 0,18,19
 -242 86 -242 86 -201 100 c 2,20,-1
 170 218 l 2,21,22
 179 221 179 221 191 221 c 0,23,24
 242 221 242 221 242 173 c 0,25,26
 242 140 242 140 201 126 c 2,27,-1
 -183 6 l 2,14,15
EndSplineSet
EndChar

StartChar: afii57454
Encoding: 1614 1614 429
Width: 0
GlyphClass: 4
Flags: W
AnchorPoint: "Anchor-2" 0 0 mark 0
AnchorPoint: "Anchor-0" 0 0 mark 0
LayerCount: 2
Fore
SplineSet
-183 6 m 2,0,1
 -191 4 -191 4 -198 4 c 0,2,3
 -242 4 -242 4 -242 51 c 0,4,5
 -242 86 -242 86 -201 100 c 2,6,-1
 170 218 l 2,7,8
 179 221 179 221 191 221 c 0,9,10
 242 221 242 221 242 173 c 0,11,12
 242 140 242 140 201 126 c 2,13,-1
 -183 6 l 2,0,1
EndSplineSet
EndChar

StartChar: afii57455
Encoding: 1615 1615 430
Width: 0
GlyphClass: 4
Flags: W
AnchorPoint: "Anchor-2" 0 0 mark 0
AnchorPoint: "Anchor-0" 0 0 mark 0
LayerCount: 2
Fore
SplineSet
242 373 m 0,0,1
 242 267 242 267 141 190 c 1,2,3
 177 164 177 164 177 137 c 0,4,5
 177 103 177 103 137 103 c 0,6,7
 105 103 105 103 70 131 c 1,8,9
 -151 15 -151 15 -238 15 c 0,10,11
 -290 15 -290 15 -290 58 c 0,12,13
 -290 92 -290 92 -249 103 c 0,14,15
 -99 142 -99 142 -9 200 c 1,16,17
 -53 247 -53 247 -53 303 c 0,18,19
 -53 373 -53 373 -1 429 c 0,20,21
 51 486 51 486 119 486 c 0,22,23
 167 486 167 486 205 453 c 0,24,25
 242 422 242 422 242 373 c 0,0,1
154 339 m 0,26,27
 154 396 154 396 99 396 c 0,28,29
 72 396 72 396 50 369 c 0,30,31
 28 344 28 344 28 316 c 0,32,33
 28 272 28 272 75 246 c 1,34,35
 101 253 101 253 128 283 c 0,36,37
 154 314 154 314 154 339 c 0,26,27
EndSplineSet
EndChar

StartChar: afii57452
Encoding: 1612 1612 431
Width: 0
GlyphClass: 4
Flags: W
AnchorPoint: "Anchor-2" 0 0 mark 0
AnchorPoint: "Anchor-0" 0 0 mark 0
LayerCount: 2
Fore
SplineSet
264 363 m 0,0,1
 264 257 264 257 163 180 c 1,2,3
 199 154 199 154 199 127 c 0,4,5
 199 93 199 93 159 93 c 0,6,7
 127 93 127 93 92 121 c 1,8,9
 -129 5 -129 5 -216 5 c 0,10,11
 -268 5 -268 5 -268 48 c 0,12,13
 -268 82 -268 82 -227 93 c 0,14,15
 -159 111 -159 111 -159 172 c 0,16,17
 -159 200 -159 200 -198 200 c 0,18,19
 -226 200 -226 200 -251 185 c 0,20,21
 -266 176 -266 176 -277 176 c 0,22,23
 -301 176 -301 176 -301 201 c 0,24,25
 -301 221 -301 221 -282 240 c 0,26,27
 -241 281 -241 281 -179 281 c 0,28,29
 -87 281 -87 281 -87 197 c 0,30,31
 -87 168 -87 168 -104 131 c 1,32,33
 -75 142 -75 142 -45.5 156.5 c 128,-1,34
 -16 171 -16 171 13 190 c 1,35,36
 -31 237 -31 237 -31 293 c 0,37,38
 -31 363 -31 363 21 419 c 0,39,40
 73 476 73 476 141 476 c 0,41,42
 189 476 189 476 227 443 c 0,43,44
 264 412 264 412 264 363 c 0,0,1
176 329 m 0,45,46
 176 386 176 386 121 386 c 0,47,48
 94 386 94 386 72 359 c 0,49,50
 50 334 50 334 50 306 c 0,51,52
 50 262 50 262 97 236 c 1,53,54
 123 243 123 243 150 273 c 0,55,56
 176 304 176 304 176 329 c 0,45,46
EndSplineSet
EndChar

StartChar: afii57456
Encoding: 1616 1616 432
Width: 0
GlyphClass: 4
Flags: W
AnchorPoint: "Anchor-3" 0 0 mark 0
AnchorPoint: "Anchor-1" 0 0 mark 0
LayerCount: 2
Fore
SplineSet
-183 6 m 2,0,1
 -191 4 -191 4 -198 4 c 0,2,3
 -242 4 -242 4 -242 51 c 0,4,5
 -242 86 -242 86 -201 100 c 2,6,-1
 170 218 l 2,7,8
 179 221 179 221 191 221 c 0,9,10
 242 221 242 221 242 173 c 0,11,12
 242 140 242 140 201 126 c 2,13,-1
 -183 6 l 2,0,1
EndSplineSet
EndChar

StartChar: afii57457
Encoding: 1617 1617 433
Width: 0
GlyphClass: 4
Flags: W
AnchorPoint: "Anchor-2" 0 0 mark 0
AnchorPoint: "Anchor-0" 0 0 mark 0
LayerCount: 2
Fore
SplineSet
238 296 m 0,0,1
 245 264 245 264 245 230 c 0,2,3
 245 153 245 153 213 100 c 0,4,5
 175 37 175 37 102 37 c 0,6,7
 32 37 32 37 8 105 c 1,8,9
 -30 0 -30 0 -131 0 c 0,10,11
 -227 0 -227 0 -227 126 c 0,12,13
 -227 179 -227 179 -204 230 c 0,14,15
 -191 257 -191 257 -169 257 c 0,16,17
 -138 257 -138 257 -142 211 c 0,18,19
 -152 123 -152 123 -102 123 c 0,20,21
 -29 123 -29 123 -11 252 c 0,22,23
 -5 295 -5 295 25 295 c 0,24,25
 53 295 53 295 54 255 c 0,26,27
 58 155 58 155 117 155 c 0,28,29
 153 155 153 155 165 205 c 0,30,31
 173 241 173 241 167 282 c 0,32,33
 166 287 166 287 166 297 c 0,34,35
 166 342 166 342 198 342 c 0,36,37
 229 342 229 342 238 296 c 0,0,1
EndSplineSet
EndChar

StartChar: afii57458
Encoding: 1618 1618 434
Width: 0
GlyphClass: 4
Flags: W
AnchorPoint: "Anchor-2" 0 0 mark 0
AnchorPoint: "Anchor-0" 0 0 mark 0
LayerCount: 2
Fore
SplineSet
160 187 m 0,0,1
 160 112 160 112 109 60 c 256,2,3
 58 8 58 8 -15 8 c 0,4,5
 -50 8 -50 8 -77.5 19.5 c 128,-1,6
 -105 31 -105 31 -125 52 c 128,-1,7
 -145 73 -145 73 -155.5 102 c 128,-1,8
 -166 131 -166 131 -166 166 c 0,9,10
 -166 257 -166 257 -109 311 c 0,11,12
 -62 355 -62 355 -7 355 c 0,13,14
 66 355 66 355 113 308 c 256,15,16
 160 261 160 261 160 187 c 0,0,1
86 170 m 0,17,18
 86 208 86 208 54 234 c 0,19,20
 23 259 23 259 -18 259 c 0,21,22
 -47 259 -47 259 -69 232 c 0,23,24
 -91 207 -91 207 -91 176 c 0,25,26
 -91 105 -91 105 -1 105 c 0,27,28
 30 105 30 105 56 122 c 0,29,30
 86 141 86 141 86 170 c 0,17,18
EndSplineSet
EndChar

StartChar: exclam
Encoding: 33 33 437
Width: 400
GlyphClass: 2
Flags: W
LayerCount: 2
Fore
SplineSet
355 415 m 2,0,1
 349 330 349 330 285 330 c 0,2,3
 218 330 218 330 212 415 c 2,4,-1
 168 1072 l 2,5,6
 167 1076 167 1076 167 1080 c 256,7,8
 167 1084 167 1084 167 1088 c 0,9,10
 167 1117 167 1117 175 1142.5 c 128,-1,11
 183 1168 183 1168 198 1187 c 128,-1,12
 213 1206 213 1206 234 1217 c 128,-1,13
 255 1228 255 1228 282 1228 c 0,14,15
 332 1228 332 1228 363.5 1189 c 128,-1,16
 395 1150 395 1150 395 1088 c 2,17,-1
 395 1072 l 1,18,-1
 355 415 l 2,0,1
406 118 m 0,19,20
 406 93 406 93 396.5 71.5 c 128,-1,21
 387 50 387 50 371 34 c 128,-1,22
 355 18 355 18 333 9 c 128,-1,23
 311 0 311 0 287 0 c 256,24,25
 263 0 263 0 241.5 9.5 c 128,-1,26
 220 19 220 19 204 35 c 128,-1,27
 188 51 188 51 178.5 72.5 c 128,-1,28
 169 94 169 94 169 118 c 256,29,30
 169 142 169 142 178 164 c 128,-1,31
 187 186 187 186 203 202 c 128,-1,32
 219 218 219 218 240.5 227.5 c 128,-1,33
 262 237 262 237 287 237 c 0,34,35
 311 237 311 237 333 227.5 c 128,-1,36
 355 218 355 218 371 202 c 128,-1,37
 387 186 387 186 396.5 164 c 128,-1,38
 406 142 406 142 406 118 c 0,19,20
EndSplineSet
EndChar

StartChar: afii64060
Encoding: 64830 64830 438
Width: 603
GlyphClass: 2
Flags: W
LayerCount: 2
Fore
SplineSet
587 -210 m 0,0,1
 601 -233 601 -233 601 -257 c 0,2,3
 601 -317 601 -317 545 -317 c 0,4,5
 513 -317 513 -317 478 -285 c 0,6,7
 318 -135 318 -135 234 94 c 0,8,9
 165 281 165 281 165 462 c 0,10,11
 165 625 165 625 234 820 c 0,12,13
 321 1067 321 1067 478 1213 c 0,14,15
 510 1242 510 1242 543 1242 c 0,16,17
 602 1242 602 1242 602 1186 c 0,18,19
 602 1162 602 1162 587 1138 c 0,20,21
 527 1043 527 1043 493.5 985.5 c 128,-1,22
 460 928 460 928 450 908 c 0,23,24
 346 688 346 688 346 464 c 0,25,26
 346 241 346 241 451 21 c 0,27,28
 462 -4 462 -4 496 -61.5 c 128,-1,29
 530 -119 530 -119 587 -210 c 0,0,1
EndSplineSet
EndChar

StartChar: afii64061
Encoding: 64831 64831 439
Width: 603
GlyphClass: 2
Flags: W
LayerCount: 2
Fore
SplineSet
179 -210 m 0,0,1
 235 -120 235 -120 268.5 -62.5 c 128,-1,2
 302 -5 302 -5 315 21 c 0,3,4
 419 243 419 243 419 464 c 0,5,6
 419 686 419 686 315 908 c 0,7,8
 304 931 304 931 270.5 988 c 128,-1,9
 237 1045 237 1045 179 1138 c 0,10,11
 164 1162 164 1162 164 1186 c 0,12,13
 164 1242 164 1242 222 1242 c 0,14,15
 255 1242 255 1242 287 1213 c 0,16,17
 447 1064 447 1064 532 820 c 0,18,19
 600 625 600 625 600 462 c 0,20,21
 600 281 600 281 532 94 c 0,22,23
 449 -133 449 -133 287 -285 c 0,24,25
 252 -317 252 -317 220 -317 c 0,26,27
 164 -317 164 -317 164 -257 c 0,28,29
 164 -234 164 -234 179 -210 c 0,0,1
EndSplineSet
EndChar

StartChar: afii62821
Encoding: 65252 65252 440
Width: 866
GlyphClass: 2
Flags: W
AnchorPoint: "Anchor-3" 405 -585 basechar 0
AnchorPoint: "Anchor-2" 360 780 basechar 0
LayerCount: 2
Fore
SplineSet
866 0 m 1,0,-1
 830 0 l 2,1,2
 694 0 694 0 629 64 c 1,3,4
 585 -76 585 -76 423 -76 c 0,5,6
 277 -76 277 -76 192 72 c 1,7,8
 130 0 130 0 37 0 c 2,9,-1
 -70 0 l 1,10,-1
 -70 233 l 1,11,-1
 23 233 l 2,12,13
 112 233 112 233 179 330 c 0,14,15
 282 480 282 480 404 480 c 0,16,17
 501 480 501 480 575 402 c 0,18,19
 591 385 591 385 618.5 355 c 128,-1,20
 646 325 646 325 687 280 c 1,21,22
 748 233 748 233 862 233 c 2,23,-1
 866 233 l 1,24,-1
 866 0 l 1,0,-1
502 176 m 0,25,26
 502 222 502 222 468 260 c 0,27,28
 435 299 435 299 390 299 c 0,29,30
 323 299 323 299 323 218 c 0,31,32
 323 171 323 171 356 138 c 0,33,34
 390 105 390 105 437 105 c 0,35,36
 502 105 502 105 502 176 c 0,25,26
EndSplineSet
EndChar

StartChar: uni25CC
Encoding: 9676 9676 441
Width: 911
Flags: W
AnchorPoint: "Anchor-3" 495 -390 basechar 0
AnchorPoint: "Anchor-2" 465 930 basechar 0
LayerCount: 2
Fore
SplineSet
771 629 m 256,0,1
 771 592 771 592 734 592 c 0,2,3
 695 592 695 592 695 629 c 256,4,5
 695 666 695 666 734 666 c 0,6,7
 771 666 771 666 771 629 c 256,0,1
658 703 m 0,8,9
 658 666 658 666 621 666 c 0,10,11
 582 666 582 666 582 703 c 0,12,13
 582 742 582 742 621 742 c 0,14,15
 658 742 658 742 658 703 c 0,8,9
847 516 m 0,16,17
 847 477 847 477 808 477 c 0,18,19
 771 477 771 477 771 516 c 0,20,21
 771 553 771 553 810 553 c 0,22,23
 847 553 847 553 847 516 c 0,16,17
873 384 m 256,24,25
 873 347 873 347 836 347 c 0,26,27
 797 347 797 347 797 384 c 256,28,29
 797 421 797 421 836 421 c 0,30,31
 873 421 873 421 873 384 c 256,24,25
525 731 m 0,32,33
 525 692 525 692 488 692 c 256,34,35
 451 692 451 692 451 731 c 0,36,37
 451 768 451 768 488 768 c 256,38,39
 525 768 525 768 525 731 c 0,32,33
847 251 m 0,40,41
 847 214 847 214 808 214 c 0,42,43
 771 214 771 214 771 251 c 0,44,45
 771 290 771 290 808 290 c 0,46,47
 847 290 847 290 847 251 c 0,40,41
394 703 m 0,48,49
 394 666 394 666 356 666 c 0,50,51
 319 666 319 666 319 703 c 0,52,53
 319 742 319 742 356 742 c 0,54,55
 394 742 394 742 394 703 c 0,48,49
282 629 m 256,56,57
 282 592 282 592 243 592 c 0,58,59
 206 592 206 592 206 627 c 0,60,61
 206 666 206 666 243 666 c 0,62,63
 282 666 282 666 282 629 c 256,56,57
771 138 m 0,64,65
 771 101 771 101 734 101 c 256,66,67
 697 101 697 101 697 138 c 0,68,69
 697 177 697 177 734 177 c 256,70,71
 771 177 771 177 771 138 c 0,64,65
658 64 m 0,72,73
 658 27 658 27 621 27 c 256,74,75
 584 27 584 27 584 64 c 0,76,77
 584 103 584 103 621 103 c 256,78,79
 658 103 658 103 658 64 c 0,72,73
206 516 m 0,80,81
 206 477 206 477 171 477 c 0,82,83
 132 477 132 477 132 516 c 0,84,85
 132 553 132 553 169 553 c 256,86,87
 206 553 206 553 206 516 c 0,80,81
180 384 m 256,88,89
 180 347 180 347 143 347 c 0,90,91
 104 347 104 347 104 384 c 256,92,93
 104 421 104 421 143 421 c 0,94,95
 180 421 180 421 180 384 c 256,88,89
525 38 m 0,96,97
 525 -1 525 -1 488 -1 c 256,98,99
 451 -1 451 -1 451 38 c 0,100,101
 451 75 451 75 488 75 c 256,102,103
 525 75 525 75 525 38 c 0,96,97
394 66 m 0,104,105
 394 27 394 27 356 27 c 0,106,107
 319 27 319 27 319 64 c 0,108,109
 319 103 319 103 356 103 c 0,110,111
 394 103 394 103 394 66 c 0,104,105
206 251 m 0,112,113
 206 214 206 214 169 214 c 256,114,115
 132 214 132 214 132 251 c 0,116,117
 132 290 132 290 169 290 c 256,118,119
 206 290 206 290 206 251 c 0,112,113
282 138 m 0,120,121
 282 101 282 101 245 101 c 0,122,123
 206 101 206 101 206 138 c 0,124,125
 206 177 206 177 243 177 c 0,126,127
 282 177 282 177 282 138 c 0,120,121
EndSplineSet
EndChar

StartChar: afii62819
Encoding: 65246 65246 442
Width: 1260
GlyphClass: 2
Flags: W
AnchorPoint: "Anchor-3" 540 -930 basechar 0
AnchorPoint: "Anchor-2" 795 1290 basechar 0
LayerCount: 2
Fore
SplineSet
1260 0 m 1,0,-1
 1229 0 l 2,1,2
 1123 0 1123 0 1081 83 c 1,3,4
 1074 -162 1074 -162 957 -298 c 0,5,6
 829 -444 829 -444 590 -444 c 0,7,8
 398 -444 398 -444 282 -325 c 256,9,10
 166 -206 166 -206 166 -15 c 0,11,12
 166 93 166 93 195 183 c 0,13,14
 231 293 231 293 300 293 c 0,15,16
 378 293 378 293 378 218 c 0,17,18
 378 184 378 184 366 118 c 256,19,20
 354 52 354 52 354 18 c 0,21,22
 354 -93 354 -93 432 -154 c 0,23,24
 504 -211 504 -211 617 -211 c 0,25,26
 768 -211 768 -211 844 -120 c 0,27,28
 917 -34 917 -34 912 118 c 2,29,-1
 884 1105 l 2,30,31
 883 1156 883 1156 912 1191 c 128,-1,32
 941 1226 941 1226 991 1226 c 0,33,34
 1086 1226 1086 1226 1086 1110 c 2,35,-1
 1086 489 l 2,36,37
 1086 233 1086 233 1255 233 c 2,38,-1
 1260 233 l 1,39,-1
 1260 0 l 1,0,-1
EndSplineSet
EndChar

StartChar: braceright
Encoding: 125 125 445
Width: 638
GlyphClass: 2
Flags: W
LayerCount: 2
Fore
SplineSet
583 328 m 1,0,1
 525 325 525 325 495.5 310.5 c 128,-1,2
 466 296 466 296 444.5 262 c 128,-1,3
 423 228 423 228 414 177 c 0,4,5
 408 138 408 138 408 44 c 0,6,7
 408 -111 408 -111 394 -172.5 c 128,-1,8
 380 -234 380 -234 342.5 -271.5 c 128,-1,9
 305 -309 305 -309 232 -330 c 0,10,11
 183 -345 183 -345 78 -345 c 2,12,-1
 36 -345 l 1,13,-1
 36 -153 l 1,14,15
 122 -153 122 -153 148 -142 c 128,-1,16
 174 -131 174 -131 186.5 -110.5 c 128,-1,17
 199 -90 199 -90 199.5 -41.5 c 128,-1,18
 200 7 200 7 206 145 c 0,19,20
 210 228 210 228 228 278 c 128,-1,21
 246 328 246 328 275 363 c 128,-1,22
 304 398 304 398 350 424 c 1,23,24
 290 462 290 462 263 499 c 0,25,26
 226 552 226 552 212 634 c 0,27,28
 203 690 203 690 199 880 c 0,29,30
 198 940 198 940 188 960 c 128,-1,31
 178 980 178 980 152 991 c 128,-1,32
 126 1002 126 1002 36 1002 c 1,33,-1
 36 1193 l 1,34,-1
 78 1193 l 2,35,36
 186 1193 186 1193 244 1176 c 128,-1,37
 302 1159 302 1159 341 1118.5 c 128,-1,38
 380 1078 380 1078 394 1019.5 c 128,-1,39
 408 961 408 961 408 834 c 0,40,41
 408 688 408 688 420 643 c 0,42,43
 438 579 438 579 474 551.5 c 128,-1,44
 510 524 510 524 583 520 c 1,45,-1
 583 328 l 1,0,1
EndSplineSet
EndChar

StartChar: uni0656
Encoding: 1622 1622 452
Width: 0
GlyphClass: 4
Flags: W
AnchorPoint: "Anchor-3" 0 0 mark 0
AnchorPoint: "Anchor-1" 0 0 mark 0
LayerCount: 2
Fore
SplineSet
32 46 m 2,0,1
 32 2 32 2 3 2 c 0,2,3
 -25 2 -25 2 -29 45 c 2,4,-1
 -46 281 l 2,5,6
 -54 337 -54 337 -4 337 c 0,7,8
 33 337 33 337 33 287 c 2,9,-1
 32 46 l 2,0,1
EndSplineSet
EndChar

StartChar: E005
Encoding: 65578 -1 470
Width: 476
GlyphClass: 3
Flags: W
LayerCount: 2
Fore
SplineSet
-43 0 m 1,0,-1
 -43 207 l 1,1,-1
 581 207 l 1,2,-1
 581 0 l 1,3,-1
 -43 0 l 1,0,-1
EndSplineSet
EndChar

StartChar: afii57470
Encoding: 1726 1726 480
Width: 926
Flags: W
AnchorPoint: "Anchor-3" 270 -570 basechar 0
AnchorPoint: "Anchor-2" 375 1110 basechar 0
LayerCount: 2
Fore
SplineSet
899 224 m 0,0,1
 899 111 899 111 849 38 c 0,2,3
 792 -45 792 -45 683 -45 c 0,4,5
 575 -45 575 -45 403 54 c 1,6,7
 322 0 322 0 147 0 c 2,8,-1
 -70 0 l 1,9,-1
 -70 233 l 1,10,-1
 157 233 l 1,11,12
 121 255 121 255 121 336 c 0,13,14
 121 466 121 466 267 591 c 1,15,-1
 223 626 l 2,16,17
 185 656 185 656 185 706 c 0,18,19
 185 753 185 753 217 791 c 256,20,21
 249 829 249 829 296 829 c 0,22,23
 329 829 329 829 360 810 c 0,24,25
 899 481 899 481 899 224 c 0,0,1
735 226 m 0,26,27
 725 284 725 284 612 368 c 1,28,29
 617 353 617 353 617 338 c 0,30,31
 617 260 617 260 559 193 c 1,32,33
 575 177 575 177 615 159 c 256,34,35
 655 141 655 141 677 141 c 0,36,37
 737 141 737 141 737 203 c 0,38,39
 737 209 737 209 736.5 215 c 128,-1,40
 736 221 736 221 735 226 c 0,26,27
463 371 m 0,41,42
 463 412 463 412 438 444 c 0,43,44
 413 478 413 478 375 478 c 0,45,46
 339 478 339 478 303 441 c 0,47,48
 267 405 267 405 267 369 c 0,49,50
 267 331 267 331 297 303 c 0,51,52
 326 275 326 275 364 275 c 0,53,54
 463 275 463 275 463 371 c 0,41,42
EndSplineSet
Substitution2: "'medi' Medial Forms in Arabic lookup 3 subtable" afii62827
Substitution2: "'fina' Terminal Forms in Arabic lookup 2 subtable" afii62827
Substitution2: "'init' Initial Forms in Arabic lookup 1 subtable" afii57470
EndChar

StartChar: at
Encoding: 64 64 489
Width: 1598
Flags: W
LayerCount: 2
Fore
SplineSet
1422 15 m 1,0,-1
 1592 15 l 1,1,2
 1512 -147 1512 -147 1346 -239 c 0,3,4
 1157 -345 1157 -345 884 -345 c 0,5,6
 620 -345 620 -345 428 -255.5 c 128,-1,7
 236 -166 236 -166 142.5 8 c 128,-1,8
 49 182 49 182 49 386 c 0,9,10
 49 611 49 611 155.5 805 c 128,-1,11
 262 999 262 999 446.5 1096.5 c 128,-1,12
 631 1194 631 1194 869 1194 c 0,13,14
 1070 1194 1070 1194 1227 1115.5 c 128,-1,15
 1384 1037 1384 1037 1467 892.5 c 128,-1,16
 1550 748 1550 748 1550 577 c 0,17,18
 1550 373 1550 373 1424 208 c 0,19,20
 1266 0 1266 0 1020 0 c 0,21,22
 954 0 954 0 920 23 c 128,-1,23
 886 46 886 46 875 91 c 1,24,25
 781 0 781 0 658 0 c 0,26,27
 525 0 525 0 437.5 91.5 c 128,-1,28
 350 183 350 183 350 335 c 0,29,30
 350 523 350 523 455 678 c 0,31,32
 583 867 583 867 783 867 c 0,33,34
 926 867 926 867 994 758 c 1,35,-1
 1014 847 l 1,36,-1
 1225 847 l 1,37,-1
 1104 274 l 2,38,39
 1093 219 1093 219 1093 203 c 0,40,41
 1093 183 1093 183 1102 173 c 128,-1,42
 1111 163 1111 163 1124 163 c 0,43,44
 1162 163 1162 163 1223 210 c 0,45,46
 1305 270 1305 270 1355.5 372.5 c 128,-1,47
 1406 475 1406 475 1406 585 c 0,48,49
 1406 782 1406 782 1263.5 914 c 128,-1,50
 1121 1046 1121 1046 866 1046 c 0,51,52
 649 1046 649 1046 498 958 c 128,-1,53
 347 870 347 870 270.5 709.5 c 128,-1,54
 194 549 194 549 194 375 c 0,55,56
 194 206 194 206 279.5 68 c 128,-1,57
 365 -70 365 -70 519 -134 c 128,-1,58
 673 -198 673 -198 871 -198 c 0,59,60
 1062 -198 1062 -198 1200 -144.5 c 128,-1,61
 1338 -91 1338 -91 1422 15 c 1,0,-1
557 344 m 0,62,63
 557 242 557 242 598 194 c 128,-1,64
 639 146 639 146 700 146 c 0,65,66
 746 146 746 146 786 169 c 0,67,68
 816 185 816 185 846 219 c 0,69,70
 888 268 888 268 919 361.5 c 128,-1,71
 950 455 950 455 950 536 c 0,72,73
 950 626 950 626 908 674.5 c 128,-1,74
 866 723 866 723 802 723 c 0,75,76
 733 723 733 723 674.5 670 c 128,-1,77
 616 617 616 617 586.5 518.5 c 128,-1,78
 557 420 557 420 557 344 c 0,62,63
EndSplineSet
EndChar

StartChar: A
Encoding: 65 65 490
Width: 1183
Flags: W
LayerCount: 2
Fore
SplineSet
1177 0 m 1,0,-1
 919 0 l 1,1,-1
 817 266 l 1,2,-1
 348 266 l 1,3,-1
 251 0 l 1,4,-1
 0 0 l 1,5,-1
 457 1173 l 1,6,-1
 707 1173 l 1,7,-1
 1177 0 l 1,0,-1
741 464 m 1,8,-1
 579 899 l 1,9,-1
 421 464 l 1,10,-1
 741 464 l 1,8,-1
EndSplineSet
EndChar

StartChar: B
Encoding: 66 66 491
Width: 1183
Flags: W
LayerCount: 2
Fore
SplineSet
120 1173 m 1,0,-1
 589 1173 l 2,1,2
 728 1173 728 1173 796.5 1161.5 c 128,-1,3
 865 1150 865 1150 919 1113 c 128,-1,4
 973 1076 973 1076 1009 1015 c 128,-1,5
 1045 954 1045 954 1045 878 c 0,6,7
 1045 795 1045 795 1000.5 726.5 c 128,-1,8
 956 658 956 658 880 623 c 1,9,10
 987 592 987 592 1044.5 517 c 128,-1,11
 1102 442 1102 442 1102 340 c 0,12,13
 1102 260 1102 260 1065 184.5 c 128,-1,14
 1028 109 1028 109 963.5 63.5 c 128,-1,15
 899 18 899 18 805 8 c 0,16,17
 746 2 746 2 519 0 c 2,18,-1
 120 0 l 1,19,-1
 120 1173 l 1,0,-1
357 978 m 1,20,-1
 357 706 l 1,21,-1
 512 706 l 2,22,23
 650 706 650 706 684 710 c 0,24,25
 745 718 745 718 779.5 752.5 c 128,-1,26
 814 787 814 787 814 844 c 0,27,28
 814 898 814 898 784 932 c 128,-1,29
 754 966 754 966 695 974 c 0,30,31
 660 978 660 978 493 978 c 2,32,-1
 357 978 l 1,20,-1
357 511 m 1,33,-1
 357 198 l 1,34,-1
 576 198 l 2,35,36
 704 198 704 198 738 205 c 0,37,38
 791 214 791 214 824.5 251.5 c 128,-1,39
 858 289 858 289 858 351 c 0,40,41
 858 404 858 404 832 441 c 128,-1,42
 806 478 806 478 758 494.5 c 128,-1,43
 710 511 710 511 548 511 c 2,44,-1
 357 511 l 1,33,-1
EndSplineSet
EndChar

StartChar: C
Encoding: 67 67 492
Width: 1183
Flags: W
LayerCount: 2
Fore
SplineSet
870 431 m 1,0,-1
 1099 358 l 1,1,2
 1046 166 1046 166 923.5 73 c 128,-1,3
 801 -20 801 -20 612 -20 c 0,4,5
 378 -20 378 -20 228 139.5 c 128,-1,6
 78 299 78 299 78 576 c 0,7,8
 78 869 78 869 229 1031 c 128,-1,9
 380 1193 380 1193 626 1193 c 0,10,11
 842 1193 842 1193 976 1066 c 0,12,13
 1056 990 1056 990 1096 850 c 1,14,-1
 862 794 l 1,15,16
 841 885 841 885 775 937.5 c 128,-1,17
 709 990 709 990 614 990 c 0,18,19
 484 990 484 990 403 896.5 c 128,-1,20
 322 803 322 803 322 594 c 0,21,22
 322 371 322 371 402 276.5 c 128,-1,23
 482 182 482 182 610 182 c 0,24,25
 704 182 704 182 772 242 c 128,-1,26
 840 302 840 302 870 431 c 1,0,-1
EndSplineSet
EndChar

StartChar: D
Encoding: 68 68 493
Width: 1183
Flags: W
LayerCount: 2
Fore
SplineSet
118 1173 m 1,0,-1
 551 1173 l 2,1,2
 698 1173 698 1173 774 1150 c 0,3,4
 878 1120 878 1120 951.5 1042.5 c 128,-1,5
 1025 965 1025 965 1063.5 852.5 c 128,-1,6
 1102 740 1102 740 1102 575 c 0,7,8
 1102 430 1102 430 1066 326 c 0,9,10
 1022 198 1022 198 940 118 c 0,11,12
 878 58 878 58 774 25 c 0,13,14
 695 0 695 0 564 0 c 2,15,-1
 118 0 l 1,16,-1
 118 1173 l 1,0,-1
355 974 m 1,17,-1
 355 198 l 1,18,-1
 532 198 l 2,19,20
 631 198 631 198 675 209 c 0,21,22
 733 223 733 223 771 257.5 c 128,-1,23
 809 292 809 292 833 371 c 128,-1,24
 857 450 857 450 857 586 c 256,25,26
 857 722 857 722 833 794.5 c 128,-1,27
 809 867 809 867 765.5 908 c 128,-1,28
 722 949 722 949 656 963 c 0,29,30
 606 974 606 974 462 974 c 2,31,-1
 355 974 l 1,17,-1
EndSplineSet
EndChar

StartChar: E
Encoding: 69 69 494
Width: 1093
Flags: W
LayerCount: 2
Fore
SplineSet
119 0 m 1,0,-1
 119 1173 l 1,1,-1
 989 1173 l 1,2,-1
 989 974 l 1,3,-1
 356 974 l 1,4,-1
 356 714 l 1,5,-1
 945 714 l 1,6,-1
 945 517 l 1,7,-1
 356 517 l 1,8,-1
 356 198 l 1,9,-1
 1011 198 l 1,10,-1
 1011 0 l 1,11,-1
 119 0 l 1,0,-1
EndSplineSet
EndChar

StartChar: F
Encoding: 70 70 495
Width: 1001
Flags: W
LayerCount: 2
Fore
SplineSet
121 0 m 1,0,-1
 121 1173 l 1,1,-1
 925 1173 l 1,2,-1
 925 974 l 1,3,-1
 358 974 l 1,4,-1
 358 697 l 1,5,-1
 847 697 l 1,6,-1
 847 498 l 1,7,-1
 358 498 l 1,8,-1
 358 0 l 1,9,-1
 121 0 l 1,0,-1
EndSplineSet
EndChar

StartChar: G
Encoding: 71 71 496
Width: 1274
Flags: W
LayerCount: 2
Fore
SplineSet
665 431 m 1,0,-1
 665 629 l 1,1,-1
 1175 629 l 1,2,-1
 1175 162 l 1,3,4
 1101 90 1101 90 959.5 35 c 128,-1,5
 818 -20 818 -20 674 -20 c 0,6,7
 490 -20 490 -20 353 57 c 128,-1,8
 216 134 216 134 147 278 c 128,-1,9
 78 422 78 422 78 590 c 0,10,11
 78 774 78 774 155 916 c 128,-1,12
 232 1058 232 1058 380 1134 c 0,13,14
 493 1193 493 1193 661 1193 c 0,15,16
 879 1193 879 1193 1002 1101.5 c 128,-1,17
 1125 1010 1125 1010 1160 848 c 1,18,-1
 925 804 l 1,19,20
 900 890 900 890 831.5 940 c 128,-1,21
 763 990 763 990 661 990 c 0,22,23
 506 990 506 990 414 892 c 128,-1,24
 322 794 322 794 322 600 c 0,25,26
 322 391 322 391 415 286.5 c 128,-1,27
 508 182 508 182 658 182 c 0,28,29
 733 182 733 182 807.5 211.5 c 128,-1,30
 882 241 882 241 936 282 c 1,31,-1
 936 431 l 1,32,-1
 665 431 l 1,0,-1
EndSplineSet
EndChar

StartChar: H
Encoding: 72 72 497
Width: 1183
Flags: W
LayerCount: 2
Fore
SplineSet
120 0 m 1,0,-1
 120 1173 l 1,1,-1
 357 1173 l 1,2,-1
 357 711 l 1,3,-1
 821 711 l 1,4,-1
 821 1173 l 1,5,-1
 1058 1173 l 1,6,-1
 1058 0 l 1,7,-1
 821 0 l 1,8,-1
 821 513 l 1,9,-1
 357 513 l 1,10,-1
 357 0 l 1,11,-1
 120 0 l 1,0,-1
EndSplineSet
EndChar

StartChar: I
Encoding: 73 73 498
Width: 455
Flags: W
LayerCount: 2
Fore
SplineSet
112 0 m 1,0,-1
 112 1173 l 1,1,-1
 349 1173 l 1,2,-1
 349 0 l 1,3,-1
 112 0 l 1,0,-1
EndSplineSet
EndChar

StartChar: J
Encoding: 74 74 499
Width: 911
Flags: W
LayerCount: 2
Fore
SplineSet
542 1173 m 1,0,-1
 778 1173 l 1,1,-1
 778 430 l 2,2,3
 778 285 778 285 753 206 c 0,4,5
 718 104 718 104 628 42 c 128,-1,6
 538 -20 538 -20 390 -20 c 0,7,8
 216 -20 216 -20 122.5 77 c 128,-1,9
 29 174 29 174 28 362 c 1,10,-1
 251 388 l 1,11,12
 255 287 255 287 281 246 c 0,13,14
 319 182 319 182 398 182 c 256,15,16
 477 182 477 182 509.5 227.5 c 128,-1,17
 542 273 542 273 542 415 c 2,18,-1
 542 1173 l 1,0,-1
EndSplineSet
EndChar

StartChar: K
Encoding: 75 75 500
Width: 1183
Flags: W
LayerCount: 2
Fore
SplineSet
122 0 m 1,0,-1
 122 1173 l 1,1,-1
 359 1173 l 1,2,-1
 359 652 l 1,3,-1
 838 1173 l 1,4,-1
 1156 1173 l 1,5,-1
 714 716 l 1,6,-1
 1180 0 l 1,7,-1
 874 0 l 1,8,-1
 551 550 l 1,9,-1
 359 354 l 1,10,-1
 359 0 l 1,11,-1
 122 0 l 1,0,-1
EndSplineSet
EndChar

StartChar: L
Encoding: 76 76 501
Width: 1001
Flags: W
LayerCount: 2
Fore
SplineSet
126 0 m 1,0,-1
 126 1163 l 1,1,-1
 362 1163 l 1,2,-1
 362 198 l 1,3,-1
 951 198 l 1,4,-1
 951 0 l 1,5,-1
 126 0 l 1,0,-1
EndSplineSet
EndChar

StartChar: M
Encoding: 77 77 502
Width: 1365
Flags: W
LayerCount: 2
Fore
SplineSet
116 0 m 1,0,-1
 116 1173 l 1,1,-1
 470 1173 l 1,2,-1
 683 373 l 1,3,-1
 894 1173 l 1,4,-1
 1249 1173 l 1,5,-1
 1249 0 l 1,6,-1
 1029 0 l 1,7,-1
 1029 923 l 1,8,-1
 796 0 l 1,9,-1
 568 0 l 1,10,-1
 336 923 l 1,11,-1
 336 0 l 1,12,-1
 116 0 l 1,0,-1
EndSplineSet
EndChar

StartChar: N
Encoding: 78 78 503
Width: 1183
Flags: W
LayerCount: 2
Fore
SplineSet
122 0 m 1,0,-1
 122 1173 l 1,1,-1
 352 1173 l 1,2,-1
 832 390 l 1,3,-1
 832 1173 l 1,4,-1
 1052 1173 l 1,5,-1
 1052 0 l 1,6,-1
 814 0 l 1,7,-1
 342 765 l 1,8,-1
 342 0 l 1,9,-1
 122 0 l 1,0,-1
EndSplineSet
EndChar

StartChar: O
Encoding: 79 79 504
Width: 1274
Flags: W
LayerCount: 2
Fore
SplineSet
71 579 m 0,0,1
 71 758 71 758 125 880 c 0,2,3
 165 970 165 970 234 1041 c 128,-1,4
 303 1112 303 1112 386 1146 c 0,5,6
 495 1193 495 1193 638 1193 c 0,7,8
 898 1193 898 1193 1053.5 1032 c 128,-1,9
 1209 871 1209 871 1209 585 c 0,10,11
 1209 301 1209 301 1054.5 140.5 c 128,-1,12
 900 -20 900 -20 642 -20 c 0,13,14
 380 -20 380 -20 225.5 139.5 c 128,-1,15
 71 299 71 299 71 579 c 0,0,1
315 587 m 0,16,17
 315 388 315 388 407 285 c 128,-1,18
 499 182 499 182 641 182 c 0,19,20
 782 182 782 182 873 284 c 128,-1,21
 964 386 964 386 964 590 c 0,22,23
 964 792 964 792 875.5 891 c 128,-1,24
 787 990 787 990 641 990 c 0,25,26
 494 990 494 990 404.5 890 c 128,-1,27
 315 790 315 790 315 587 c 0,16,17
EndSplineSet
EndChar

StartChar: P
Encoding: 80 80 505
Width: 1093
Flags: W
LayerCount: 2
Fore
SplineSet
119 0 m 1,0,-1
 119 1173 l 1,1,-1
 499 1173 l 2,2,3
 715 1173 715 1173 781 1155 c 0,4,5
 882 1129 882 1129 950 1040.5 c 128,-1,6
 1018 952 1018 952 1018 812 c 0,7,8
 1018 704 1018 704 978.5 630.5 c 128,-1,9
 939 557 939 557 878.5 515 c 128,-1,10
 818 473 818 473 756 459 c 0,11,12
 671 442 671 442 510 442 c 2,13,-1
 356 442 l 1,14,-1
 356 0 l 1,15,-1
 119 0 l 1,0,-1
356 974 m 1,16,-1
 356 642 l 1,17,-1
 486 642 l 2,18,19
 626 642 626 642 673 660 c 128,-1,20
 720 678 720 678 747 717.5 c 128,-1,21
 774 757 774 757 774 809 c 0,22,23
 774 873 774 873 736 914.5 c 128,-1,24
 698 956 698 956 641 966 c 0,25,26
 598 974 598 974 470 974 c 2,27,-1
 356 974 l 1,16,-1
EndSplineSet
EndChar

StartChar: Q
Encoding: 81 81 506
Width: 1274
Flags: W
LayerCount: 2
Fore
SplineSet
1063 149 m 1,0,1
 1150 86 1150 86 1253 50 c 1,2,-1
 1166 -118 l 1,3,4
 1112 -102 1112 -102 1061 -74 c 0,5,6
 1050 -68 1050 -68 903 30 c 1,7,8
 788 -20 788 -20 648 -20 c 0,9,10
 378 -20 378 -20 224.5 139 c 128,-1,11
 71 298 71 298 71 586 c 256,12,13
 71 874 71 874 224.5 1033.5 c 128,-1,14
 378 1193 378 1193 642 1193 c 0,15,16
 902 1193 902 1193 1055 1033.5 c 128,-1,17
 1208 874 1208 874 1208 586 c 0,18,19
 1208 434 1208 434 1166 319 c 0,20,21
 1134 231 1134 231 1063 149 c 1,0,1
873 282 m 1,22,23
 918 336 918 336 941 412 c 128,-1,24
 964 488 964 488 964 586 c 0,25,26
 964 790 964 790 874.5 890 c 128,-1,27
 785 990 785 990 640 990 c 256,28,29
 495 990 495 990 405 889.5 c 128,-1,30
 315 789 315 789 315 586 c 0,31,32
 315 381 315 381 405 279 c 128,-1,33
 495 177 495 177 633 177 c 0,34,35
 684 177 684 177 730 194 c 1,36,37
 658 241 658 241 583 267 c 1,38,-1
 650 402 l 1,39,40
 766 362 766 362 873 282 c 1,22,23
EndSplineSet
EndChar

StartChar: R
Encoding: 82 82 507
Width: 1183
Flags: W
LayerCount: 2
Fore
SplineSet
120 0 m 1,0,-1
 120 1173 l 1,1,-1
 618 1173 l 2,2,3
 806 1173 806 1173 891.5 1141.5 c 128,-1,4
 977 1110 977 1110 1028 1029 c 128,-1,5
 1079 948 1079 948 1079 844 c 0,6,7
 1079 712 1079 712 1001.5 626 c 128,-1,8
 924 540 924 540 770 518 c 1,9,10
 846 473 846 473 896 419.5 c 128,-1,11
 946 366 946 366 1031 229 c 2,12,-1
 1174 0 l 1,13,-1
 891 0 l 1,14,-1
 720 255 l 2,15,16
 629 392 629 392 595.5 427.5 c 128,-1,17
 562 463 562 463 524 476.5 c 128,-1,18
 486 490 486 490 405 490 c 2,19,-1
 357 490 l 1,20,-1
 357 0 l 1,21,-1
 120 0 l 1,0,-1
357 677 m 1,22,-1
 532 677 l 2,23,24
 702 677 702 677 744.5 691.5 c 128,-1,25
 787 706 787 706 811 741 c 128,-1,26
 835 776 835 776 835 829 c 0,27,28
 835 888 835 888 803.5 924.5 c 128,-1,29
 772 961 772 961 714 970 c 0,30,31
 686 974 686 974 542 974 c 2,32,-1
 357 974 l 1,33,-1
 357 677 l 1,22,-1
EndSplineSet
EndChar

StartChar: S
Encoding: 83 83 508
Width: 1093
Flags: W
LayerCount: 2
Fore
SplineSet
59 382 m 1,0,-1
 290 404 l 1,1,2
 310 288 310 288 374 233.5 c 128,-1,3
 438 179 438 179 546 179 c 0,4,5
 660 179 660 179 718 227.5 c 128,-1,6
 776 276 776 276 776 341 c 0,7,8
 776 382 776 382 751.5 411.5 c 128,-1,9
 727 441 727 441 666 462 c 0,10,11
 625 477 625 477 477 514 c 0,12,13
 286 561 286 561 210 630 c 0,14,15
 102 726 102 726 102 866 c 0,16,17
 102 955 102 955 152.5 1033 c 128,-1,18
 203 1111 203 1111 298.5 1152 c 128,-1,19
 394 1193 394 1193 530 1193 c 0,20,21
 750 1193 750 1193 862 1096 c 128,-1,22
 974 999 974 999 979 838 c 1,23,-1
 742 827 l 1,24,25
 727 918 727 918 677 957.5 c 128,-1,26
 627 997 627 997 527 997 c 0,27,28
 424 997 424 997 366 954 c 0,29,30
 328 927 328 927 328 882 c 0,31,32
 328 840 328 840 363 810 c 0,33,34
 408 773 408 773 581 732 c 128,-1,35
 754 691 754 691 836.5 647.5 c 128,-1,36
 919 604 919 604 966 528.5 c 128,-1,37
 1013 453 1013 453 1013 342 c 0,38,39
 1013 241 1013 241 957 153 c 128,-1,40
 901 65 901 65 798.5 22 c 128,-1,41
 696 -21 696 -21 543 -21 c 0,42,43
 321 -21 321 -21 201.5 82 c 128,-1,44
 82 185 82 185 59 382 c 1,0,-1
EndSplineSet
EndChar

StartChar: T
Encoding: 84 84 509
Width: 1001
Flags: W
LayerCount: 2
Fore
SplineSet
383 0 m 1,0,-1
 383 974 l 1,1,-1
 35 974 l 1,2,-1
 35 1173 l 1,3,-1
 967 1173 l 1,4,-1
 967 974 l 1,5,-1
 620 974 l 1,6,-1
 620 0 l 1,7,-1
 383 0 l 1,0,-1
EndSplineSet
EndChar

StartChar: U
Encoding: 85 85 510
Width: 1183
Flags: W
LayerCount: 2
Fore
SplineSet
118 1173 m 1,0,-1
 354 1173 l 1,1,-1
 354 538 l 2,2,3
 354 386 354 386 363 342 c 0,4,5
 378 270 378 270 435.5 226 c 128,-1,6
 493 182 493 182 592 182 c 0,7,8
 693 182 693 182 744 223.5 c 128,-1,9
 795 265 795 265 805.5 325 c 128,-1,10
 816 385 816 385 816 524 c 2,11,-1
 816 1173 l 1,12,-1
 1053 1173 l 1,13,-1
 1053 557 l 2,14,15
 1053 346 1053 346 1033.5 258.5 c 128,-1,16
 1014 171 1014 171 962.5 111 c 128,-1,17
 911 51 911 51 824.5 15.5 c 128,-1,18
 738 -20 738 -20 599 -20 c 0,19,20
 431 -20 431 -20 344.5 19 c 128,-1,21
 258 58 258 58 207.5 120 c 128,-1,22
 157 182 157 182 141 250 c 0,23,24
 118 350 118 350 118 547 c 2,25,-1
 118 1173 l 1,0,-1
EndSplineSet
EndChar

StartChar: V
Encoding: 86 86 511
Width: 1093
Flags: W
LayerCount: 2
Fore
SplineSet
418 0 m 1,0,-1
 -1 1173 l 1,1,-1
 256 1173 l 1,2,-1
 553 305 l 1,3,-1
 840 1173 l 1,4,-1
 1091 1173 l 1,5,-1
 671 0 l 1,6,-1
 418 0 l 1,0,-1
EndSplineSet
EndChar

StartChar: W
Encoding: 87 87 512
Width: 1546
Flags: W
LayerCount: 2
Fore
SplineSet
286 0 m 1,0,-1
 6 1173 l 1,1,-1
 248 1173 l 1,2,-1
 425 367 l 1,3,-1
 639 1173 l 1,4,-1
 921 1173 l 1,5,-1
 1126 354 l 1,6,-1
 1306 1173 l 1,7,-1
 1545 1173 l 1,8,-1
 1260 0 l 1,9,-1
 1009 0 l 1,10,-1
 775 877 l 1,11,-1
 542 0 l 1,12,-1
 286 0 l 1,0,-1
EndSplineSet
EndChar

StartChar: X
Encoding: 88 88 513
Width: 1093
Flags: W
LayerCount: 2
Fore
SplineSet
0 0 m 1,0,-1
 401 612 l 1,1,-1
 38 1173 l 1,2,-1
 314 1173 l 1,3,-1
 550 796 l 1,4,-1
 780 1173 l 1,5,-1
 1054 1173 l 1,6,-1
 690 603 l 1,7,-1
 1090 0 l 1,8,-1
 805 0 l 1,9,-1
 545 406 l 1,10,-1
 284 0 l 1,11,-1
 0 0 l 1,0,-1
EndSplineSet
EndChar

StartChar: Y
Encoding: 89 89 514
Width: 1093
Flags: W
LayerCount: 2
Fore
SplineSet
427 0 m 1,0,-1
 427 494 l 1,1,-1
 -2 1173 l 1,2,-1
 275 1173 l 1,3,-1
 551 709 l 1,4,-1
 822 1173 l 1,5,-1
 1094 1173 l 1,6,-1
 663 492 l 1,7,-1
 663 0 l 1,8,-1
 427 0 l 1,0,-1
EndSplineSet
EndChar

StartChar: Z
Encoding: 90 90 515
Width: 1001
Flags: W
LayerCount: 2
Fore
SplineSet
18 0 m 1,0,-1
 18 214 l 1,1,-1
 634 974 l 1,2,-1
 87 974 l 1,3,-1
 87 1173 l 1,4,-1
 946 1173 l 1,5,-1
 946 989 l 1,6,-1
 303 198 l 1,7,-1
 970 198 l 1,8,-1
 970 0 l 1,9,-1
 18 0 l 1,0,-1
EndSplineSet
EndChar

